<?xml version="1.0" encoding="utf-8"?>
<!-- Generator: Adobe Illustrator 26.0.1, SVG Export Plug-In . SVG Version: 6.00 Build 0)  -->
<svg version="1.1" id="Layer_1" xmlns="http://www.w3.org/2000/svg" xmlns:xlink="http://www.w3.org/1999/xlink" x="0px" y="0px"
	 viewBox="0 0 171 36" style="enable-background:new 0 0 171 36;" xml:space="preserve">
<style type="text/css">
	.st0{fill:#FFFFFF;}
	.st1{clip-path:url(#XMLID_00000031183021246736168660000007841308398692721321_);}
	.st2{clip-path:url(#SVGID_00000008142181308271021940000018391383188193928609_);}
	.st3{clip-path:url(#SVGID_00000045589440703607882540000015819895773177939640_);}
</style>
<g>
	<g>
		<g>
			<g transform="translate(29.375557, 18.780673)">
				<g>
					<path class="st0" d="M38.83-5.3c-0.06-0.01-0.17-0.02-0.33-0.02c-0.15,0-0.25,0.01-0.29,0.02c-0.53,0.05-1,0.11-1.4,0.2
						c-0.06,0.03-0.12,0.05-0.18,0.05c-0.06,0-0.11,0.01-0.13,0.02c-0.35,0.08-0.57,0.27-0.67,0.59c-0.06,0.17-0.12,0.42-0.18,0.75
						c-0.06,0.32-0.12,0.73-0.18,1.23c-0.04,0.18-0.07,0.29-0.07,0.32c0,0.06-0.01,0.11-0.02,0.16c0,0.08-0.01,0.13-0.02,0.14
						c0,0.09-0.01,0.15-0.02,0.18c0,0.08-0.01,0.14-0.02,0.18c-0.02,0.05-0.03,0.15-0.04,0.32c0,0.17-0.02,0.4-0.04,0.7
						c-0.02,0.14-0.02,0.28-0.02,0.43c0,0.14,0,0.3,0,0.48c0,0.38,0.01,0.6,0.02,0.66c0.07,0.23,0.23,0.34,0.47,0.34
						c0.09,0,0.19-0.01,0.31-0.05c0.23-0.03,0.43-0.1,0.58-0.2c0.03-0.03,0.08-0.05,0.16-0.07c0.19-0.12,0.37-0.26,0.53-0.41
						c0.16-0.15,0.32-0.32,0.49-0.5c0.23-0.3,0.36-0.46,0.36-0.48c0-0.03,0.03-0.08,0.09-0.16c0.23-0.48,0.42-1,0.56-1.55
						s0.22-1.08,0.27-1.61c0.01-0.15,0.02-0.37,0.02-0.66c0-0.28-0.01-0.52-0.02-0.7c-0.02-0.12-0.03-0.2-0.04-0.25
						C38.97-5.24,38.92-5.27,38.83-5.3z M38.17-7.53c0.19-0.03,0.32-0.03,0.38-0.02c0.18,0.05,0.41,0.18,0.69,0.39
						c0.28,0.2,0.56,0.43,0.82,0.68c0.28,0.24,0.53,0.5,0.76,0.77c0.23,0.26,0.4,0.47,0.49,0.64c0.13,0.27,0.22,0.57,0.27,0.89
						c0.06,0.31,0.1,0.61,0.13,0.91c0.01,0.17,0.02,0.33,0.02,0.48c0.01,0.14,0.03,0.27,0.04,0.39c0.03,0.44,0.03,0.77,0,0.98
						c-0.03,0.15-0.06,0.35-0.09,0.59c-0.03,0.23-0.04,0.41-0.04,0.55c-0.02,0.32-0.08,0.59-0.18,0.82
						c-0.02,0.02-0.02,0.03-0.02,0.05v0.05c-0.11,0.44-0.26,0.86-0.47,1.25c-0.2,0.4-0.44,0.74-0.74,1.05
						c-0.3,0.29-0.64,0.52-1.03,0.68c-0.39,0.17-0.81,0.25-1.27,0.25c-0.46,0-0.9-0.07-1.31-0.2c-0.4-0.14-0.8-0.32-1.18-0.57
						c-0.21-0.12-0.33-0.18-0.38-0.18c-0.08,0-0.13,0.03-0.16,0.09c-0.02,0.06-0.02,0.1-0.02,0.11c0,0-0.04,0.04-0.11,0.11
						c-0.11,0.23-0.26,0.34-0.47,0.34c-0.21,0-0.58-0.28-1.11-0.86L32.93,2.4c-0.04-0.03-0.13-0.11-0.25-0.25
						C32.58,2,32.43,1.81,32.24,1.58c-0.18-0.23-0.3-0.4-0.36-0.52c-0.04-0.14-0.07-0.28-0.07-0.45c0-0.18,0.06-0.44,0.18-0.8
						c0.25-0.69,0.43-1.44,0.56-2.25c0.03-0.24,0.07-0.53,0.11-0.86c0.06-0.33,0.12-0.67,0.2-1.02c0.07-0.36,0.14-0.7,0.22-1.02
						c0.09-0.33,0.18-0.6,0.29-0.8c0.03-0.07,0.05-0.14,0.07-0.2c0.03-0.06,0.05-0.12,0.07-0.18v-0.23
						c-0.04-0.12-0.06-0.21-0.02-0.27c0.03-0.03,0.08-0.05,0.16-0.05c0.16,0,0.32,0.06,0.47,0.18c0.25,0.17,0.5,0.25,0.76,0.25
						c0.04,0,0.12-0.03,0.22-0.11l0.11-0.11c0.07-0.07,0.2-0.15,0.38-0.23c0.18-0.1,0.4-0.18,0.67-0.23
						c0.37-0.1,0.85-0.16,1.45-0.16c0.09,0,0.17,0,0.25,0C38.02-7.5,38.09-7.52,38.17-7.53z"/>
				</g>
			</g>
		</g>
		<g>
			<g transform="translate(37.797905, 18.780673)">
				<g>
					<path class="st0" d="M36.25-4.69c0.03-0.01,0.07-0.01,0.13,0c0.07,0,0.16,0.03,0.27,0.09c0.58,0.34,0.99,0.76,1.25,1.27
						c0.16,0.34,0.19,0.7,0.09,1.09c-0.11,0.43-0.18,1-0.22,1.73c-0.03,0.72-0.04,1.44-0.02,2.18v1.39c0,0.38-0.01,0.59-0.02,0.61
						c-0.11,0.22-0.28,0.24-0.51,0.07c-0.15-0.1-0.33-0.27-0.56-0.5c-0.21-0.23-0.37-0.42-0.49-0.59c-0.21-0.3-0.35-0.53-0.42-0.7
						c-0.06-0.16-0.09-0.41-0.09-0.73c0-0.24,0.01-0.64,0.04-1.18c0.04-0.56,0.1-1.14,0.18-1.75c0.03-0.3,0.05-0.55,0.07-0.73
						c0.03-0.18,0.04-0.28,0.04-0.32c0-0.1-0.08-0.2-0.25-0.3c-0.15-0.06-0.29-0.09-0.42-0.09c-0.13,0-0.22-0.06-0.25-0.18
						c0-0.05,0.05-0.14,0.16-0.27c0.1-0.14,0.22-0.28,0.36-0.43c0.13-0.15,0.27-0.28,0.4-0.41C36.12-4.58,36.21-4.66,36.25-4.69z
						 M36.14-8.03c0.04-0.01,0.12-0.02,0.22-0.02c0.19,0,0.37,0.06,0.53,0.16c0.18,0.13,0.33,0.28,0.47,0.48
						c0.13,0.22,0.21,0.4,0.22,0.57c0.07,0.23,0.07,0.45,0,0.66c-0.08,0.34-0.22,0.56-0.45,0.66c-0.09,0.03-0.19,0.05-0.29,0.05
						c-0.11,0-0.19-0.01-0.25-0.02c-0.24-0.12-0.48-0.32-0.74-0.59c-0.26-0.27-0.4-0.53-0.42-0.8c-0.03-0.26,0.02-0.49,0.16-0.7
						C35.74-7.81,35.92-7.95,36.14-8.03z"/>
				</g>
			</g>
		</g>
		<g>
			<g transform="translate(40.836739, 18.780673)">
				<g>
					<path class="st0" d="M39.51-4.74c0.21-0.01,0.39-0.01,0.56,0.02c0.16,0.03,0.32,0.06,0.47,0.09c0.28,0.08,0.58,0.24,0.89,0.48
						c0.31,0.24,0.57,0.48,0.78,0.7c0.12,0.15,0.21,0.3,0.29,0.43c0.07,0.13,0.12,0.25,0.16,0.39c0.03,0.13,0.03,0.26,0.02,0.41
						c0,0.15-0.02,0.33-0.04,0.52c-0.03,0.09-0.06,0.18-0.07,0.27c0,0.09-0.01,0.19-0.02,0.3c-0.06,0.45-0.06,1.68,0,3.68
						c0.01,0.4,0.02,0.73,0.02,1c0.01,0.26,0.01,0.49,0,0.68c0,0.2-0.01,0.36-0.02,0.5c-0.02,0.15-0.04,0.3-0.09,0.45
						c-0.03,0.12-0.09,0.28-0.18,0.48c-0.09,0.19-0.2,0.39-0.31,0.57c-0.12,0.19-0.26,0.35-0.4,0.48c-0.13,0.14-0.28,0.2-0.45,0.2
						c-0.3,0-0.64-0.07-1.03-0.2c-0.37-0.13-0.7-0.24-0.98-0.34C39,6.34,38.87,6.27,38.71,6.2c-0.15-0.08-0.29-0.15-0.42-0.23
						c-0.12-0.06-0.23-0.13-0.33-0.18c-0.09-0.06-0.13-0.1-0.13-0.11c-0.03-0.03-0.04-0.07-0.04-0.11c0-0.03,0.03-0.05,0.09-0.05
						c0.32-0.05,0.62-0.09,0.89-0.14c0.28-0.03,0.52-0.06,0.74-0.09c0.41-0.13,0.76-0.31,1.03-0.57c0.28-0.26,0.45-0.61,0.49-1.07
						c0.01-0.3,0.01-0.46,0-0.48c-0.04-0.01-0.14,0.02-0.29,0.11c-0.13,0.08-0.33,0.14-0.6,0.18c-0.26,0.03-0.45,0.04-0.58,0.02
						c-0.11,0-0.2-0.01-0.29-0.02c-0.08-0.01-0.15-0.03-0.22-0.07C38.49,3.21,38,2.81,37.55,2.22c-0.26-0.32-0.46-0.58-0.62-0.8
						c-0.15-0.23-0.26-0.41-0.31-0.57c-0.04-0.1-0.09-0.23-0.13-0.39c-0.03-0.15-0.04-0.32-0.02-0.52c0.03-0.53,0.09-1.03,0.2-1.5
						c0.1-0.47,0.26-0.92,0.47-1.36c0.14-0.27,0.3-0.52,0.45-0.75c0.14-0.23,0.3-0.41,0.47-0.57c0.18-0.16,0.38-0.28,0.62-0.36
						C38.9-4.69,39.18-4.74,39.51-4.74z M40.93-2.62v-0.34h-0.16c-0.27,0-0.51,0.08-0.74,0.23c-0.22,0.15-0.42,0.34-0.6,0.57
						c-0.18,0.23-0.33,0.47-0.47,0.73c-0.12,0.26-0.22,0.5-0.29,0.73c-0.13,0.4-0.23,0.75-0.29,1.07c-0.06,0.31-0.07,0.6-0.02,0.89
						c0.03,0.23,0.07,0.34,0.13,0.34c0.04,0.05,0.2-0.06,0.47-0.32c0.16-0.14,0.3-0.27,0.4-0.41c0.12-0.14,0.23-0.27,0.33-0.41
						c0.03-0.05,0.09-0.16,0.2-0.36c0.1-0.21,0.21-0.44,0.33-0.68c0.13-0.26,0.25-0.49,0.36-0.7c0.1-0.21,0.16-0.35,0.18-0.43
						c0.04-0.12,0.08-0.25,0.11-0.39C40.92-2.27,40.93-2.44,40.93-2.62z"/>
				</g>
			</g>
		</g>
		<g>
			<g transform="translate(46.359083, 18.780673)">
				<g>
					<path class="st0" d="M39.9-4.69c0.03-0.01,0.07-0.01,0.13,0c0.07,0,0.16,0.03,0.27,0.09c0.58,0.34,0.99,0.76,1.25,1.27
						c0.16,0.34,0.19,0.7,0.09,1.09c-0.11,0.43-0.18,1-0.22,1.73c-0.03,0.72-0.04,1.44-0.02,2.18v1.39c0,0.38-0.01,0.59-0.02,0.61
						c-0.11,0.22-0.28,0.24-0.51,0.07c-0.15-0.1-0.33-0.27-0.56-0.5c-0.21-0.23-0.37-0.42-0.49-0.59c-0.21-0.3-0.35-0.53-0.42-0.7
						c-0.06-0.16-0.09-0.41-0.09-0.73c0-0.24,0.01-0.64,0.04-1.18c0.04-0.56,0.1-1.14,0.18-1.75c0.03-0.3,0.05-0.55,0.07-0.73
						c0.03-0.18,0.04-0.28,0.04-0.32c0-0.1-0.08-0.2-0.25-0.3c-0.15-0.06-0.29-0.09-0.42-0.09s-0.22-0.06-0.25-0.18
						c0-0.05,0.05-0.14,0.16-0.27c0.1-0.14,0.22-0.28,0.36-0.43c0.13-0.15,0.27-0.28,0.4-0.41C39.77-4.58,39.86-4.66,39.9-4.69z
						 M39.79-8.03c0.04-0.01,0.12-0.02,0.22-0.02c0.19,0,0.37,0.06,0.53,0.16c0.18,0.13,0.33,0.28,0.47,0.48
						c0.13,0.22,0.21,0.4,0.22,0.57c0.07,0.23,0.07,0.45,0,0.66c-0.08,0.34-0.22,0.56-0.45,0.66C40.7-5.5,40.6-5.49,40.5-5.49
						c-0.11,0-0.19-0.01-0.25-0.02c-0.24-0.12-0.48-0.32-0.74-0.59c-0.26-0.27-0.4-0.53-0.42-0.8c-0.03-0.26,0.02-0.49,0.16-0.7
						C39.39-7.81,39.57-7.95,39.79-8.03z"/>
				</g>
			</g>
		</g>
		<g>
			<g transform="translate(49.397917, 18.780673)">
				<g>
					<path class="st0" d="M42.47-6.6c0-0.14,0.07-0.2,0.2-0.2c0.1,0,0.22,0.05,0.36,0.14c0.13,0.09,0.26,0.2,0.38,0.34
						c0.13,0.13,0.25,0.25,0.33,0.39c0.1,0.14,0.18,0.25,0.22,0.34c0.19,0.4,0.3,0.84,0.31,1.32l0.02,0.23l0.25,0.07
						c0.47,0.14,0.91,0.2,1.31,0.2c0.43,0,0.86-0.03,1.29-0.11c0.45-0.07,0.88-0.16,1.31-0.25c0.18-0.05,0.27-0.07,0.27-0.07
						c0.01,0-0.03,0.09-0.13,0.25c-0.13,0.17-0.28,0.35-0.42,0.55c-0.13,0.2-0.25,0.36-0.33,0.48c-0.26,0.35-0.52,0.63-0.8,0.82
						c-0.28,0.18-0.64,0.27-1.07,0.27c-0.39,0-0.79-0.1-1.2-0.3c-0.22-0.07-0.4-0.14-0.53-0.18c-0.12-0.06-0.2-0.09-0.22-0.09
						c-0.03,0-0.04,0.49-0.04,1.48v2.09l0.04,0.14c0.04,0.13,0.12,0.18,0.22,0.18c0.06,0,0.12-0.01,0.2-0.02
						c0.09-0.01,0.19-0.03,0.31-0.07c0.25-0.03,0.45-0.05,0.6-0.07c0.14-0.01,0.25-0.02,0.31-0.02c0.01,0,0.01,0.09,0,0.25
						c-0.02,0.44-0.12,0.86-0.31,1.25c-0.2,0.4-0.39,0.69-0.58,0.89c-0.15,0.15-0.33,0.23-0.53,0.23c-0.17,0-0.28-0.02-0.33-0.07
						c-0.03-0.03-0.08-0.06-0.13-0.09c-0.04-0.05-0.1-0.08-0.16-0.11c-0.11-0.05-0.23-0.14-0.38-0.3c-0.15-0.15-0.3-0.32-0.45-0.5
						c-0.13-0.18-0.26-0.35-0.36-0.5c-0.09-0.16-0.15-0.3-0.18-0.39V0.83c0-0.16,0-0.36,0-0.59c0-0.24,0-0.48,0-0.7
						c0.01-0.23,0.02-0.43,0.02-0.61c0.01-0.19,0.02-0.32,0.02-0.39c0.01-0.1,0.02-0.22,0.02-0.34c0.01-0.12,0.02-0.24,0.02-0.36
						c0-0.24-0.02-0.39-0.04-0.45c-0.02-0.07-0.08-0.11-0.18-0.11c-0.11,0-0.22,0.04-0.33,0.11c-0.12,0.06-0.24,0.15-0.36,0.25
						c-0.12,0.09-0.23,0.19-0.33,0.3c-0.09,0.11-0.17,0.2-0.25,0.3c-0.13,0.17-0.25,0.25-0.33,0.25c-0.08,0-0.15-0.03-0.22-0.11
						c-0.08-0.09-0.21-0.27-0.4-0.55c-0.26-0.38-0.41-0.65-0.47-0.82c-0.04-0.16-0.03-0.3,0.04-0.41c0.03-0.03,0.08-0.07,0.16-0.14
						c0.09-0.06,0.2-0.15,0.33-0.27c0.13-0.12,0.25-0.22,0.36-0.3c0.1-0.09,0.21-0.16,0.33-0.23l0.29-0.14v-0.14
						c0-0.03,0-0.06,0-0.09c0.01-0.05,0.01-0.1,0-0.16v-0.16C40.96-5,41-4.97,41.04-4.94c0.03,0.03,0.07,0.07,0.11,0.11
						c0.04,0.05,0.08,0.11,0.11,0.18l0.11,0.2h0.51c0.21,0,0.36,0.01,0.45,0.02c0.09,0.02,0.13,0.02,0.13,0c0-0.01,0-0.03,0-0.07
						c0-0.05,0.01-0.1,0.02-0.18c0.01-0.07,0.02-0.15,0.02-0.23c0.01-0.09,0.03-0.19,0.07-0.3c0.03-0.12,0.04-0.23,0.04-0.34
						c0.01-0.1,0.03-0.21,0.04-0.32v-0.27l-0.11-0.2C42.5-6.43,42.47-6.52,42.47-6.6z"/>
				</g>
			</g>
		</g>
		<g>
			<g transform="translate(55.598992, 18.780673)">
				<g>
					<path class="st0" d="M44.6-4.6c0.09-0.03,0.22-0.05,0.4-0.07c0.19-0.01,0.32-0.02,0.4-0.02c0.12,0,0.26,0.03,0.42,0.09
						c0.18,0.05,0.35,0.11,0.51,0.18c0.18,0.08,0.35,0.16,0.51,0.25c0.16,0.09,0.3,0.18,0.4,0.25c0.23,0.17,0.43,0.34,0.58,0.52
						c0.16,0.17,0.31,0.35,0.45,0.55c0.06,0.09,0.1,0.19,0.13,0.3c0.04,0.11,0.07,0.23,0.09,0.36c0.01,0.13,0.01,0.3,0,0.52
						c-0.02,0.22-0.06,0.49-0.11,0.82c-0.04,0.29-0.07,0.45-0.07,0.48c0,0.02-0.01,0.08-0.02,0.18c-0.02,0.09-0.04,0.24-0.07,0.43
						c-0.08,0.43-0.11,0.67-0.11,0.73c-0.03,0.17-0.04,0.34-0.04,0.52c0.01,0.18,0.03,0.38,0.07,0.59c0.04,0.31,0.07,0.45,0.07,0.45
						c0.04,0,0.13-0.01,0.27-0.05c0.13-0.03,0.31-0.07,0.53-0.11c0.04,0,0.08,0,0.11,0c0.04-0.01,0.08-0.02,0.11-0.02h0.09
						l-0.07,0.14c-0.08,0.27-0.18,0.47-0.31,0.59c-0.12,0.11-0.24,0.18-0.36,0.2c-0.09,0.03-0.2,0.02-0.33-0.02
						c-0.12-0.05-0.25-0.1-0.38-0.18c-0.3-0.18-0.5-0.26-0.6-0.23c-0.04,0-0.13,0.06-0.25,0.18c-0.12,0.17-0.27,0.32-0.45,0.45
						c-0.18,0.13-0.37,0.2-0.56,0.23c-0.17,0.05-0.35,0.05-0.56,0c-0.49-0.09-1.09-0.43-1.78-1.02c-0.33-0.26-0.55-0.45-0.65-0.59
						c-0.09-0.15-0.17-0.32-0.25-0.52c-0.04-0.12-0.07-0.32-0.07-0.61c0-0.28,0.01-0.52,0.04-0.7c0.06-0.38,0.22-0.76,0.49-1.16
						c0.27-0.39,0.59-0.65,0.96-0.77c0.04-0.03,0.12-0.05,0.22-0.07c0.1-0.01,0.22-0.03,0.36-0.07c0.16-0.01,0.3-0.02,0.42-0.02
						c0.13-0.01,0.26-0.01,0.38,0c0.46,0.03,0.69,0.04,0.69,0.02c0-0.01,0.01-0.07,0.04-0.18c0.03-0.1,0.06-0.23,0.09-0.36
						c0.03-0.14,0.06-0.26,0.09-0.36c0.03-0.12,0.04-0.19,0.04-0.2c0-0.07-0.08-0.13-0.22-0.16c-0.03-0.01-0.17-0.01-0.42,0.02
						c-0.24,0.02-0.42,0.04-0.56,0.07c-0.22,0.05-0.49,0.15-0.8,0.32c-0.12,0.06-0.23,0.11-0.33,0.14
						c-0.09,0.03-0.18,0.05-0.27,0.05c-0.24-0.05-0.43-0.17-0.58-0.39c-0.11-0.15-0.13-0.32-0.09-0.5c0.03-0.14,0.09-0.27,0.18-0.41
						c0.09-0.14,0.2-0.26,0.33-0.36c0.13-0.12,0.27-0.22,0.4-0.3C44.34-4.53,44.48-4.58,44.6-4.6z M46.18-0.17
						c-0.02-0.09-0.04-0.14-0.09-0.14c-0.42,0.05-0.72,0.24-0.91,0.59c-0.2,0.34-0.33,0.68-0.4,1.05c-0.04,0.22-0.06,0.36-0.02,0.45
						c0.04,0.2,0.11,0.31,0.2,0.32c0.12,0.05,0.27-0.01,0.47-0.16c0.19-0.1,0.48-0.35,0.87-0.75l0.04-0.11l-0.02-0.23
						c-0.03-0.26-0.06-0.47-0.07-0.64C46.23,0.05,46.21-0.08,46.18-0.17z"/>
				</g>
			</g>
		</g>
		<g>
			<g transform="translate(60.781988, 18.780673)">
				<g>
					<path class="st0" d="M46.23-8.4c0.4,0.22,0.74,0.49,1.03,0.84c0.28,0.34,0.42,0.74,0.42,1.2c0,0.26-0.03,0.53-0.09,0.82
						c-0.06,0.29-0.12,0.63-0.18,1c-0.06,0.38-0.13,0.8-0.2,1.25c-0.15,1.09-0.26,2.06-0.31,2.91c-0.06,0.85-0.08,1.61-0.07,2.27
						l0.02,0.52h0.13c0.22-0.01,0.47-0.11,0.74-0.3c0.12-0.05,0.23-0.1,0.33-0.16c0.1-0.07,0.16-0.1,0.16-0.09
						c0,0.06-0.02,0.15-0.04,0.25c-0.03,0.11-0.07,0.22-0.11,0.34c-0.04,0.13-0.09,0.24-0.13,0.36c-0.04,0.11-0.08,0.18-0.11,0.23
						c-0.15,0.34-0.35,0.56-0.58,0.66c-0.09,0.06-0.18,0.09-0.27,0.07c-0.12,0-0.28-0.07-0.47-0.23c-0.2-0.15-0.39-0.32-0.58-0.52
						c-0.18-0.21-0.35-0.42-0.51-0.64c-0.15-0.21-0.25-0.37-0.29-0.48l-0.07-0.11V0.74c0-1.47,0.12-3.12,0.38-4.96
						c0.03-0.35,0.07-0.7,0.11-1.07c0.04-0.36,0.09-0.72,0.16-1.07c0.01-0.14,0.01-0.23,0-0.3c-0.02-0.05-0.04-0.08-0.09-0.11
						c-0.03-0.01-0.11-0.03-0.22-0.05c-0.12-0.03-0.21-0.06-0.27-0.09c-0.09-0.01-0.15-0.1-0.18-0.25c0.01-0.05,0.02-0.08,0.02-0.11
						c0-0.05,0.01-0.09,0.04-0.14c0.03-0.03,0.08-0.09,0.16-0.18c0.09-0.1,0.21-0.24,0.38-0.41l0.38-0.39
						c0.06-0.05,0.1-0.08,0.13-0.11c0.01,0,0.03,0.01,0.04,0.02C46.14-8.46,46.18-8.44,46.23-8.4z"/>
				</g>
			</g>
		</g>
		<g>
			<g transform="translate(67.908595, 18.780673)">
				<g>
					<path class="st0" d="M47.91-7.53c0.03-0.07,0.05-0.14,0.07-0.18c0.03-0.05,0.08-0.07,0.16-0.07c0.07,0,0.19,0.06,0.36,0.16
						c0.25,0.14,0.5,0.31,0.74,0.5c0.25,0.18,0.47,0.39,0.65,0.61c0.19,0.22,0.34,0.47,0.45,0.75c0.12,0.27,0.18,0.56,0.18,0.86
						c0,0.09,0,0.19,0,0.3c0.01,0.11,0.03,0.22,0.07,0.34c0.01,0.03,0.02,0.07,0.02,0.11c0.14,0.68,0.37,1.02,0.67,1.02
						c0.12,0,0.21-0.03,0.29-0.09c0.04-0.03,0.11-0.08,0.2-0.16c0.25-0.26,0.47-0.52,0.67-0.8c0.21-0.27,0.41-0.55,0.6-0.84
						c0.19-0.28,0.4-0.62,0.62-1c0.22-0.38,0.46-0.77,0.71-1.18c0.06-0.1,0.1-0.16,0.13-0.16c0.16,0,0.32,0.04,0.47,0.11
						c0.14,0.08,0.3,0.18,0.45,0.3c0.14,0.13,0.27,0.26,0.38,0.41c0.12,0.14,0.2,0.27,0.25,0.41c0.03,0.09,0.04,0.25,0.04,0.48
						c0,0.22-0.01,0.38-0.02,0.5c-0.06,0.23-0.17,0.53-0.33,0.91c-0.02,0.02-0.04,0.09-0.09,0.2c-0.08,0.15-0.12,0.25-0.13,0.3
						c-0.08,0.2-0.17,0.36-0.27,0.5c-0.08,0.14-0.14,0.25-0.2,0.34c-0.04,0.08-0.08,0.15-0.09,0.2c0,0.02-0.01,0.02-0.02,0.02
						c0,0,0,0.01,0,0.02c-0.02,0-0.02,0-0.02,0c0,0.05-0.06,0.15-0.18,0.3c-0.11,0.15-0.23,0.31-0.38,0.48
						c-0.13,0.17-0.27,0.32-0.4,0.45c-0.13,0.14-0.23,0.22-0.29,0.25c-0.2,0.11-0.39,0.18-0.58,0.2h-0.18v0.09
						c0.01,0.08,0.02,0.15,0.02,0.2c0,0.05,0,0.09,0,0.11c0.03,0.03,0.04,0.09,0.04,0.16c0,0.03,0,0.07,0,0.11
						c0.01,0.05,0.02,0.09,0.02,0.14c0.04,0.17,0.08,0.38,0.11,0.64c0.03,0.24,0.05,0.5,0.07,0.77c0.01,0.27,0.02,0.54,0.02,0.8
						c0.01,0.26,0.02,0.49,0.02,0.68c0,0.76-0.02,1.27-0.07,1.52c-0.03,0.17-0.11,0.25-0.22,0.25c-0.12,0-0.31-0.1-0.58-0.3
						c-0.27-0.21-0.55-0.44-0.82-0.7c-0.27-0.27-0.52-0.55-0.76-0.82c-0.22-0.28-0.37-0.51-0.42-0.66
						c-0.02-0.09-0.03-0.18-0.04-0.27c-0.02-0.09-0.02-0.19-0.02-0.3c-0.02-0.12-0.02-0.32-0.02-0.59c0.01-0.28,0.03-0.66,0.07-1.11
						c0.03-0.91,0.03-1.4,0-1.48c-0.04-0.16-0.13-0.33-0.27-0.5c-0.12-0.15-0.35-0.41-0.69-0.8c-0.11-0.06-0.18-0.13-0.22-0.2
						c-0.26-0.24-0.46-0.45-0.6-0.64c-0.15-0.18-0.26-0.36-0.33-0.55C48.1-4.59,48.04-4.8,48-5.03c-0.04-0.23-0.1-0.52-0.16-0.89
						c-0.02-0.12-0.03-0.26-0.04-0.41c0-0.16,0-0.32,0-0.48c0.01-0.15,0.03-0.3,0.04-0.43C47.85-7.37,47.87-7.47,47.91-7.53z"/>
				</g>
			</g>
		</g>
		<g>
			<g transform="translate(74.325627, 18.780673)">
				<g>
					<path class="st0" d="M52.58-4.6c0.09-0.03,0.22-0.05,0.4-0.07c0.19-0.01,0.32-0.02,0.4-0.02c0.12,0,0.26,0.03,0.42,0.09
						c0.18,0.05,0.35,0.11,0.51,0.18c0.18,0.08,0.35,0.16,0.51,0.25c0.16,0.09,0.3,0.18,0.4,0.25c0.23,0.17,0.43,0.34,0.58,0.52
						c0.16,0.17,0.31,0.35,0.45,0.55c0.06,0.09,0.1,0.19,0.13,0.3c0.04,0.11,0.07,0.23,0.09,0.36c0.01,0.13,0.01,0.3,0,0.52
						c-0.02,0.22-0.06,0.49-0.11,0.82C56.33-0.56,56.3-0.4,56.3-0.37c0,0.02-0.01,0.08-0.02,0.18c-0.02,0.09-0.04,0.24-0.07,0.43
						c-0.08,0.43-0.11,0.67-0.11,0.73c-0.03,0.17-0.04,0.34-0.04,0.52c0.01,0.18,0.03,0.38,0.07,0.59c0.04,0.31,0.07,0.45,0.07,0.45
						c0.04,0,0.13-0.01,0.27-0.05c0.13-0.03,0.31-0.07,0.53-0.11c0.04,0,0.08,0,0.11,0c0.04-0.01,0.08-0.02,0.11-0.02h0.09
						l-0.07,0.14c-0.08,0.27-0.18,0.47-0.31,0.59c-0.12,0.11-0.24,0.18-0.36,0.2c-0.09,0.03-0.2,0.02-0.33-0.02
						c-0.12-0.05-0.25-0.1-0.38-0.18c-0.3-0.18-0.5-0.26-0.6-0.23c-0.04,0-0.13,0.06-0.25,0.18c-0.12,0.17-0.27,0.32-0.45,0.45
						c-0.18,0.13-0.37,0.2-0.56,0.23c-0.17,0.05-0.35,0.05-0.56,0c-0.49-0.09-1.09-0.43-1.78-1.02c-0.33-0.26-0.55-0.45-0.65-0.59
						c-0.09-0.15-0.17-0.32-0.25-0.52c-0.04-0.12-0.07-0.32-0.07-0.61c0-0.28,0.01-0.52,0.04-0.7c0.06-0.38,0.22-0.76,0.49-1.16
						c0.27-0.39,0.59-0.65,0.96-0.77c0.04-0.03,0.12-0.05,0.22-0.07c0.1-0.01,0.22-0.03,0.36-0.07c0.16-0.01,0.3-0.02,0.42-0.02
						c0.13-0.01,0.26-0.01,0.38,0c0.46,0.03,0.69,0.04,0.69,0.02c0-0.01,0.01-0.07,0.04-0.18c0.03-0.1,0.06-0.23,0.09-0.36
						c0.03-0.14,0.06-0.26,0.09-0.36c0.03-0.12,0.04-0.19,0.04-0.2c0-0.07-0.08-0.13-0.22-0.16c-0.03-0.01-0.17-0.01-0.42,0.02
						c-0.24,0.02-0.42,0.04-0.56,0.07c-0.22,0.05-0.49,0.15-0.8,0.32c-0.12,0.06-0.23,0.11-0.33,0.14
						c-0.09,0.03-0.18,0.05-0.27,0.05c-0.24-0.05-0.43-0.17-0.58-0.39c-0.11-0.15-0.13-0.32-0.09-0.5c0.03-0.14,0.09-0.27,0.18-0.41
						c0.09-0.14,0.2-0.26,0.33-0.36c0.13-0.12,0.27-0.22,0.4-0.3C52.33-4.53,52.46-4.58,52.58-4.6z M54.17-0.17
						c-0.02-0.09-0.04-0.14-0.09-0.14c-0.42,0.05-0.72,0.24-0.91,0.59c-0.2,0.34-0.33,0.68-0.4,1.05c-0.04,0.22-0.06,0.36-0.02,0.45
						c0.04,0.2,0.11,0.31,0.2,0.32c0.12,0.05,0.27-0.01,0.47-0.16c0.19-0.1,0.48-0.35,0.87-0.75l0.04-0.11L54.3,0.86
						c-0.03-0.26-0.06-0.47-0.07-0.64C54.22,0.05,54.19-0.08,54.17-0.17z"/>
				</g>
			</g>
		</g>
		<g>
			<g transform="translate(79.508623, 18.780673)">
				<g>
					<path class="st0" d="M55.3-6.6c0-0.14,0.07-0.2,0.2-0.2c0.1,0,0.22,0.05,0.36,0.14c0.13,0.09,0.26,0.2,0.38,0.34
						c0.13,0.13,0.25,0.25,0.33,0.39c0.1,0.14,0.18,0.25,0.22,0.34c0.19,0.4,0.3,0.84,0.31,1.32l0.02,0.23l0.25,0.07
						c0.47,0.14,0.91,0.2,1.31,0.2c0.43,0,0.86-0.03,1.29-0.11c0.45-0.07,0.88-0.16,1.31-0.25c0.18-0.05,0.27-0.07,0.27-0.07
						c0.01,0-0.03,0.09-0.13,0.25c-0.13,0.17-0.28,0.35-0.42,0.55c-0.13,0.2-0.25,0.36-0.33,0.48c-0.26,0.35-0.52,0.63-0.8,0.82
						c-0.28,0.18-0.64,0.27-1.07,0.27c-0.39,0-0.79-0.1-1.2-0.3c-0.22-0.07-0.4-0.14-0.53-0.18c-0.12-0.06-0.2-0.09-0.22-0.09
						c-0.03,0-0.04,0.49-0.04,1.48v2.09l0.04,0.14c0.04,0.13,0.12,0.18,0.22,0.18c0.06,0,0.12-0.01,0.2-0.02
						c0.09-0.01,0.19-0.03,0.31-0.07c0.25-0.03,0.45-0.05,0.6-0.07c0.14-0.01,0.25-0.02,0.31-0.02c0.01,0,0.01,0.09,0,0.25
						c-0.02,0.44-0.12,0.86-0.31,1.25c-0.2,0.4-0.39,0.69-0.58,0.89c-0.15,0.15-0.33,0.23-0.53,0.23c-0.17,0-0.28-0.02-0.33-0.07
						c-0.03-0.03-0.08-0.06-0.13-0.09c-0.04-0.05-0.1-0.08-0.16-0.11c-0.11-0.05-0.23-0.14-0.38-0.3c-0.15-0.15-0.3-0.32-0.45-0.5
						c-0.13-0.18-0.26-0.35-0.36-0.5c-0.09-0.16-0.15-0.3-0.18-0.39V0.83c0-0.16,0-0.36,0-0.59c0-0.24,0-0.48,0-0.7
						c0.01-0.23,0.02-0.43,0.02-0.61c0.01-0.19,0.02-0.32,0.02-0.39c0.01-0.1,0.02-0.22,0.02-0.34c0.01-0.12,0.02-0.24,0.02-0.36
						c0-0.24-0.02-0.39-0.04-0.45c-0.02-0.07-0.08-0.11-0.18-0.11c-0.11,0-0.22,0.04-0.33,0.11c-0.12,0.06-0.24,0.15-0.36,0.25
						c-0.12,0.09-0.23,0.19-0.33,0.3c-0.09,0.11-0.17,0.2-0.25,0.3c-0.13,0.17-0.25,0.25-0.33,0.25c-0.08,0-0.15-0.03-0.22-0.11
						c-0.08-0.09-0.21-0.27-0.4-0.55c-0.26-0.38-0.41-0.65-0.47-0.82c-0.04-0.16-0.03-0.3,0.04-0.41c0.03-0.03,0.08-0.07,0.16-0.14
						c0.09-0.06,0.2-0.15,0.33-0.27c0.13-0.12,0.25-0.22,0.36-0.3c0.1-0.09,0.21-0.16,0.33-0.23l0.29-0.14v-0.14
						c0-0.03,0-0.06,0-0.09c0.01-0.05,0.01-0.1,0-0.16v-0.16C53.8-5,53.83-4.97,53.88-4.94c0.03,0.03,0.07,0.07,0.11,0.11
						c0.04,0.05,0.08,0.11,0.11,0.18l0.11,0.2h0.51c0.21,0,0.36,0.01,0.45,0.02c0.09,0.02,0.13,0.02,0.13,0c0-0.01,0-0.03,0-0.07
						c0-0.05,0.01-0.1,0.02-0.18c0.01-0.07,0.02-0.15,0.02-0.23c0.01-0.09,0.03-0.19,0.07-0.3c0.03-0.12,0.04-0.23,0.04-0.34
						c0.01-0.1,0.03-0.21,0.04-0.32v-0.27l-0.11-0.2C55.33-6.43,55.3-6.52,55.3-6.6z"/>
				</g>
			</g>
		</g>
		<g>
			<g transform="translate(85.709699, 18.780673)">
				<g>
					<path class="st0" d="M55.74-4.78c0.25-0.09,0.72,0.19,1.4,0.84l0.18,0.2l0.22-0.23c0.12-0.1,0.2-0.17,0.25-0.2
						c0.04-0.05,0.09-0.08,0.13-0.11c0.19-0.16,0.37-0.28,0.53-0.36c0.14-0.06,0.35-0.07,0.6-0.05c0.58,0.06,0.9,0.19,0.98,0.39
						c0,0,0.01,0.09,0.04,0.27c0.01,0.08,0.02,0.15,0.02,0.2c0.01,0.06,0.01,0.11,0,0.16c-0.03,0.2-0.15,0.39-0.36,0.57
						c-0.2,0.18-0.37,0.35-0.53,0.5c-0.15,0.14-0.35,0.35-0.6,0.64c-0.13,0.15-0.25,0.36-0.33,0.61c-0.08,0.26-0.13,0.56-0.18,0.91
						c-0.04,0.34-0.08,0.69-0.11,1.07c-0.02,0.38-0.03,0.76-0.04,1.14c-0.02,0.15-0.02,0.28-0.02,0.39c0,0.11-0.01,0.18-0.02,0.2
						c-0.02,0.03-0.02,0.08-0.02,0.14c0,0.06-0.01,0.15-0.02,0.27c-0.03,0.53-0.11,0.83-0.22,0.89c-0.11,0.06-0.22,0.06-0.33,0
						c-0.03-0.03-0.08-0.07-0.16-0.14c-0.08-0.07-0.18-0.17-0.31-0.3c-0.22-0.19-0.45-0.42-0.67-0.68
						c-0.21-0.27-0.35-0.55-0.42-0.82c-0.09-0.27-0.12-0.75-0.09-1.43C55.68,0,55.7-0.29,55.72-0.58c0.01-0.3,0.03-0.69,0.07-1.16
						c0.03-0.23,0.05-0.46,0.07-0.7c0.01-0.24,0.02-0.48,0.02-0.73c0-0.27-0.02-0.45-0.04-0.55c-0.02-0.1-0.06-0.25-0.11-0.43
						c-0.13-0.24-0.18-0.4-0.13-0.48C55.61-4.7,55.66-4.75,55.74-4.78z"/>
				</g>
			</g>
		</g>
		<g>
			<g transform="translate(89.473529, 18.780673)">
				<g>
					<path class="st0" d="M58.28-4.69c0.03-0.01,0.07-0.01,0.13,0c0.07,0,0.16,0.03,0.27,0.09c0.58,0.34,0.99,0.76,1.25,1.27
						c0.16,0.34,0.19,0.7,0.09,1.09c-0.11,0.43-0.18,1-0.22,1.73c-0.03,0.72-0.04,1.44-0.02,2.18v1.39c0,0.38-0.01,0.59-0.02,0.61
						c-0.11,0.22-0.28,0.24-0.51,0.07c-0.15-0.1-0.33-0.27-0.56-0.5c-0.21-0.23-0.37-0.42-0.49-0.59c-0.21-0.3-0.35-0.53-0.42-0.7
						c-0.06-0.16-0.09-0.41-0.09-0.73c0-0.24,0.01-0.64,0.04-1.18c0.04-0.56,0.1-1.14,0.18-1.75c0.03-0.3,0.05-0.55,0.07-0.73
						c0.03-0.18,0.04-0.28,0.04-0.32c0-0.1-0.08-0.2-0.25-0.3c-0.15-0.06-0.29-0.09-0.42-0.09c-0.13,0-0.22-0.06-0.25-0.18
						c0-0.05,0.05-0.14,0.16-0.27c0.1-0.14,0.22-0.28,0.36-0.43c0.13-0.15,0.27-0.28,0.4-0.41C58.15-4.58,58.24-4.66,58.28-4.69z
						 M58.17-8.03c0.04-0.01,0.12-0.02,0.22-0.02c0.19,0,0.37,0.06,0.53,0.16c0.18,0.13,0.33,0.28,0.47,0.48
						c0.13,0.22,0.21,0.4,0.22,0.57c0.07,0.23,0.07,0.45,0,0.66c-0.08,0.34-0.22,0.56-0.45,0.66c-0.09,0.03-0.19,0.05-0.29,0.05
						c-0.11,0-0.19-0.01-0.25-0.02C58.4-5.63,58.15-5.83,57.9-6.1c-0.26-0.27-0.4-0.53-0.42-0.8c-0.03-0.26,0.02-0.49,0.16-0.7
						C57.77-7.81,57.95-7.95,58.17-8.03z"/>
				</g>
			</g>
		</g>
	</g>
	<g>
		<defs>
			<ellipse id="XMLID_00000023262066907772292660000001922580808697449612_" cx="39.09" cy="18" rx="17.65" ry="18"/>
		</defs>
		<use xlink:href="#XMLID_00000023262066907772292660000001922580808697449612_"  style="overflow:visible;"/>
		<clipPath id="XMLID_00000019636612753048347440000001327080990484256137_">
			<use xlink:href="#XMLID_00000023262066907772292660000001922580808697449612_"  style="overflow:visible;"/>
		</clipPath>
		<g style="clip-path:url(#XMLID_00000019636612753048347440000001327080990484256137_);">
			<g>
				<defs>
					<rect id="SVGID_1_" x="25.04" y="6.58" width="20.53" height="30.12"/>
				</defs>
				<clipPath id="SVGID_00000003084276438377534330000009484394176397277879_">
					<use xlink:href="#SVGID_1_"  style="overflow:visible;"/>
				</clipPath>
				<g style="clip-path:url(#SVGID_00000003084276438377534330000009484394176397277879_);">
					<path class="st0" d="M29.07,36.07c0.86-0.18,1.68-0.34,1.8-0.34c0.12-0.01,0.33-0.06,0.46-0.11c0.28-0.12,0.48-0.05,0.77,0.27
						c0.21,0.23,0.48,0.23,1.28,0.02c0.44-0.12,0.68-0.15,0.9-0.11c0.48,0.09,1.01,0.11,1.16,0.06c0.08-0.04,0.18-0.17,0.23-0.32
						c0.05-0.14,0.22-0.54,0.39-0.89c0.52-1.06,0.83-1.49,0.6-0.81c-0.06,0.16-0.1,0.49-0.1,0.73c0,0.61,0.13,0.8,0.76,1.05
						c0.28,0.11,0.68,0.33,0.9,0.48c0.47,0.32,0.51,0.32,1.35-0.05c1.05-0.47,1.4-0.58,2.05-0.7c0.36-0.06,0.7-0.15,0.77-0.18
						c0.17-0.09,0.15-0.32-0.12-1.2c-0.17-0.58-0.3-0.86-0.48-1.07c-0.23-0.27-0.41-0.63-0.35-0.7c0.01-0.01,0.06,0.06,0.1,0.17
						c0.03,0.11,0.26,0.42,0.49,0.68c0.4,0.47,0.67,0.96,0.97,1.74c0.32,0.83,0.41,0.99,0.68,1.01c0.23,0.02,1.37-0.34,1.55-0.49
						c0.12-0.1,0.1-0.36-0.08-1.21c-0.24-1.09-0.43-1.68-0.6-1.87c-0.21-0.24-1.84-1.44-1.96-1.44c-0.1,0-0.56,0.35-0.97,0.75
						c-0.3,0.28-0.39,0.2-0.17-0.13c0.19-0.29,0.86-1.78,0.86-1.91c0-0.11-0.82-0.84-1.07-0.96c-0.12-0.06-0.25-0.04-0.59,0.11
						c-0.43,0.18-0.44,0.18-0.83,0.06c-0.21-0.06-0.39-0.15-0.39-0.19c0-0.05,0.09-0.46,0.2-0.92c0.11-0.46,0.35-1.49,0.52-2.3
						c0.17-0.81,0.43-1.89,0.56-2.41c0.13-0.52,0.37-1.49,0.55-2.16c0.17-0.67,0.32-1.24,0.33-1.27c0.03-0.06,0.59-1.92,0.72-2.42
						c0.04-0.18,0.15-0.35,0.24-0.41c0.24-0.16,0.33-0.53,0.28-1.09c-0.04-0.43-0.02-0.57,0.19-1.23c0.41-1.32,0.43-1.45,0.28-1.62
						c-0.09-0.1-0.19-0.13-0.34-0.12c-0.23,0.02-0.28,0.14-0.69,1.56c-0.25,0.61-0.23,0.81-0.77,0.82c-0.14,0.01-0.23,0.09-0.33,0.3
						c-0.19,0.37-0.41,0.41-0.67,0.11c-0.18-0.2-0.22-0.22-0.55-0.19c-0.59,0.11-0.88,0.4-1.46-0.18c-0.11-0.08-0.36-0.25-0.44-0.41
						c-0.08-0.16-0.34-0.5-0.57-0.75c-0.73-0.77-0.61-0.87,0.01-0.87c0.77-0.08,0.59-0.39,0.7-0.76c0.04-0.14,0.37-0.13,0.35-0.23
						c-0.03-0.49,0.06-0.79,0.29-0.95c0.12-0.38,0.01-0.47,0.32-0.58c0.28-0.17-0.34-0.82-0.83-0.97c-0.48-0.15-0.55-0.39-0.55-0.43
						c0-0.04-0.08-0.18-0.17-0.3c-0.1-0.13,0.05-0.58,0.01-0.73c-0.04-0.14-0.14-0.31-0.22-0.36c-0.19-0.13-0.7-0.36-2.02-0.75
						l-1.02-0.3L33.87,6.7c-1.09,0.27-0.97,0.18-1.17,0.83c-0.2,0.64-0.3,1.75-0.18,1.98c0.06,0.12,0.05,0.13-0.19,0.11
						c-0.17-0.01-0.35,0.03-0.53,0.12c-0.25,0.13-0.3,0.2-0.5,0.73c-0.46,1.24-2.09,6.18-2.15,6.55c-0.03,0.2,0.01,0.34,0.22,0.73
						c0.24,0.46,0.28,0.5,0.66,0.66c0.21,0.08,0.55,0.18,0.73,0.2l0.34,0.04l-0.17,0.22c-0.08,0.12-0.23,0.44-0.32,0.7
						c-0.14,0.42-0.17,0.63-0.17,1.47c0.37,0.98,0.28,1.93,0.25,3.02l-0.06,0.89c-0.07,0.71-0.23,1.23-0.64,2.37
						c-0.19,0.44-0.26,0.73-0.32,1.33c-0.04,0.42-0.13,1.03-0.19,1.35c-0.07,0.44-0.17,0.64-0.29,0.77
						c-0.12,0.11-0.76,1.06-0.75,1.34c0.01,0.3,0.02,0.3,0.37,0.65c0.26,0.25,0.61,0.47,0.66,0.47s0.17,0.12,0.26,0.27l0.17,0.26
						l-0.3,0.16c-0.28,0.15-0.31,0.15-0.5,0.05c-0.15-0.08-0.42-0.11-1.02-0.11c-0.75,0-0.86-0.01-1.31-0.2
						c-0.64-0.27-0.77-0.27-0.98,0.01c-0.42,0.57-0.66,1.12-0.7,1.68c-0.04,0.52-0.04,0.54,0.12,0.61c0.44,0.19,1.66,0.49,1.95,0.49
						C27.34,36.41,28.2,36.26,29.07,36.07z M32.91,33.6c-0.19-0.06-0.42-0.11-0.53-0.11c-0.15,0-0.21-0.05-0.28-0.23
						c-0.12-0.31-0.27-0.42-0.62-0.46l-0.3-0.04l-0.12-0.49c-0.06-0.27-0.14-0.55-0.17-0.61c-0.09-0.18,0.51-2.37,0.83-2.99
						c0.06-0.13,0.25-0.59,0.4-1.01c0.15-0.42,0.39-0.9,0.52-1.07c0.26-0.35,0.31-0.49,0.48-1.3c0.19-0.6,0.47-1.12,0.68-1.73
						c0.24-0.79,0.67-0.97,0.74-0.97c1.08,0.07,1.73,0.32,1.99,0.42c0.08,0.04,0.17,0.08,0.17,0.1c0.01,0.01-0.04,0.12-0.11,0.25
						c-0.22,0.38-0.89,2.07-0.97,2.23l-0.28,0.33l-0.26,0.33c-0.43,0.68-0.44,1.04-0.06,1.47c0.31,0.35,0.57,0.51,0.82,0.52
						c0.1,0,0.28,0.15,0.51,0.4l0.35,0.39l-0.25,0.38c-0.23,0.37-0.28,0.39-0.79,0.56c-0.3,0.1-0.59,0.2-0.64,0.23
						c-0.06,0.04-0.08,0.3-0.08,0.92V32l-0.42,0.13c-0.41,0.13-0.41,0.13-0.66,0.62c-0.19,0.39-0.55,0.95-0.59,0.94
						C33.25,33.7,33.09,33.66,32.91,33.6z M38.47,28.21c-0.04-0.05-0.19-0.11-0.33-0.13c-0.34-0.06-0.4-0.15-0.72-0.92l-0.26-0.64
						l0.17-0.3c0.09-0.17,0.29-0.52,0.44-0.79c0.15-0.27,0.46-0.79,0.7-1.16c0.74-1.15,1.09-1.88,1.09-2.28
						c-0.01-0.38-0.21-0.92-0.38-0.98c-1.48-0.64-2.04-1.06-3.23-1.54c-0.26-0.07-0.5-0.15-0.52-0.17c-0.03-0.03,0.1-0.28,0.28-0.57
						c0.23-0.35,0.32-0.68,0.46-0.97c0.15-0.29,0.15-0.3,0.32-0.4c0.12-0.07,0.23-0.06,0.36-0.11c0.19-0.06,0.39-0.02,0.73,0.06
						c0.24,0.06,0.62,0.11,0.84,0.11c0.35,0,0.44,0.03,0.67,0.22c0.26,0.2,0.3,0.22,0.7,0.18c0.58-0.06,0.64-0.09,0.83-0.47
						c0.12-0.24,0.23-0.36,0.44-0.45c0.51-0.23,0.51-0.24-0.2,2.47c-0.07,0.25-0.25,0.96-0.4,1.57c-0.16,0.62-0.35,1.28-0.42,1.47
						c-0.28,0.71-1.02,3.7-1.31,5.33c-0.09,0.48-0.17,0.79-0.18,0.7C38.55,28.36,38.51,28.25,38.47,28.21z"/>
				</g>
			</g>
			<g>
				<g>
					<defs>
						<rect id="SVGID_00000171704221098705546610000017606203920710548878_" x="27.18" y="20.61" width="32.09" height="15.71"/>
					</defs>
					<clipPath id="SVGID_00000049217447408278684850000016011204941091200918_">
						<use xlink:href="#SVGID_00000171704221098705546610000017606203920710548878_"  style="overflow:visible;"/>
					</clipPath>
					<g style="clip-path:url(#SVGID_00000049217447408278684850000016011204941091200918_);">
						<path class="st0" d="M59.62,36.44c-0.97-0.8-1.94-1.59-2.89-2.38c-0.05-0.04-0.09-0.08-0.12-0.11
							c-0.01-0.01-0.01-0.02-0.01-0.04c0.04-0.09,0.08-0.18,0.13-0.27c0.03-0.06,0.12-0.04,0.14-0.16c0.04-0.32-0.08-0.42-0.29-0.7
							c-0.48-0.63-0.95-1.26-1.42-1.89c-0.19-0.25-0.39-0.42-0.67-0.15c-0.01,0.01-0.01,0.01-0.01,0l-0.34-0.38
							c-0.01-0.01-0.01-0.01-0.03-0.01l-0.64,0.05c-0.01,0-0.01,0-0.02-0.01c-0.3-0.35-0.61-0.7-0.93-1.04
							c-0.01-0.01-0.01-0.01-0.02-0.01l-0.64-0.06c-0.01,0-0.01,0-0.01-0.01c-0.59-0.95-1.2-1.9-1.8-2.83
							c-0.35-0.54-0.76-0.16-1.08,0.15c-0.01,0.01-0.02,0.01-0.03,0c-0.55-0.52-1.09-1.05-1.65-1.58c-0.05-0.06-0.1-0.11-0.14-0.17
							c-0.7-1.12-1.42-2.24-2.13-3.35c-0.06-0.12-0.15-0.22-0.26-0.29c-0.12-0.02-0.23,0-0.33,0.06c-0.01,0.01-0.01,0-0.02-0.01
							c-0.09-0.11-0.22-0.27-0.41-0.49c-0.05-0.06-0.1-0.1-0.18-0.13c-0.01,0-0.01,0-0.02,0.01c-0.1,0.08-0.15,0.13-0.17,0.16
							c-1.09,1.11-2.19,2.23-3.28,3.34c-0.03,0.04-0.06,0.09-0.07,0.15c-0.08,0.36-0.16,0.71-0.23,1.05
							c-0.01,0.05-0.03,0.09-0.06,0.13l-0.99,1.5c-0.01,0.01-0.02,0.01-0.03,0c-0.08-0.12-0.15-0.24-0.23-0.35
							c-0.13-0.18-0.27-0.3-0.48-0.2c-0.09,0.06-0.17,0.11-0.24,0.18c-0.02,0.01-0.04,0.01-0.06-0.01
							c-0.17-0.17-0.39-0.47-0.66-0.29c-0.08,0.06-0.14,0.13-0.19,0.21c-0.58,0.8-1.15,1.61-1.73,2.42
							c-0.1,0.12-0.15,0.26-0.15,0.42c0,0.01-0.01,0.03-0.03,0.03l-1.69,0.46c-0.01,0.01-0.02,0-0.03-0.01
							c-0.25-0.18-0.39-0.21-0.59,0.06c-0.63,0.87-1.26,1.75-1.89,2.62c-0.13,0.17-0.16,0.36-0.08,0.56
							c0.01,0.02,0.03,0.04,0.03,0.06c0.01,0.01,0,0.02-0.01,0.02c-0.16,0.09-0.32,0.18-0.48,0.26c-0.21,0.12-0.23,0.49-0.41,0.64
							c-0.95,0.8-1.89,1.6-2.85,2.4c0,0,0,0,0,0.01c0,0,0,0.01,0.01,0.01l32.43-0.01C59.64,36.45,59.64,36.45,59.62,36.44z
							 M53.65,30.85l0.44-0.11c0.01-0.01,0.02,0,0.03,0.01c0.11,0.17,0.23,0.32,0.39,0.45c0.01,0.01,0.01,0.01,0.02,0l0.16-0.13
							c0.02-0.01,0.03-0.01,0.05,0.01c0.16,0.2,0.3,0.41,0.44,0.63c0,0.01-0.01,0.01-0.01,0.01l-0.25-0.1
							c-0.01-0.01-0.02,0-0.03,0.01c-0.01,0.01-0.01,0.01,0,0.03l0.43,0.57c0.01,0.01,0.01,0.01,0,0.02c-0.01,0-0.01,0-0.01,0
							c-0.32-0.33-0.66-0.64-0.98-0.98c0,0-0.01-0.01-0.01,0c-0.01,0-0.01,0-0.01,0.01c0.08,0.27,0.19,0.54,0.33,0.79
							c0,0,0,0.01-0.01,0.01h-0.01c-0.28-0.35-0.58-0.67-0.88-1c-0.05-0.06-0.09-0.1-0.12-0.13C53.59,30.89,53.6,30.86,53.65,30.85z
							 M52.33,29.91l0.12-0.25c0.02-0.03,0.03-0.03,0.06,0c0.3,0.52,0.6,1.04,0.89,1.57c0.05,0.1,0.04,0.11-0.03,0.01
							c-0.24-0.3-0.5-0.62-0.79-0.96c-0.08-0.09-0.16-0.19-0.24-0.3C52.31,29.96,52.31,29.94,52.33,29.91z M49.38,26.74
							c0-0.01,0-0.01,0.01-0.01l0.19-0.08c0.01-0.01,0.02,0,0.03,0.01c0.03,0.07,0.08,0.15,0.11,0.2c0.61,0.98,1.05,1.78,1.57,2.68
							c0.01,0.01,0.01,0.01,0.01,0.02l-0.16,0.44c0,0.02,0,0.04,0.01,0.05c0.61,0.66,1.2,1.32,1.8,2.01
							c0.04,0.04,0.08,0.08,0.12,0.13c0.01,0.02,0.01,0.02-0.01,0.01c-0.26-0.22-0.49-0.47-0.74-0.69c-0.46-0.42-0.9-0.85-1.35-1.28
							c-0.17-0.16-0.32-0.33-0.44-0.54c-0.32-0.6-0.66-1.18-1.01-1.77c-0.04-0.07-0.16-0.2-0.15-0.32
							C49.37,27.32,49.38,27.03,49.38,26.74z M49.1,28.08c0.46,0.97,0.93,1.97,1.34,2.97c0.01,0.02,0.01,0.02-0.01,0l-1.33-2.41
							c-0.01-0.01-0.01-0.01-0.02,0l-1.14,1.4c-0.07,0.08-0.08,0.08-0.02-0.01c0.38-0.62,0.79-1.27,1.17-1.94
							C49.09,28.06,49.09,28.06,49.1,28.08z M48.89,32.16l-1.86-1.99c-0.01-0.01-0.01-0.01-0.01,0l-0.19,0.24
							c-0.01,0.01-0.02,0.01-0.03,0.01c-0.01-0.01-0.01-0.01-0.01-0.03c0.1-0.2,0.2-0.39,0.31-0.57c0.01-0.01,0.01-0.01,0.01-0.01
							c0.11,0.11,0.21,0.23,0.3,0.35c0.37,0.46,0.73,0.92,1.08,1.4c0.13,0.18,0.3,0.39,0.43,0.57C49.04,32.3,49.03,32.3,48.89,32.16
							z M49.02,27.02C49.02,27.01,49.02,27.01,49.02,27.02c0.01-0.01,0.01,0,0.01,0.01l-0.01,0.25c0,0.01-0.01,0.01-0.01,0.02
							c-0.26,0.18-0.52,0.36-0.79,0.54c-0.11,0.07-0.12,0.06-0.02-0.03C48.45,27.52,48.72,27.26,49.02,27.02L49.02,27.02z
							 M39.57,27.86c0.46-0.56,0.9-1.13,1.35-1.71c0.06-0.07,0.12-0.12,0.21-0.15c0.66-0.19,1.3-0.38,1.95-0.58
							c0.01,0,0.02,0,0.02,0.01c0.39,0.51,0.77,1.03,1.15,1.54c0.07,0.09,0.13,0.17,0.21,0.25c0.01,0.01,0.01,0.01,0,0
							c-0.49-0.93-0.99-1.85-1.52-2.76c-0.01-0.01-0.01-0.01,0-0.02l0.6-0.59c0.02-0.02,0.03-0.04,0.03-0.07l0.12-1.12h0.01
							l1.11,1.3l-1.22-2.2c0-0.01-0.01-0.01-0.01,0c-0.73,0.76-1.47,1.52-2.22,2.27c-0.06,0.06-0.12,0.13-0.16,0.2
							c-0.21,0.35-0.42,0.7-0.62,1.05c0,0,0,0-0.01,0c-0.01,0-0.01-0.01-0.01-0.01c0.07-0.27,0.12-0.56,0.18-0.84
							c0.02-0.11,0.28-0.35,0.37-0.44c0.89-0.92,1.79-1.85,2.68-2.76c0.01-0.01,0.02-0.01,0.03,0c0.11,0.12,0.22,0.24,0.34,0.35
							c0.13,0.13,0.23,0.23,0.39,0.12c0.02-0.01,0.03-0.01,0.05,0.01c0.68,1.11,1.38,2.21,2.09,3.3c0.04,0.07,0.09,0.13,0.14,0.19
							c0.66,0.63,1.33,1.24,1.97,1.88c0.01,0.01,0.01,0.01,0,0.02l-0.17,0.2c0,0.01-0.01,0.01-0.01,0l-1.71-1.5
							c-0.06-0.05-0.06-0.04-0.02,0.02c0.3,0.44,0.58,0.87,0.86,1.32c0.08,0.11,0.06,0.12-0.02,0.02c-0.31-0.35-0.64-0.7-0.94-1.07
							c-0.32-0.39-0.64-0.78-0.95-1.17c-0.02-0.03-0.05-0.06-0.09-0.11c-0.01,0-0.01,0,0,0.01c0.63,1.13,1.28,2.26,1.91,3.4
							c0,0.01,0,0.01-0.01,0.01l-0.15,0.11c-0.01,0.01-0.01,0.01-0.02-0.01c-0.52-0.55-1.06-1.15-1.58-1.63
							c-0.01-0.01-0.01-0.01-0.01,0c0.31,0.62,0.64,1.23,0.95,1.85c0.01,0.01,0.01,0.01,0,0.01c0,0.01-0.01,0.01-0.01,0
							c-0.01-0.01-0.01-0.01-0.01-0.01c-0.74-1-1.47-2-2.2-3c-0.1-0.13-0.22-0.28-0.31-0.42c-0.03-0.03-0.06-0.06-0.08-0.09
							c-0.01-0.01-0.02-0.01-0.01,0.01c0.02,0.04,0.03,0.08,0.06,0.12c0.7,1.43,1.41,2.85,2.14,4.27c0,0.01,0,0.02-0.01,0.03
							l-0.16,0.11c-0.01,0.01-0.01,0.01-0.02-0.01c-0.17-0.16-0.24-0.3-0.51-0.27c-0.01,0-0.01,0-0.01,0.01l0.44,0.38
							c0.01,0.01,0.02,0.01,0.03,0.01c0.02,0.01,0.04,0,0.06-0.01c0.86-0.61,1.73-1.2,2.62-1.78c0-0.01,0.01-0.01,0.01,0
							c0.01,0,0.01,0.01,0,0.01c-0.01,0.01-0.03,0.02-0.04,0.04c-0.81,0.71-1.64,1.37-2.49,2.03c-0.01,0.01-0.01,0.01,0,0.02
							c0.16,0.18,0.35,0.35,0.49,0.53c0.44,0.52,0.86,1.06,1.28,1.59v0.01h-0.01c-0.45-0.42-0.89-0.85-1.32-1.29
							c-0.1-0.13-0.23-0.19-0.39-0.19c-0.01,0-0.01,0.01-0.01,0.01c0.23,0.37,0.45,0.75,0.64,1.13c0,0.01,0,0.01,0,0.01
							c-0.01,0-0.01,0-0.01,0c-0.27-0.38-0.54-0.76-0.8-1.15v-0.01c-0.01-0.01-0.02-0.01-0.03,0.01l-0.25,0.28
							c-0.01,0.01-0.01,0.01,0,0.02c0.36,0.52,0.71,1.05,1.04,1.59c0,0.01,0,0.01,0,0.01c0,0.01-0.01,0.01-0.01,0l-2.01-2.16
							c-0.01-0.01-0.01-0.01-0.03,0l-0.73,0.59c-0.01,0.01-0.01,0.01-0.01,0l0.42-1.16c0-0.01,0-0.02-0.01-0.03l-0.36-0.35
							c-0.01-0.01-0.01-0.01-0.02,0l-1.04,0.88c-0.01,0-0.01,0-0.01,0c-0.01-0.01-0.01-0.01,0-0.01c0.32-0.46,0.64-0.92,0.97-1.37
							c0.01,0,0.01,0,0.01,0c0.5,0.46,1.02,0.91,1.54,1.35c0.03,0.03,0.07,0.05,0.1,0.07c0.01,0.01,0.01,0.01,0.01-0.01
							c-0.03-0.04-0.06-0.08-0.09-0.12c-0.46-0.53-1.08-1.23-1.88-2.08c-0.06-0.07-0.13-0.13-0.21-0.16
							c-0.31-0.11-0.62-0.23-0.93-0.33c-0.03-0.01-0.03-0.02-0.02-0.04l0.26-0.87c0.01-0.01,0-0.01-0.01-0.01
							c-0.51,0.35-1.03,0.7-1.55,1.03c0,0,0,0-0.01-0.01h0.01c0.51-0.41,1.04-0.8,1.58-1.16c0.01,0,0.01,0,0.02,0.01
							c0.39,0.37,0.77,0.75,1.16,1.12c0.41,0.39,0.83,0.77,1.24,1.14c0.01,0.01,0.01,0.01,0.01,0c0.01,0,0.01-0.01,0-0.01
							c-0.79-1.11-1.62-2.18-2.48-3.24c-0.01-0.01-0.01-0.01-0.03-0.01c-0.08,0.03-0.15,0.06-0.23,0.1
							c-0.43,0.22-0.86,0.42-1.29,0.63c-0.08,0.03-0.14,0.07-0.19,0.13c-0.45,0.61-0.9,1.22-1.35,1.82c-0.01,0.01-0.01,0.01-0.02,0
							l-0.28-0.4C39.55,27.89,39.55,27.87,39.57,27.86z M36.1,28.83c0.45-0.7,0.91-1.4,1.39-2.09c0.01-0.01,0.01-0.01,0.01,0
							l0.32,0.31c0.01,0.01,0.01,0.01,0.03,0.01l0.58-0.19c0.01,0,0.01,0,0.02,0.01c0.7,1.06,1.42,2.1,2.13,3.15
							c0.02,0.04,0.01,0.04-0.02,0.02l-1.27-0.77c-0.02-0.01-0.04-0.01-0.06,0.01l-0.9,0.65c-0.01,0.01-0.02,0-0.03-0.01l-0.21-0.2
							c-0.01-0.01-0.01-0.01-0.02,0c-0.15,0.2-0.27,0.41-0.39,0.62c0,0.01-0.01,0.01-0.01,0.01c-0.01,0-0.01-0.01-0.01-0.01
							l0.21-0.64c0-0.01,0.01-0.02,0.01-0.03l0.01-0.01c0.01-0.01,0.01-0.02,0-0.03l-0.24-0.38c-0.01-0.01-0.01-0.01,0-0.02
							l0.46-0.5c0.01-0.01,0.03-0.02,0.04-0.01l0.66,0.49c0.01,0.01,0.01,0.01,0.02,0.01h0.03c0.01,0,0.01,0,0.02-0.01
							c0-0.01,0-0.01-0.01-0.02c-0.46-0.44-0.92-0.9-1.39-1.33c-0.03-0.02-0.06-0.06-0.08-0.09c-0.01-0.01-0.01-0.01-0.01-0.03
							l0.08-0.66c-0.01-0.01-0.01-0.01-0.01,0c-0.42,0.54-0.85,1.1-1.27,1.65C36.18,28.76,36.14,28.79,36.1,28.83
							C36.09,28.84,36.09,28.84,36.1,28.83z M36.64,29.7C36.64,29.7,36.64,29.7,36.64,29.7L36.64,29.7c0.13-0.15,0.26-0.3,0.39-0.43
							c0.27-0.25,0.55-0.49,0.86-0.7c0.04-0.03,0.05-0.03,0.01,0.01C37.52,28.99,37.1,29.36,36.64,29.7z M35.66,30.05
							c0.31-0.49,0.65-0.96,0.99-1.42c0.01-0.01,0.01-0.01,0.01-0.01c0.01,0.01,0.01,0.01,0.01,0.01c-0.3,0.52-0.62,1.02-0.97,1.5
							c-0.01,0.01-0.01,0.01-0.02,0l-0.02-0.06C35.65,30.06,35.65,30.06,35.66,30.05z M38.86,30.85c-0.08,0.17-0.16,0.35-0.21,0.52
							c0,0.01,0,0.01-0.01,0.01c-0.01,0.01-0.01,0-0.02-0.01l-0.08-0.28c0-0.01,0-0.02,0.01-0.03l0.29-0.23
							c0.01-0.01,0.01-0.01,0.01,0C38.86,30.84,38.86,30.84,38.86,30.85z M56.42,34.33c-0.01,0.01-0.01,0.01-0.01,0.01
							c-0.61-0.39-1.2-0.78-1.8-1.16c-0.03-0.02-0.06-0.05-0.08-0.08l-0.39-0.53c-0.01-0.01-0.01-0.01-0.03-0.01
							c-0.06,0.01-0.11,0.04-0.16,0.06c-0.52,0.23-1.04,0.46-1.54,0.68c-0.02,0.01-0.02,0.02-0.01,0.04l1.95,1.73
							c0,0.01,0,0.01,0,0.01c0,0.01-0.01,0.01-0.01,0.01l-3.46-2.34c-0.02-0.01-0.04-0.01-0.07-0.01c-1.06,0.21-2.13,0.42-3.21,0.64
							c-0.04,0.01-0.08,0.01-0.12,0c-1.07-0.3-2.15-0.59-3.23-0.88c-0.05-0.01-0.1-0.03-0.14-0.05c-0.5-0.26-1.02-0.52-1.52-0.79
							c-0.19-0.12-0.39-0.2-0.61-0.23c-0.15,0.02-0.29,0.04-0.44,0.06c-0.01,0-0.01,0.01,0,0.01c0.56,0.62,1.15,1.2,1.9,1.98
							c0.11,0.12,0.2,0.22,0.28,0.31c0.01,0,0.01,0,0,0.01c-0.73-0.61-1.37-1.15-1.93-1.64c-0.13-0.12-0.23-0.2-0.3-0.26
							c-0.01-0.01-0.01-0.01-0.02,0l-0.25,0.23c-0.01,0.01-0.03,0.01-0.03,0l-0.28-0.29c-0.01-0.01-0.02-0.01-0.02,0
							c-0.02,0.06-0.05,0.11-0.08,0.16c-0.17,0.24-0.32,0.48-0.48,0.73c0,0,0,0.01-0.01,0c0,0,0,0,0-0.01l0.37-0.89
							c0.01-0.02,0.01-0.04,0-0.06l-0.56-0.85c0-0.01-0.01-0.01-0.01-0.01l-0.91-0.68c-0.01-0.01-0.01-0.01-0.02,0l-0.99,0.68
							c-0.01,0.01-0.02,0.01-0.03,0.01l-0.15-0.06c-0.01,0-0.01,0-0.01,0c-0.73,0.47-1.48,0.9-2.22,1.35
							c-0.01,0.01-0.01,0.01,0,0.01c0.68,0.46,1.35,0.94,2.02,1.42c0.01,0.01,0.03,0.02,0.03,0.03s0.01,0.01,0.01,0.01
							c-0.01,0-0.01,0-0.01,0c-1.4-0.77-2.78-1.56-4.15-2.4c-0.01,0-0.01,0-0.01,0c-0.01,0.01-0.01,0.01-0.01,0.02l1.17,1.61
							c0.08,0.11,0.07,0.11-0.03,0.02l-1.53-1.49c-0.01-0.01-0.03-0.04-0.03-0.06v-0.87c0-0.01,0-0.01-0.01-0.01
							c-0.46,0.53-0.9,1.06-1.35,1.59c-0.01,0-0.01,0-0.01,0v-0.01c0.45-0.64,0.9-1.28,1.35-1.91c0.01-0.01,0.01-0.01,0.02-0.01
							l0.2,0.13c0.01,0.01,0.02,0.01,0.03,0.01l1.66-0.44c0.02-0.01,0.03,0,0.05,0.02c0.12,0.23,0.25,0.46,0.36,0.67
							c0.03,0.06,0.07,0.11,0.12,0.16c0.21,0.22,0.41,0.43,0.61,0.65c0.08,0.1,0.08,0.11-0.03,0.03c-0.25-0.19-0.52-0.39-0.82-0.63
							c-0.1-0.07-0.21-0.11-0.32-0.12c-0.01,0-0.01,0-0.01,0.01c-0.01,0.01-0.01,0.01,0,0.02l0.21,0.29
							c0.01,0.01,0.01,0.01,0.01,0.01c-0.01,0.01-0.01,0.01-0.01,0.01c-0.03-0.01-0.06-0.02-0.08-0.04
							c-0.18-0.18-0.39-0.29-0.63-0.35c0,0,0,0-0.01,0c0,0.01,0,0.01,0,0.01c0.07,0.08,0.15,0.16,0.23,0.23
							c0.32,0.27,0.64,0.54,0.97,0.82c0.01,0.01,0.01,0.01,0.01,0.02c-0.01,0.01-0.01,0.01-0.03,0.01l-0.99-0.47
							c-0.01,0-0.02,0-0.01,0.01c0.01,0.09,0.06,0.28,0.14,0.34c0.23,0.15,0.46,0.3,0.68,0.47c0.03,0.02,0.07,0.04,0.1,0.06
							c0.01,0.01,0.02,0,0.03,0c0.43-0.3,0.7-0.49,0.81-0.56c1-0.71,1.88-1.3,2.64-1.78c0.01-0.01,0.02-0.01,0.03,0
							c0.48,0.3,0.95,0.58,1.44,0.86c0.26,0.17,0.48,0.37,0.68,0.61c0.01,0.01,0.01,0.01,0.02,0.01l1.04-0.08
							c0.03-0.01,0.07,0,0.1,0.01c0.64,0.29,1.28,0.57,1.95,0.85c0.02,0.01,0.03,0.02,0.02,0.04l-0.08,0.31
							c-0.01,0.01-0.01,0.01,0.01,0.01c0.98,0.21,1.95,0.44,2.92,0.63c0.07-0.01,0.13-0.02,0.19-0.05l1.02-0.28
							c0.32-0.08,0.64,0.08,0.96,0.01c0.75-0.16,1.49-0.32,2.23-0.48c0.01,0,0.02,0,0.02,0.01c0.08,0.22,0.17,0.44,0.26,0.67
							c0.04,0.11,0.23,0.25,0.32,0.32c0.01,0.01,0.01,0.01,0.03,0.01l1.78-1.06c0.01-0.01,0.03-0.01,0.03,0l1.93,1.61
							C56.21,33.96,56.33,34.13,56.42,34.33L56.42,34.33z"/>
					</g>
				</g>
				<path class="st0" d="M46.04,24.51c-0.45-0.77-0.95-1.51-1.49-2.21c-0.08-0.09-0.15-0.18-0.23-0.27c0,0,0,0-0.01,0
					C44.81,22.92,45.38,23.74,46.04,24.51C46.05,24.53,46.05,24.53,46.04,24.51z"/>
				<path class="st0" d="M44.99,25.33c0.04,0.05,0.05,0.04,0.01-0.01c-0.19-0.32-0.4-0.65-0.64-0.97c-0.04-0.06-0.09-0.11-0.15-0.15
					c-0.01,0-0.01-0.01-0.01,0c-0.01,0-0.01,0-0.01,0.01l0.02,0.25c0,0.03,0.01,0.06,0.03,0.08L44.99,25.33z"/>
				<path class="st0" d="M38.93,28.41c0.25,0.26,0.51,0.53,0.79,0.8c0.08,0.08,0.09,0.08,0.02-0.02c-0.39-0.56-0.78-1.16-1.22-1.68
					c-0.09-0.11-0.19-0.19-0.31-0.26c-0.01-0.01-0.01-0.01-0.01,0.01C38.39,27.67,38.64,28.06,38.93,28.41z"/>
				<path class="st0" d="M50.74,29.13C50.75,29.14,50.75,29.13,50.74,29.13c-0.12-0.2-0.32-0.53-0.61-0.98
					c-0.04-0.06-0.08-0.12-0.12-0.18c-0.01-0.01-0.01-0.01-0.01,0.01c-0.01,0.14,0.03,0.27,0.1,0.39
					C50.3,28.63,50.51,28.89,50.74,29.13z"/>
				<path class="st0" d="M38.1,28.86c-0.01-0.01-0.01-0.01-0.02-0.01c-0.03,0-0.04,0.01-0.04,0.04c0.17,0.19,0.37,0.35,0.59,0.47
					h0.01c0.01-0.01,0.01-0.01,0.01-0.02C38.49,29.15,38.31,28.99,38.1,28.86z"/>
			</g>
		</g>
	</g>
</g>
</svg>
