<svg xmlns="http://www.w3.org/2000/svg" xmlns:xlink="http://www.w3.org/1999/xlink" width="500" zoomAndPan="magnify" viewBox="0 0 375 374.999991" height="500" preserveAspectRatio="xMidYMid meet" version="1.0"><defs><g/><clipPath id="e09d262e9e"><path d="M 64.265625 59.691406 L 317.097656 59.691406 L 317.097656 312.527344 L 64.265625 312.527344 Z M 64.265625 59.691406 " clip-rule="nonzero"/></clipPath><clipPath id="bea93ff735"><path d="M 190.683594 59.691406 C 120.863281 59.691406 64.265625 116.292969 64.265625 186.109375 C 64.265625 255.925781 120.863281 312.527344 190.683594 312.527344 C 260.5 312.527344 317.097656 255.925781 317.097656 186.109375 C 317.097656 116.292969 260.5 59.691406 190.683594 59.691406 Z M 190.683594 59.691406 " clip-rule="nonzero"/></clipPath><clipPath id="4b87982ccb"><path d="M 64.265625 71.148438 L 261.382812 71.148438 L 261.382812 268.265625 L 64.265625 268.265625 Z M 64.265625 71.148438 " clip-rule="nonzero"/></clipPath><clipPath id="d70dccdacd"><path d="M 162.824219 71.148438 C 108.390625 71.148438 64.265625 115.273438 64.265625 169.707031 C 64.265625 224.140625 108.390625 268.265625 162.824219 268.265625 C 217.257812 268.265625 261.382812 224.140625 261.382812 169.707031 C 261.382812 115.273438 217.257812 71.148438 162.824219 71.148438 Z M 162.824219 71.148438 " clip-rule="nonzero"/></clipPath><clipPath id="ba3ccba78f"><path d="M 143.613281 226.160156 L 287.117188 226.160156 L 287.117188 256.347656 L 143.613281 256.347656 Z M 143.613281 226.160156 " clip-rule="nonzero"/></clipPath><clipPath id="048709ba39"><path d="M 86.332031 110.480469 L 186.832031 110.480469 L 186.832031 254.480469 L 86.332031 254.480469 Z M 86.332031 110.480469 " clip-rule="nonzero"/></clipPath><clipPath id="6a235e8b7a"><path d="M 140.460938 152.101562 L 300.210938 152.101562 L 300.210938 228.601562 L 140.460938 228.601562 Z M 140.460938 152.101562 " clip-rule="nonzero"/></clipPath><clipPath id="4dbaa0650e"><path d="M 138.742188 238.539062 L 234.269531 238.539062 L 234.269531 288.0625 L 138.742188 288.0625 Z M 138.742188 238.539062 " clip-rule="nonzero"/></clipPath><clipPath id="0c82541e53"><path d="M 95.847656 243.503906 L 191.394531 243.503906 L 191.394531 277.105469 L 95.847656 277.105469 Z M 95.847656 243.503906 " clip-rule="nonzero"/></clipPath><clipPath id="cff924444e"><path d="M 112.648438 243.503906 L 174.574219 243.503906 C 183.855469 243.503906 191.375 251.027344 191.375 260.304688 C 191.375 269.582031 183.855469 277.105469 174.574219 277.105469 L 112.648438 277.105469 C 103.371094 277.105469 95.847656 269.582031 95.847656 260.304688 C 95.847656 251.027344 103.371094 243.503906 112.648438 243.503906 Z M 112.648438 243.503906 " clip-rule="nonzero"/></clipPath><clipPath id="6dfe4e4f70"><path d="M 17.257812 251.289062 L 375 251.289062 L 375 375 L 17.257812 375 Z M 17.257812 251.289062 " clip-rule="nonzero"/></clipPath></defs><rect x="-37.5" width="450" fill="#ffffff" y="-37.499999" height="449.999989" fill-opacity="1"/><rect x="-37.5" width="450" fill="#fefffe" y="-37.499999" height="449.999989" fill-opacity="1"/><g clip-path="url(#e09d262e9e)"><g clip-path="url(#bea93ff735)"><path fill="#0a1322" d="M 64.265625 59.691406 L 317.097656 59.691406 L 317.097656 312.527344 L 64.265625 312.527344 Z M 64.265625 59.691406 " fill-opacity="1" fill-rule="nonzero"/></g></g><g clip-path="url(#4b87982ccb)"><g clip-path="url(#d70dccdacd)"><path fill="#fefffe" d="M 64.265625 71.148438 L 261.382812 71.148438 L 261.382812 268.265625 L 64.265625 268.265625 Z M 64.265625 71.148438 " fill-opacity="1" fill-rule="nonzero"/></g></g><g clip-path="url(#ba3ccba78f)"><path fill="#0a1322" d="M 143.613281 226.160156 L 287.125 226.160156 L 287.125 256.347656 L 143.613281 256.347656 Z M 143.613281 226.160156 " fill-opacity="1" fill-rule="nonzero"/></g><g clip-path="url(#048709ba39)"><path fill="#0a1322" d="M 106.183594 252.9375 C 110.453125 252.046875 114.441406 251.304688 115.050781 251.292969 C 115.660156 251.277344 116.695312 251.042969 117.355469 250.765625 C 118.734375 250.1875 119.722656 250.527344 121.171875 252.078125 C 122.210938 253.191406 123.496094 253.210938 127.484375 252.179688 C 129.667969 251.617188 130.859375 251.476562 131.902344 251.65625 C 134.277344 252.070312 136.890625 252.183594 137.632812 251.910156 C 138.039062 251.761719 138.511719 251.105469 138.753906 250.363281 C 138.980469 249.652344 139.847656 247.71875 140.675781 246.0625 C 143.242188 240.921875 144.789062 238.878906 143.632812 242.148438 C 143.355469 242.941406 143.125 244.523438 143.125 245.65625 C 143.128906 248.625 143.78125 249.507812 146.878906 250.730469 C 148.246094 251.269531 150.253906 252.308594 151.335938 253.039062 C 153.644531 254.597656 153.847656 254.589844 157.96875 252.804688 C 163.152344 250.5625 164.847656 249.992188 168.089844 249.402344 C 169.851562 249.082031 171.558594 248.683594 171.886719 248.515625 C 172.738281 248.070312 172.625 246.949219 171.292969 242.6875 C 170.425781 239.910156 169.804688 238.542969 168.9375 237.535156 C 167.8125 236.21875 166.902344 234.460938 167.199219 234.164062 C 167.273438 234.089844 167.488281 234.453125 167.675781 234.972656 C 167.863281 235.492188 168.945312 236.980469 170.085938 238.277344 C 172.058594 240.53125 173.410156 242.898438 174.878906 246.679688 C 176.441406 250.703125 176.941406 251.425781 178.226562 251.535156 C 179.378906 251.632812 184.988281 249.898438 185.886719 249.164062 C 186.496094 248.667969 186.410156 247.429688 185.476562 243.292969 C 184.292969 238.042969 183.359375 235.207031 182.5 234.246094 C 181.460938 233.082031 173.433594 227.3125 172.851562 227.3125 C 172.347656 227.3125 170.078125 229.027344 168.042969 230.941406 C 166.578125 232.320312 166.109375 231.949219 167.234375 230.296875 C 168.167969 228.921875 171.464844 221.730469 171.464844 221.066406 C 171.464844 220.582031 167.390625 217.023438 166.171875 216.445312 C 165.59375 216.167969 164.96875 216.277344 163.285156 216.953125 C 161.175781 217.796875 161.097656 217.804688 159.214844 217.277344 C 158.15625 216.984375 157.292969 216.5625 157.292969 216.34375 C 157.292969 216.121094 157.738281 214.136719 158.28125 211.929688 C 158.824219 209.722656 159.976562 204.726562 160.835938 200.832031 C 161.699219 196.933594 162.933594 191.695312 163.585938 189.191406 C 164.234375 186.6875 165.441406 182 166.269531 178.773438 C 167.09375 175.546875 167.839844 172.789062 167.929688 172.648438 C 168.097656 172.375 170.792969 163.398438 171.445312 160.9375 C 171.671875 160.082031 172.15625 159.289062 172.640625 158.96875 C 173.824219 158.195312 174.289062 156.4375 174.03125 153.691406 C 173.839844 151.632812 173.949219 150.941406 174.953125 147.757812 C 176.972656 141.355469 177.082031 140.738281 176.347656 139.929688 C 175.914062 139.449219 175.390625 139.261719 174.683594 139.332031 C 173.550781 139.441406 173.289062 140.023438 171.300781 146.851562 C 170.054688 149.820312 170.136719 150.777344 167.5 150.792969 C 166.808594 150.875 166.394531 151.246094 165.878906 152.25 C 164.953125 154.042969 163.863281 154.203125 162.554688 152.734375 C 161.675781 151.746094 161.476562 151.679688 159.871094 151.8125 C 156.964844 152.335938 155.578125 153.761719 152.671875 150.957031 C 152.109375 150.539062 150.898438 149.738281 150.5 148.953125 C 150.097656 148.167969 148.828125 146.542969 147.671875 145.335938 C 144.101562 141.605469 144.6875 141.121094 147.695312 141.121094 C 151.464844 140.738281 150.59375 139.207031 151.136719 137.425781 C 151.347656 136.734375 152.96875 136.773438 152.878906 136.335938 C 152.707031 133.984375 153.1875 132.527344 154.292969 131.757812 C 154.925781 129.902344 154.347656 129.464844 155.890625 128.957031 C 157.292969 128.15625 154.226562 125 151.828125 124.28125 C 149.46875 123.574219 149.125 122.40625 149.125 122.226562 C 149.125 122.046875 148.742188 121.382812 148.273438 120.746094 C 147.804688 120.113281 148.503906 117.957031 148.3125 117.253906 C 148.125 116.554688 147.636719 115.765625 147.226562 115.5 C 146.292969 114.902344 143.773438 113.789062 137.257812 111.921875 L 132.238281 110.480469 L 129.835938 111.058594 C 124.460938 112.351562 125.035156 111.953125 124.046875 115.066406 C 123.066406 118.152344 122.5625 123.527344 123.148438 124.621094 C 123.46875 125.222656 123.394531 125.265625 122.226562 125.152344 C 121.402344 125.074219 120.46875 125.277344 119.589844 125.726562 C 118.363281 126.351562 118.117188 126.707031 117.15625 129.214844 C 114.847656 135.230469 106.855469 159.0625 106.542969 160.855469 C 106.375 161.816406 106.578125 162.46875 107.632812 164.398438 C 108.839844 166.601562 109.058594 166.808594 110.871094 167.535156 C 111.9375 167.964844 113.554688 168.402344 114.457031 168.507812 L 116.101562 168.703125 L 115.316406 169.753906 C 114.886719 170.332031 114.171875 171.871094 113.734375 173.167969 C 113.050781 175.179688 112.925781 176.230469 112.894531 180.253906 C 114.726562 184.984375 114.289062 189.566406 114.101562 194.824219 L 113.8125 199.179688 C 113.449219 202.59375 112.640625 205.097656 110.664062 210.617188 C 109.738281 212.738281 109.40625 214.105469 109.089844 217.023438 C 108.871094 219.066406 108.433594 222.007812 108.117188 223.5625 C 107.773438 225.683594 107.285156 226.667969 106.679688 227.261719 C 106.101562 227.804688 102.960938 232.378906 103.003906 233.753906 C 103.042969 235.21875 103.113281 235.191406 104.855469 236.875 C 106.136719 238.109375 107.851562 239.121094 108.113281 239.121094 C 108.378906 239.121094 108.96875 239.695312 109.429688 240.394531 L 110.261719 241.667969 L 108.808594 242.425781 C 107.457031 243.125 107.28125 243.144531 106.363281 242.667969 C 105.640625 242.296875 104.285156 242.15625 101.355469 242.15625 C 97.660156 242.15625 97.136719 242.078125 94.882812 241.144531 C 91.734375 239.847656 91.074219 239.859375 90.039062 241.230469 C 87.96875 243.976562 86.828125 246.644531 86.589844 249.3125 C 86.363281 251.835938 86.382812 251.925781 87.160156 252.253906 C 89.339844 253.175781 95.332031 254.636719 96.789062 254.601562 C 97.6875 254.582031 101.914062 253.832031 106.183594 252.9375 Z M 125.105469 240.972656 C 124.195312 240.699219 123.019531 240.472656 122.496094 240.472656 C 121.738281 240.472656 121.449219 240.246094 121.085938 239.375 C 120.457031 237.875 119.765625 237.382812 118.027344 237.183594 L 116.546875 237.019531 L 115.964844 234.613281 C 115.644531 233.289062 115.257812 231.964844 115.105469 231.675781 C 114.652344 230.816406 117.625 220.234375 119.167969 217.199219 C 119.5 216.546875 120.394531 214.355469 121.15625 212.332031 C 121.921875 210.300781 123.066406 207.976562 123.710938 207.148438 C 124.988281 205.507812 125.253906 204.816406 126.085938 200.902344 C 127.027344 198 128.414062 195.476562 129.4375 192.574219 C 130.625 188.742188 132.71875 187.875 133.058594 187.890625 C 138.410156 188.25 141.589844 189.414062 142.867188 189.898438 C 143.289062 190.117188 143.675781 190.332031 143.730469 190.375 C 143.78125 190.421875 143.527344 190.96875 143.15625 191.597656 C 142.066406 193.449219 138.792969 201.617188 138.363281 202.394531 L 137.023438 203.984375 L 135.71875 205.585938 C 133.613281 208.90625 133.542969 210.625 135.433594 212.671875 C 136.976562 214.347656 138.277344 215.15625 139.480469 215.191406 C 139.980469 215.203125 140.871094 215.894531 141.984375 217.128906 L 143.710938 219.050781 L 142.492188 220.886719 C 141.328125 222.632812 141.140625 222.765625 138.570312 223.585938 C 137.085938 224.058594 135.683594 224.570312 135.449219 224.71875 C 135.148438 224.914062 135.027344 226.191406 135.027344 229.136719 L 135.027344 233.28125 L 132.976562 233.902344 C 130.9375 234.519531 130.917969 234.539062 129.726562 236.90625 C 128.773438 238.796875 127.050781 241.5 126.808594 241.480469 C 126.78125 241.476562 126.019531 241.25 125.105469 240.972656 Z M 152.519531 214.941406 C 152.339844 214.726562 151.609375 214.449219 150.894531 214.328125 C 149.238281 214.046875 148.914062 213.640625 147.363281 209.878906 L 146.085938 206.777344 L 146.9375 205.324219 C 147.402344 204.523438 148.390625 202.804688 149.132812 201.507812 C 149.871094 200.207031 151.425781 197.703125 152.585938 195.941406 C 156.25 190.371094 157.96875 186.851562 157.960938 184.945312 C 157.953125 183.105469 156.941406 180.523438 156.105469 180.203125 C 148.828125 177.113281 146.035156 175.097656 140.199219 172.777344 C 138.933594 172.457031 137.765625 172.085938 137.609375 171.957031 C 137.453125 171.828125 138.089844 170.601562 139.019531 169.234375 C 140.160156 167.558594 140.585938 165.90625 141.269531 164.535156 C 141.976562 163.125 142.027344 163.085938 142.828125 162.597656 C 143.402344 162.25 143.96875 162.269531 144.601562 162.058594 C 145.507812 161.761719 146.519531 161.960938 148.214844 162.359375 C 149.40625 162.640625 151.265625 162.871094 152.351562 162.875 C 154.054688 162.878906 154.515625 163.023438 155.664062 163.9375 C 156.925781 164.933594 157.121094 164.984375 159.09375 164.800781 C 161.96875 164.53125 162.273438 164.367188 163.1875 162.5625 C 163.785156 161.378906 164.335938 160.824219 165.375 160.355469 C 167.871094 159.230469 167.871094 159.21875 164.359375 172.324219 C 164.035156 173.53125 163.148438 176.945312 162.386719 179.914062 C 161.628906 182.882812 160.703125 186.070312 160.332031 187 C 158.957031 190.441406 155.328125 204.882812 153.855469 212.757812 C 153.425781 215.050781 153.023438 216.566406 152.960938 216.132812 C 152.894531 215.695312 152.695312 215.160156 152.519531 214.941406 Z M 152.519531 214.941406 " fill-opacity="1" fill-rule="nonzero"/></g><g clip-path="url(#6a235e8b7a)"><path fill="#0a1322" d="M 300.34375 228.585938 C 295.558594 224.746094 290.804688 220.910156 286.078125 217.078125 C 285.859375 216.902344 285.65625 216.726562 285.472656 216.554688 C 285.410156 216.5 285.394531 216.4375 285.433594 216.359375 C 285.636719 215.929688 285.855469 215.507812 286.082031 215.09375 C 286.257812 214.777344 286.707031 214.867188 286.777344 214.296875 C 286.964844 212.769531 286.382812 212.277344 285.328125 210.890625 C 283.003906 207.84375 280.675781 204.808594 278.335938 201.78125 C 277.398438 200.574219 276.40625 199.769531 275.027344 201.0625 C 275.003906 201.097656 274.976562 201.097656 274.953125 201.0625 L 273.285156 199.210938 C 273.253906 199.171875 273.210938 199.15625 273.160156 199.160156 L 269.964844 199.394531 C 269.929688 199.398438 269.902344 199.386719 269.882812 199.359375 C 268.40625 197.644531 266.882812 195.96875 265.3125 194.335938 C 265.28125 194.304688 265.246094 194.289062 265.203125 194.285156 L 262.0625 193.984375 C 262.023438 193.984375 261.996094 193.964844 261.976562 193.933594 C 259.0625 189.339844 256.101562 184.78125 253.09375 180.25 C 251.363281 177.652344 249.339844 179.503906 247.792969 180.976562 C 247.734375 181.023438 247.679688 181.023438 247.625 180.976562 C 244.925781 178.425781 242.210938 175.871094 239.480469 173.320312 C 239.21875 173.074219 238.992188 172.804688 238.800781 172.503906 C 235.304688 167.097656 231.800781 161.703125 228.277344 156.3125 C 227.992188 155.71875 227.5625 155.253906 226.992188 154.917969 C 226.421875 154.816406 225.882812 154.902344 225.375 155.179688 C 225.332031 155.199219 225.296875 155.191406 225.269531 155.152344 C 224.839844 154.617188 224.171875 153.828125 223.265625 152.777344 C 223.027344 152.492188 222.734375 152.289062 222.382812 152.164062 C 222.332031 152.148438 222.292969 152.15625 222.253906 152.191406 C 221.804688 152.589844 221.519531 152.84375 221.40625 152.960938 C 216.023438 158.34375 210.636719 163.726562 205.253906 169.109375 C 205.066406 169.316406 204.949219 169.558594 204.902344 169.832031 C 204.523438 171.566406 204.132812 173.257812 203.730469 174.910156 C 203.675781 175.136719 203.582031 175.347656 203.449219 175.542969 L 198.550781 182.796875 C 198.507812 182.859375 198.46875 182.859375 198.425781 182.796875 C 198.054688 182.207031 197.675781 181.644531 197.289062 181.109375 C 196.640625 180.226562 195.960938 179.675781 194.882812 180.125 C 194.460938 180.363281 194.066406 180.640625 193.695312 180.953125 C 193.59375 181.023438 193.503906 181.015625 193.417969 180.929688 C 192.59375 180.09375 191.503906 178.632812 190.1875 179.519531 C 189.828125 179.824219 189.519531 180.171875 189.257812 180.566406 C 186.410156 184.445312 183.570312 188.332031 180.738281 192.21875 C 180.257812 192.804688 180 193.476562 179.960938 194.234375 C 179.957031 194.316406 179.917969 194.367188 179.835938 194.386719 L 171.519531 196.59375 C 171.464844 196.609375 171.414062 196.597656 171.367188 196.566406 C 170.121094 195.707031 169.425781 195.519531 168.441406 196.867188 C 165.34375 201.101562 162.230469 205.320312 159.09375 209.527344 C 158.792969 209.914062 158.609375 210.351562 158.542969 210.835938 C 158.472656 211.324219 158.53125 211.792969 158.714844 212.25 C 158.75 212.355469 158.847656 212.449219 158.894531 212.566406 C 158.917969 212.617188 158.90625 212.652344 158.851562 212.675781 C 158.070312 213.097656 157.285156 213.519531 156.496094 213.941406 C 155.4375 214.492188 155.382812 216.269531 154.460938 217.035156 C 149.8125 220.875 145.140625 224.742188 140.445312 228.632812 C 140.4375 228.640625 140.433594 228.648438 140.433594 228.660156 C 140.433594 228.683594 140.445312 228.695312 140.46875 228.695312 L 300.308594 228.683594 C 300.414062 228.683594 300.421875 228.652344 300.34375 228.585938 Z M 270.910156 201.585938 L 273.03125 201.070312 C 273.09375 201.054688 273.140625 201.070312 273.171875 201.125 C 273.714844 201.933594 274.351562 202.652344 275.089844 203.289062 C 275.121094 203.320312 275.148438 203.320312 275.179688 203.289062 L 275.988281 202.636719 C 276.074219 202.574219 276.148438 202.585938 276.210938 202.671875 C 277 203.636719 277.726562 204.648438 278.390625 205.707031 L 278.390625 205.722656 C 278.378906 205.75 278.359375 205.761719 278.332031 205.75 L 277.089844 205.265625 C 277.039062 205.246094 276.996094 205.257812 276.964844 205.300781 C 276.929688 205.347656 276.929688 205.390625 276.964844 205.433594 L 279.082031 208.214844 C 279.101562 208.242188 279.101562 208.265625 279.082031 208.289062 C 279.054688 208.316406 279.027344 208.316406 279 208.289062 C 277.398438 206.707031 275.742188 205.191406 274.179688 203.570312 C 274.164062 203.558594 274.148438 203.550781 274.128906 203.554688 C 274.089844 203.566406 274.078125 203.585938 274.085938 203.621094 C 274.519531 204.9375 275.0625 206.199219 275.722656 207.417969 C 275.730469 207.433594 275.726562 207.445312 275.710938 207.457031 C 275.695312 207.464844 275.683594 207.464844 275.671875 207.445312 C 274.273438 205.78125 272.816406 204.214844 271.335938 202.621094 C 271.09375 202.363281 270.90625 202.144531 270.773438 201.972656 C 270.625 201.773438 270.667969 201.644531 270.910156 201.585938 Z M 264.394531 197.082031 L 265.027344 195.847656 C 265.101562 195.699219 265.183594 195.695312 265.269531 195.839844 C 266.769531 198.347656 268.234375 200.882812 269.660156 203.4375 C 269.921875 203.90625 269.886719 203.933594 269.546875 203.511719 C 268.355469 202.042969 267.050781 200.5 265.625 198.878906 C 265.226562 198.425781 264.824219 197.9375 264.417969 197.414062 C 264.332031 197.308594 264.324219 197.199219 264.394531 197.082031 Z M 249.855469 181.707031 C 249.851562 181.667969 249.871094 181.644531 249.90625 181.632812 L 250.886719 181.269531 C 250.9375 181.246094 250.976562 181.257812 251.003906 181.308594 C 251.191406 181.625 251.375 182.003906 251.546875 182.277344 C 254.566406 187.019531 256.734375 190.90625 259.296875 195.246094 C 259.324219 195.289062 259.328125 195.328125 259.3125 195.375 L 258.550781 197.523438 C 258.523438 197.609375 258.539062 197.683594 258.601562 197.75 C 261.59375 200.929688 264.546875 204.164062 267.453125 207.453125 C 267.660156 207.648438 267.851562 207.863281 268.027344 208.09375 C 268.097656 208.207031 268.082031 208.21875 267.980469 208.132812 C 266.714844 207.074219 265.554688 205.898438 264.328125 204.792969 C 262.085938 202.769531 259.875 200.714844 257.703125 198.625 C 256.835938 197.878906 256.105469 197.015625 255.519531 196.035156 C 253.894531 193.164062 252.230469 190.3125 250.535156 187.484375 C 250.335938 187.144531 249.765625 186.496094 249.777344 185.957031 C 249.8125 184.539062 249.839844 183.125 249.855469 181.707031 Z M 248.492188 188.171875 C 250.785156 192.886719 253.070312 197.667969 255.089844 202.519531 C 255.132812 202.621094 255.125 202.621094 255.070312 202.527344 L 248.492188 190.875 C 248.46875 190.828125 248.4375 190.828125 248.402344 190.867188 L 242.765625 197.636719 C 242.425781 198.050781 242.394531 198.027344 242.675781 197.570312 C 244.53125 194.570312 246.550781 191.441406 248.414062 188.167969 C 248.441406 188.121094 248.46875 188.121094 248.492188 188.171875 Z M 247.46875 207.90625 L 238.320312 198.308594 C 238.289062 198.253906 238.257812 198.253906 238.226562 198.308594 L 237.273438 199.460938 C 237.238281 199.507812 237.199219 199.515625 237.148438 199.484375 C 237.101562 199.453125 237.089844 199.410156 237.117188 199.359375 C 237.585938 198.410156 238.097656 197.480469 238.652344 196.578125 C 238.675781 196.539062 238.703125 196.535156 238.730469 196.566406 C 239.253906 197.09375 239.75 197.640625 240.214844 198.210938 C 242.03125 200.4375 243.800781 202.699219 245.523438 205.003906 C 246.1875 205.890625 247.015625 206.890625 247.632812 207.757812 C 248.199219 208.5625 248.144531 208.609375 247.46875 207.898438 Z M 248.074219 183.054688 C 248.082031 183.046875 248.09375 183.046875 248.101562 183.046875 C 248.128906 183.046875 248.144531 183.0625 248.144531 183.089844 L 248.105469 184.300781 C 248.101562 184.34375 248.082031 184.378906 248.042969 184.402344 C 246.742188 185.257812 245.449219 186.125 244.164062 187.007812 C 243.636719 187.375 243.601562 187.332031 244.058594 186.882812 C 245.292969 185.496094 246.628906 184.21875 248.074219 183.050781 Z M 201.503906 187.15625 C 203.730469 184.429688 205.941406 181.675781 208.136719 178.898438 C 208.398438 178.535156 208.746094 178.289062 209.175781 178.160156 C 212.378906 177.261719 215.578125 176.332031 218.769531 175.375 C 218.816406 175.363281 218.851562 175.375 218.878906 175.414062 C 220.757812 177.894531 222.652344 180.371094 224.554688 182.84375 C 224.878906 183.257812 225.214844 183.664062 225.570312 184.058594 C 225.613281 184.105469 225.617188 184.101562 225.585938 184.042969 C 223.167969 179.554688 220.660156 175.117188 218.066406 170.726562 C 218.039062 170.683594 218.042969 170.648438 218.082031 170.617188 L 221.054688 167.746094 C 221.152344 167.652344 221.207031 167.539062 221.222656 167.402344 L 221.792969 162.003906 L 221.792969 161.996094 C 221.804688 161.984375 221.8125 161.984375 221.820312 161.996094 L 227.296875 168.304688 L 221.328125 157.667969 C 221.304688 157.628906 221.277344 157.625 221.246094 157.65625 C 217.640625 161.335938 213.996094 164.996094 210.3125 168.632812 C 210.007812 168.925781 209.746094 169.25 209.519531 169.601562 C 208.480469 171.289062 207.46875 172.980469 206.484375 174.679688 C 206.472656 174.699219 206.457031 174.703125 206.4375 174.695312 C 206.417969 174.6875 206.40625 174.671875 206.414062 174.652344 C 206.734375 173.316406 207.023438 171.972656 207.285156 170.621094 C 207.386719 170.082031 208.699219 168.9375 209.117188 168.511719 C 213.527344 164.035156 217.9375 159.578125 222.34375 155.136719 C 222.398438 155.085938 222.453125 155.089844 222.5 155.148438 C 223.039062 155.742188 223.59375 156.300781 224.167969 156.828125 C 224.832031 157.4375 225.292969 157.890625 226.125 157.382812 C 226.21875 157.328125 226.296875 157.34375 226.355469 157.4375 C 229.742188 162.777344 233.183594 168.101562 236.683594 173.40625 C 236.882812 173.726562 237.105469 174.027344 237.363281 174.304688 C 240.574219 177.355469 243.886719 180.324219 247.058594 183.417969 C 247.089844 183.445312 247.089844 183.46875 247.058594 183.496094 L 246.226562 184.480469 C 246.199219 184.507812 246.175781 184.507812 246.148438 184.480469 L 237.742188 177.226562 C 237.457031 176.980469 237.421875 177.011719 237.636719 177.324219 C 239.082031 179.429688 240.503906 181.550781 241.898438 183.6875 C 242.242188 184.21875 242.203125 184.246094 241.78125 183.777344 C 240.242188 182.074219 238.617188 180.386719 237.152344 178.625 C 235.582031 176.742188 234.027344 174.851562 232.488281 172.949219 C 232.394531 172.828125 232.242188 172.667969 232.039062 172.457031 C 232.015625 172.429688 232.011719 172.433594 232.03125 172.46875 C 235.136719 177.960938 238.328125 183.40625 241.464844 188.878906 C 241.484375 188.914062 241.480469 188.941406 241.449219 188.960938 L 240.738281 189.460938 C 240.695312 189.492188 240.660156 189.492188 240.625 189.449219 C 238.050781 186.792969 235.363281 183.894531 232.84375 181.523438 C 232.78125 181.46875 232.769531 181.476562 232.808594 181.550781 C 234.328125 184.550781 235.953125 187.492188 237.507812 190.464844 C 237.515625 190.484375 237.515625 190.503906 237.5 190.519531 C 237.480469 190.546875 237.457031 190.550781 237.429688 190.527344 C 237.402344 190.503906 237.378906 190.476562 237.359375 190.449219 C 233.730469 185.628906 230.113281 180.796875 226.507812 175.957031 C 226.03125 175.3125 225.417969 174.582031 224.945312 173.921875 C 224.828125 173.761719 224.695312 173.609375 224.546875 173.476562 C 224.472656 173.414062 224.457031 173.425781 224.496094 173.511719 C 224.582031 173.707031 224.671875 173.898438 224.761719 174.082031 C 228.183594 181.007812 231.691406 187.886719 235.296875 194.71875 C 235.324219 194.769531 235.3125 194.808594 235.269531 194.839844 L 234.496094 195.390625 C 234.457031 195.425781 234.417969 195.421875 234.378906 195.378906 C 233.542969 194.570312 233.199219 193.917969 231.859375 194.023438 C 231.800781 194.023438 231.792969 194.050781 231.839844 194.089844 L 234.023438 195.9375 C 234.0625 195.96875 234.105469 195.984375 234.152344 195.988281 C 234.265625 196.003906 234.371094 195.980469 234.46875 195.921875 C 238.691406 192.941406 243 190.070312 247.390625 187.3125 C 247.414062 187.304688 247.429688 187.308594 247.445312 187.324219 C 247.460938 187.34375 247.460938 187.363281 247.445312 187.378906 C 247.382812 187.445312 247.3125 187.507812 247.230469 187.578125 C 243.265625 190.992188 239.113281 194.175781 234.976562 197.378906 C 234.929688 197.402344 234.929688 197.433594 234.96875 197.464844 C 235.769531 198.328125 236.667969 199.160156 237.394531 200.023438 C 239.539062 202.5625 241.648438 205.128906 243.71875 207.730469 C 243.726562 207.738281 243.726562 207.746094 243.71875 207.753906 C 243.710938 207.757812 243.703125 207.757812 243.695312 207.753906 C 241.476562 205.71875 239.304688 203.640625 237.175781 201.515625 C 236.6875 200.898438 236.050781 200.601562 235.265625 200.621094 C 235.21875 200.621094 235.210938 200.640625 235.234375 200.675781 C 236.414062 202.4375 237.46875 204.269531 238.398438 206.175781 C 238.402344 206.179688 238.402344 206.1875 238.398438 206.191406 C 238.390625 206.199219 238.382812 206.199219 238.375 206.191406 C 237.035156 204.347656 235.71875 202.5 234.425781 200.640625 L 234.414062 200.625 C 234.367188 200.582031 234.320312 200.582031 234.277344 200.632812 L 233.050781 202.003906 C 233.019531 202.042969 233.019531 202.082031 233.050781 202.121094 C 234.824219 204.632812 236.5625 207.167969 238.179688 209.78125 C 238.1875 209.792969 238.1875 209.808594 238.179688 209.820312 C 238.164062 209.835938 238.148438 209.835938 238.132812 209.820312 L 228.242188 199.347656 C 228.199219 199.304688 228.152344 199.300781 228.101562 199.339844 L 224.46875 202.226562 C 224.460938 202.230469 224.457031 202.230469 224.449219 202.226562 C 224.441406 202.222656 224.4375 202.214844 224.441406 202.207031 L 226.519531 196.625 C 226.539062 196.574219 226.53125 196.535156 226.488281 196.5 L 224.730469 194.789062 C 224.6875 194.746094 224.648438 194.746094 224.609375 194.789062 L 219.507812 199.027344 C 219.492188 199.042969 219.480469 199.042969 219.464844 199.027344 C 219.449219 199.015625 219.449219 199 219.464844 198.988281 C 221.027344 196.761719 222.625 194.558594 224.253906 192.382812 C 224.273438 192.363281 224.289062 192.363281 224.308594 192.382812 C 226.800781 194.589844 229.335938 196.753906 231.921875 198.867188 C 232.070312 198.996094 232.234375 199.109375 232.40625 199.210938 C 232.484375 199.253906 232.5 199.238281 232.449219 199.164062 C 232.316406 198.960938 232.167969 198.765625 232.007812 198.585938 C 229.769531 196.03125 226.679688 192.683594 222.746094 188.539062 C 222.453125 188.203125 222.097656 187.953125 221.683594 187.789062 C 220.144531 187.253906 218.625 186.726562 217.125 186.210938 C 217.078125 186.203125 217.042969 186.175781 217.019531 186.132812 C 217 186.089844 216.996094 186.046875 217.015625 186.003906 L 218.320312 181.773438 C 218.335938 181.71875 218.320312 181.707031 218.273438 181.738281 C 215.765625 183.457031 213.214844 185.113281 210.625 186.707031 C 210.617188 186.714844 210.609375 186.707031 210.601562 186.6875 L 210.613281 186.675781 C 213.144531 184.699219 215.742188 182.84375 218.40625 181.113281 C 218.449219 181.085938 218.492188 181.089844 218.53125 181.125 C 220.4375 182.9375 222.347656 184.746094 224.261719 186.550781 C 226.257812 188.433594 228.335938 190.242188 230.382812 192.070312 C 230.394531 192.078125 230.40625 192.078125 230.421875 192.070312 C 230.433594 192.054688 230.433594 192.042969 230.421875 192.027344 C 226.5 186.683594 222.417969 181.464844 218.171875 176.371094 C 218.140625 176.332031 218.097656 176.320312 218.050781 176.339844 C 217.671875 176.472656 217.300781 176.628906 216.9375 176.808594 C 214.820312 177.84375 212.691406 178.855469 210.550781 179.839844 C 210.179688 179.960938 209.867188 180.175781 209.621094 180.484375 C 207.429688 183.433594 205.207031 186.363281 202.953125 189.273438 C 202.921875 189.316406 202.886719 189.316406 202.851562 189.273438 L 201.488281 187.332031 C 201.4375 187.269531 201.441406 187.207031 201.503906 187.152344 Z M 184.402344 191.820312 C 186.632812 188.421875 188.914062 185.058594 191.246094 181.730469 C 191.265625 181.695312 191.289062 181.695312 191.308594 181.730469 L 192.878906 183.246094 C 192.914062 183.28125 192.957031 183.292969 193.003906 183.277344 L 195.882812 182.367188 C 195.921875 182.351562 195.957031 182.363281 195.980469 182.402344 C 199.425781 187.527344 202.980469 192.535156 206.460938 197.613281 C 206.578125 197.78125 206.546875 197.8125 206.371094 197.710938 L 200.085938 194.011719 C 199.992188 193.957031 199.894531 193.960938 199.804688 194.023438 L 195.328125 197.152344 C 195.285156 197.1875 195.242188 197.183594 195.203125 197.144531 L 194.148438 196.1875 C 194.105469 196.132812 194.070312 196.136719 194.039062 196.199219 C 193.339844 197.152344 192.707031 198.148438 192.144531 199.191406 C 192.128906 199.214844 192.109375 199.21875 192.085938 199.210938 C 192.050781 199.203125 192.042969 199.179688 192.050781 199.148438 L 193.109375 196.039062 C 193.125 195.996094 193.148438 195.957031 193.175781 195.925781 L 193.253906 195.832031 C 193.292969 195.789062 193.296875 195.746094 193.265625 195.699219 L 192.046875 193.875 C 192.011719 193.832031 192.015625 193.789062 192.058594 193.75 L 194.296875 191.332031 C 194.363281 191.265625 194.433594 191.257812 194.511719 191.3125 L 197.773438 193.660156 C 197.8125 193.6875 197.855469 193.699219 197.898438 193.699219 L 198.054688 193.699219 C 198.097656 193.703125 198.128906 193.679688 198.144531 193.640625 C 198.160156 193.601562 198.152344 193.566406 198.121094 193.535156 C 195.84375 191.378906 193.59375 189.164062 191.277344 187.105469 C 191.125 186.972656 190.992188 186.824219 190.878906 186.660156 C 190.847656 186.617188 190.835938 186.570312 190.84375 186.519531 L 191.246094 183.324219 C 191.25 183.3125 191.246094 183.300781 191.238281 183.292969 C 191.222656 183.28125 191.207031 183.28125 191.195312 183.292969 C 189.09375 185.949219 187 188.613281 184.910156 191.289062 C 184.761719 191.480469 184.597656 191.660156 184.417969 191.828125 C 184.367188 191.886719 184.359375 191.878906 184.402344 191.820312 Z M 187.066406 196.011719 C 187.058594 196.019531 187.046875 196.019531 187.039062 196.011719 C 187.03125 196 187.03125 195.992188 187.039062 195.984375 C 187.695312 195.289062 188.304688 194.5625 189.003906 193.921875 C 190.332031 192.699219 191.734375 191.570312 193.210938 190.535156 C 193.4375 190.378906 193.453125 190.402344 193.265625 190.597656 C 191.378906 192.605469 189.3125 194.410156 187.066406 196.011719 Z M 182.222656 197.710938 C 183.769531 195.359375 185.40625 193.074219 187.136719 190.855469 C 187.144531 190.839844 187.15625 190.835938 187.175781 190.847656 C 187.191406 190.855469 187.191406 190.867188 187.175781 190.882812 C 185.710938 193.375 184.132812 195.792969 182.441406 198.136719 C 182.394531 198.203125 182.355469 198.199219 182.324219 198.121094 L 182.210938 197.832031 C 182.191406 197.789062 182.195312 197.746094 182.222656 197.707031 Z M 198.015625 201.585938 C 197.601562 202.40625 197.253906 203.253906 196.972656 204.128906 C 196.96875 204.152344 196.960938 204.167969 196.949219 204.1875 C 196.941406 204.191406 196.933594 204.195312 196.925781 204.199219 C 196.878906 204.207031 196.851562 204.1875 196.839844 204.144531 L 196.460938 202.789062 C 196.441406 202.730469 196.457031 202.683594 196.507812 202.648438 L 197.929688 201.519531 C 197.953125 201.5 197.976562 201.503906 197.996094 201.519531 C 198.019531 201.539062 198.023438 201.5625 198.011719 201.585938 Z M 284.550781 218.433594 C 284.535156 218.464844 284.511719 218.46875 284.480469 218.453125 C 281.507812 216.574219 278.550781 214.6875 275.605469 212.824219 C 275.445312 212.722656 275.304688 212.597656 275.1875 212.445312 L 273.242188 209.917969 C 273.210938 209.867188 273.167969 209.855469 273.113281 209.875 C 272.84375 209.953125 272.578125 210.046875 272.324219 210.160156 C 269.761719 211.28125 267.234375 212.382812 264.746094 213.472656 C 264.636719 213.519531 264.628906 213.582031 264.71875 213.660156 L 274.308594 222 C 274.316406 222.011719 274.316406 222.027344 274.308594 222.039062 C 274.296875 222.058594 274.28125 222.0625 274.261719 222.050781 L 257.222656 210.769531 C 257.117188 210.699219 257.003906 210.675781 256.882812 210.703125 C 251.648438 211.707031 246.375 212.738281 241.070312 213.800781 C 240.878906 213.835938 240.691406 213.828125 240.503906 213.777344 C 235.207031 212.339844 229.902344 210.925781 224.59375 209.539062 C 224.351562 209.476562 224.117188 209.394531 223.890625 209.289062 C 221.402344 208.023438 218.914062 206.757812 216.425781 205.492188 C 215.511719 204.886719 214.507812 204.519531 213.414062 204.386719 C 212.695312 204.476562 211.972656 204.566406 211.25 204.65625 C 211.195312 204.65625 211.1875 204.683594 211.226562 204.722656 C 214.007812 207.726562 216.925781 210.539062 220.585938 214.292969 C 221.140625 214.863281 221.605469 215.363281 221.976562 215.789062 C 221.984375 215.800781 221.984375 215.808594 221.976562 215.816406 C 221.964844 215.824219 221.957031 215.824219 221.945312 215.816406 C 218.398438 212.914062 215.234375 210.273438 212.460938 207.890625 C 211.808594 207.332031 211.308594 206.914062 210.960938 206.636719 C 210.929688 206.605469 210.898438 206.605469 210.871094 206.636719 L 209.621094 207.765625 C 209.566406 207.835938 209.507812 207.835938 209.449219 207.765625 L 208.089844 206.351562 C 208.046875 206.304688 208.011719 206.3125 207.988281 206.375 C 207.894531 206.65625 207.765625 206.917969 207.59375 207.160156 C 206.789062 208.3125 205.996094 209.480469 205.214844 210.652344 C 205.207031 210.667969 205.195312 210.671875 205.179688 210.664062 C 205.164062 210.652344 205.160156 210.640625 205.167969 210.625 L 207.023438 206.28125 C 207.0625 206.191406 207.054688 206.105469 207 206.027344 L 204.257812 201.9375 C 204.238281 201.910156 204.21875 201.890625 204.195312 201.871094 L 199.703125 198.601562 C 199.664062 198.570312 199.625 198.570312 199.585938 198.601562 L 194.703125 201.875 C 194.65625 201.90625 194.609375 201.910156 194.554688 201.890625 L 193.789062 201.589844 C 193.777344 201.582031 193.765625 201.582031 193.753906 201.589844 C 190.148438 203.835938 186.480469 205.96875 182.832031 208.136719 C 182.800781 208.152344 182.796875 208.171875 182.832031 208.191406 C 186.191406 210.433594 189.519531 212.726562 192.8125 215.078125 C 192.878906 215.125 192.941406 215.171875 192.996094 215.222656 C 193.015625 215.234375 193.019531 215.253906 193.007812 215.273438 C 192.992188 215.292969 192.976562 215.296875 192.953125 215.28125 C 186.039062 211.582031 179.214844 207.722656 172.476562 203.707031 C 172.453125 203.691406 172.429688 203.691406 172.40625 203.707031 C 172.371094 203.734375 172.367188 203.761719 172.394531 203.796875 L 178.152344 211.59375 C 178.539062 212.113281 178.496094 212.148438 178.027344 211.703125 L 170.503906 204.519531 C 170.425781 204.445312 170.386719 204.351562 170.386719 204.246094 L 170.386719 200.054688 C 170.386719 200 170.367188 199.992188 170.335938 200.03125 C 168.105469 202.59375 165.890625 205.171875 163.644531 207.726562 C 163.636719 207.738281 163.625 207.742188 163.609375 207.730469 C 163.59375 207.71875 163.59375 207.707031 163.605469 207.691406 C 165.804688 204.609375 168.015625 201.53125 170.238281 198.460938 C 170.261719 198.417969 170.296875 198.410156 170.335938 198.441406 L 171.324219 199.074219 C 171.378906 199.109375 171.433594 199.117188 171.492188 199.101562 L 179.671875 196.960938 C 179.777344 196.921875 179.851562 196.953125 179.898438 197.054688 C 180.527344 198.1875 181.121094 199.273438 181.679688 200.304688 C 181.832031 200.589844 182.019531 200.84375 182.242188 201.074219 C 183.261719 202.128906 184.261719 203.179688 185.238281 204.226562 C 185.660156 204.679688 185.621094 204.722656 185.125 204.351562 C 183.902344 203.449219 182.554688 202.441406 181.082031 201.332031 C 180.613281 200.96875 180.085938 200.773438 179.492188 200.746094 C 179.46875 200.742188 179.449219 200.75 179.433594 200.761719 C 179.382812 200.800781 179.378906 200.839844 179.417969 200.890625 L 180.5 202.292969 C 180.511719 202.304688 180.511719 202.320312 180.507812 202.339844 C 180.5 202.371094 180.476562 202.382812 180.445312 202.375 C 180.296875 202.339844 180.167969 202.269531 180.054688 202.167969 C 179.171875 201.335938 178.140625 200.78125 176.960938 200.5 C 176.945312 200.496094 176.929688 200.5 176.917969 200.511719 C 176.898438 200.535156 176.898438 200.554688 176.917969 200.578125 C 177.253906 200.980469 177.625 201.355469 178.027344 201.691406 C 179.597656 202.992188 181.199219 204.320312 182.832031 205.679688 C 182.863281 205.707031 182.871094 205.738281 182.851562 205.773438 C 182.832031 205.824219 182.796875 205.835938 182.75 205.8125 L 177.855469 203.550781 C 177.789062 203.519531 177.765625 203.542969 177.777344 203.613281 C 177.875 204.058594 178.09375 204.980469 178.484375 205.234375 C 179.609375 205.964844 180.714844 206.710938 181.808594 207.484375 C 181.976562 207.601562 182.152344 207.703125 182.339844 207.792969 C 182.378906 207.8125 182.417969 207.8125 182.457031 207.785156 C 184.578125 206.355469 185.90625 205.460938 186.441406 205.09375 C 191.378906 201.671875 195.722656 198.804688 199.46875 196.492188 C 199.507812 196.464844 199.546875 196.464844 199.585938 196.492188 C 201.929688 197.9375 204.304688 199.324219 206.71875 200.65625 C 207.96875 201.46875 209.074219 202.445312 210.042969 203.582031 C 210.070312 203.613281 210.109375 203.628906 210.152344 203.625 L 215.246094 203.21875 C 215.429688 203.203125 215.605469 203.234375 215.773438 203.308594 C 218.898438 204.703125 222.113281 206.074219 225.414062 207.425781 C 225.496094 207.457031 225.523438 207.515625 225.5 207.597656 L 225.117188 209.074219 C 225.089844 209.128906 225.109375 209.15625 225.167969 209.15625 C 229.984375 210.167969 234.761719 211.273438 239.585938 212.21875 C 239.910156 212.195312 240.226562 212.121094 240.527344 212 L 245.566406 210.632812 C 247.113281 210.21875 248.714844 211.015625 250.3125 210.667969 C 253.960938 209.875 257.617188 209.101562 261.289062 208.34375 C 261.347656 208.332031 261.382812 208.351562 261.402344 208.40625 C 261.8125 209.476562 262.230469 210.558594 262.65625 211.644531 C 262.859375 212.148438 263.796875 212.84375 264.226562 213.222656 C 264.261719 213.261719 264.304688 213.265625 264.351562 213.234375 L 273.125 208.097656 C 273.183594 208.0625 273.242188 208.066406 273.296875 208.109375 L 282.832031 215.859375 C 283.546875 216.601562 284.121094 217.441406 284.546875 218.378906 C 284.5625 218.394531 284.5625 218.414062 284.550781 218.433594 Z M 284.550781 218.433594 " fill-opacity="1" fill-rule="nonzero"/></g><path fill="#0a1322" d="M 233.40625 170.929688 C 231.179688 167.222656 228.734375 163.667969 226.070312 160.257812 C 225.714844 159.800781 225.335938 159.367188 224.929688 158.953125 C 224.921875 158.945312 224.914062 158.945312 224.90625 158.953125 C 224.898438 158.960938 224.898438 158.96875 224.90625 158.976562 C 227.335938 163.246094 230.160156 167.238281 233.375 170.949219 C 233.46875 171.0625 233.480469 171.054688 233.40625 170.929688 Z M 233.40625 170.929688 " fill-opacity="1" fill-rule="nonzero"/><path fill="#0a1322" d="M 228.222656 174.941406 C 228.433594 175.160156 228.457031 175.140625 228.300781 174.882812 C 227.355469 173.324219 226.3125 171.777344 225.175781 170.242188 C 224.964844 169.96875 224.722656 169.726562 224.445312 169.515625 C 224.433594 169.503906 224.417969 169.5 224.398438 169.5 C 224.355469 169.507812 224.335938 169.53125 224.339844 169.574219 L 224.453125 170.8125 C 224.464844 170.953125 224.519531 171.070312 224.617188 171.171875 Z M 228.222656 174.941406 " fill-opacity="1" fill-rule="nonzero"/><path fill="#0a1322" d="M 198.34375 189.808594 C 199.5625 191.074219 200.851562 192.375 202.210938 193.707031 C 202.613281 194.101562 202.648438 194.070312 202.324219 193.609375 C 200.394531 190.875 198.46875 187.996094 196.285156 185.453125 C 195.84375 184.945312 195.328125 184.523438 194.746094 184.1875 C 194.695312 184.15625 194.683594 184.167969 194.710938 184.222656 C 195.683594 186.238281 196.894531 188.101562 198.34375 189.808594 Z M 198.34375 189.808594 " fill-opacity="1" fill-rule="nonzero"/><path fill="#0a1322" d="M 256.5625 193.238281 C 256.636719 193.3125 256.644531 193.304688 256.589844 193.214844 C 255.988281 192.25 254.96875 190.683594 253.527344 188.515625 C 253.339844 188.226562 253.136719 187.949219 252.917969 187.683594 C 252.882812 187.640625 252.863281 187.648438 252.867188 187.707031 C 252.832031 188.390625 253 189.019531 253.375 189.59375 C 254.375 190.863281 255.4375 192.078125 256.5625 193.238281 Z M 256.5625 193.238281 " fill-opacity="1" fill-rule="nonzero"/><path fill="#0a1322" d="M 194.277344 191.992188 C 194.246094 191.972656 194.210938 191.960938 194.167969 191.960938 C 194.039062 191.96875 193.972656 192.039062 193.976562 192.167969 C 194.816406 193.089844 195.785156 193.839844 196.886719 194.417969 C 196.910156 194.421875 196.933594 194.417969 196.949219 194.398438 C 196.988281 194.367188 196.992188 194.332031 196.957031 194.292969 C 196.191406 193.378906 195.300781 192.609375 194.277344 191.992188 Z M 194.277344 191.992188 " fill-opacity="1" fill-rule="nonzero"/><g clip-path="url(#4dbaa0650e)"><path fill="#0a1322" d="M 138.742188 238.539062 L 234.304688 238.539062 L 234.304688 288.0625 L 138.742188 288.0625 Z M 138.742188 238.539062 " fill-opacity="1" fill-rule="nonzero"/></g><g clip-path="url(#0c82541e53)"><g clip-path="url(#cff924444e)"><path fill="#0a1322" d="M 95.847656 243.503906 L 191.394531 243.503906 L 191.394531 277.105469 L 95.847656 277.105469 Z M 95.847656 243.503906 " fill-opacity="1" fill-rule="nonzero"/></g></g><g clip-path="url(#6dfe4e4f70)"><path fill="#fefffe" d="M 17.257812 251.289062 L 386.179688 251.289062 L 386.179688 395.257812 L 17.257812 395.257812 Z M 17.257812 251.289062 " fill-opacity="1" fill-rule="nonzero"/></g><path stroke-linecap="round" transform="matrix(0.75, 0, 0, 0.75, 62.826351, 247.458675)" fill="none" stroke-linejoin="miter" d="M 2.502366 2.497809 L 338.450305 2.497809 " stroke="#0a1322" stroke-width="5" stroke-opacity="1" stroke-miterlimit="4"/><path stroke-linecap="round" transform="matrix(0.75, 0, 0, 0.75, 62.826351, 312.526122)" fill="none" stroke-linejoin="miter" d="M 1.502366 1.501629 L 339.450305 1.501629 " stroke="#0a1322" stroke-width="3" stroke-opacity="1" stroke-miterlimit="4"/><g fill="#3f5743" fill-opacity="1"><g transform="translate(67.129047, 280.730665)"><g><path d="M 11.296875 0 L 0.765625 0 C 1.160156 -1.738281 1.453125 -3.570312 1.640625 -5.5 C 1.835938 -7.4375 1.9375 -9.390625 1.9375 -11.359375 C 1.9375 -13.335938 1.835938 -15.289062 1.640625 -17.21875 C 1.453125 -19.15625 1.160156 -20.992188 0.765625 -22.734375 L 11.46875 -22.734375 C 13.207031 -22.734375 14.71875 -22.410156 16 -21.765625 C 17.289062 -21.128906 18.363281 -20.265625 19.21875 -19.171875 C 20.082031 -18.085938 20.722656 -16.875 21.140625 -15.53125 C 21.566406 -14.1875 21.769531 -12.796875 21.75 -11.359375 C 21.738281 -9.921875 21.507812 -8.523438 21.0625 -7.171875 C 20.625 -5.816406 19.96875 -4.601562 19.09375 -3.53125 C 18.226562 -2.457031 17.144531 -1.597656 15.84375 -0.953125 C 14.539062 -0.316406 13.023438 0 11.296875 0 Z M 6.84375 -4.796875 C 6.84375 -3.441406 7.082031 -2.441406 7.5625 -1.796875 C 8.039062 -1.160156 8.632812 -0.84375 9.34375 -0.84375 C 9.988281 -0.84375 10.675781 -1.078125 11.40625 -1.546875 C 12.144531 -2.023438 12.851562 -2.71875 13.53125 -3.625 C 14.21875 -4.53125 14.816406 -5.628906 15.328125 -6.921875 C 15.835938 -8.210938 16.1875 -9.671875 16.375 -11.296875 C 16.625 -13.472656 16.625 -15.304688 16.375 -16.796875 C 16.132812 -18.285156 15.726562 -19.441406 15.15625 -20.265625 C 14.582031 -21.085938 13.925781 -21.585938 13.1875 -21.765625 C 12.925781 -21.828125 12.644531 -21.859375 12.34375 -21.859375 C 11.519531 -21.859375 10.769531 -21.597656 10.09375 -21.078125 C 9.425781 -20.566406 8.847656 -19.847656 8.359375 -18.921875 C 7.878906 -18.003906 7.503906 -16.945312 7.234375 -15.75 C 6.972656 -14.5625 6.84375 -13.296875 6.84375 -11.953125 Z M 6.84375 -4.796875 "/></g></g></g><g fill="#3f5743" fill-opacity="1"><g transform="translate(91.594227, 280.730665)"><g><path d="M 8 0 L 0.765625 0 C 1.160156 -1.738281 1.453125 -3.570312 1.640625 -5.5 C 1.835938 -7.4375 1.9375 -9.390625 1.9375 -11.359375 C 1.9375 -13.335938 1.835938 -15.289062 1.640625 -17.21875 C 1.453125 -19.15625 1.160156 -20.992188 0.765625 -22.734375 L 8 -22.734375 C 7.625 -20.992188 7.335938 -19.15625 7.140625 -17.21875 C 6.941406 -15.289062 6.84375 -13.335938 6.84375 -11.359375 C 6.84375 -9.390625 6.941406 -7.4375 7.140625 -5.5 C 7.335938 -3.570312 7.625 -1.738281 8 0 Z M 8 0 "/></g></g></g><g fill="#3f5743" fill-opacity="1"><g transform="translate(102.291617, 280.730665)"><g><path d="M 12.140625 0.515625 C 10.453125 0.515625 8.910156 0.191406 7.515625 -0.453125 C 6.128906 -1.109375 4.929688 -1.976562 3.921875 -3.0625 C 2.910156 -4.15625 2.128906 -5.390625 1.578125 -6.765625 C 1.035156 -8.148438 0.765625 -9.566406 0.765625 -11.015625 C 0.765625 -12.648438 1.050781 -14.203125 1.625 -15.671875 C 2.195312 -17.140625 3.003906 -18.441406 4.046875 -19.578125 C 5.097656 -20.710938 6.347656 -21.609375 7.796875 -22.265625 C 9.253906 -22.921875 10.863281 -23.25 12.625 -23.25 C 13.1875 -23.25 13.648438 -23.234375 14.015625 -23.203125 C 14.390625 -23.179688 14.753906 -23.132812 15.109375 -23.0625 C 15.472656 -23 15.910156 -22.898438 16.421875 -22.765625 C 17.171875 -22.554688 17.972656 -22.453125 18.828125 -22.453125 C 19.472656 -22.453125 20.09375 -22.519531 20.6875 -22.65625 L 20.953125 -22.734375 C 20.421875 -20.210938 20.0625 -17.515625 19.875 -14.640625 C 19.632812 -16.410156 19.242188 -17.847656 18.703125 -18.953125 C 18.171875 -20.054688 17.550781 -20.867188 16.84375 -21.390625 C 16.132812 -21.910156 15.390625 -22.171875 14.609375 -22.171875 C 13.742188 -22.171875 12.878906 -21.878906 12.015625 -21.296875 C 11.160156 -20.722656 10.378906 -19.898438 9.671875 -18.828125 C 8.960938 -17.765625 8.394531 -16.503906 7.96875 -15.046875 C 7.539062 -13.597656 7.328125 -12 7.328125 -10.25 C 7.328125 -8.40625 7.507812 -6.851562 7.875 -5.59375 C 8.238281 -4.332031 8.726562 -3.316406 9.34375 -2.546875 C 9.957031 -1.785156 10.628906 -1.226562 11.359375 -0.875 C 12.097656 -0.53125 12.820312 -0.359375 13.53125 -0.359375 C 13.976562 -0.359375 14.390625 -0.410156 14.765625 -0.515625 C 15.191406 -1.429688 15.46875 -2.460938 15.59375 -3.609375 C 15.71875 -4.765625 15.691406 -5.90625 15.515625 -7.03125 C 15.335938 -8.164062 15.003906 -9.148438 14.515625 -9.984375 L 21.734375 -9.984375 C 21.347656 -9.316406 21.054688 -8.550781 20.859375 -7.6875 C 20.660156 -6.820312 20.5625 -5.925781 20.5625 -5 C 20.5625 -4.070312 20.660156 -3.171875 20.859375 -2.296875 C 21.054688 -1.429688 21.347656 -0.664062 21.734375 0 L 20.953125 -0.3125 C 20.316406 -0.550781 19.625 -0.671875 18.875 -0.671875 C 18.332031 -0.671875 17.804688 -0.597656 17.296875 -0.453125 L 16.046875 -0.078125 C 15.566406 0.078125 15.050781 0.210938 14.5 0.328125 C 13.957031 0.453125 13.171875 0.515625 12.140625 0.515625 Z M 12.140625 0.515625 "/></g></g></g><g fill="#3f5743" fill-opacity="1"><g transform="translate(126.552455, 280.730665)"><g><path d="M 8 0 L 0.765625 0 C 1.160156 -1.738281 1.453125 -3.570312 1.640625 -5.5 C 1.835938 -7.4375 1.9375 -9.390625 1.9375 -11.359375 C 1.9375 -13.335938 1.835938 -15.289062 1.640625 -17.21875 C 1.453125 -19.15625 1.160156 -20.992188 0.765625 -22.734375 L 8 -22.734375 C 7.625 -20.992188 7.335938 -19.15625 7.140625 -17.21875 C 6.941406 -15.289062 6.84375 -13.335938 6.84375 -11.359375 C 6.84375 -9.390625 6.941406 -7.4375 7.140625 -5.5 C 7.335938 -3.570312 7.625 -1.738281 8 0 Z M 8 0 "/></g></g></g><g fill="#3f5743" fill-opacity="1"><g transform="translate(137.249842, 280.730665)"><g><path d="M 0 -22.734375 L 20.71875 -22.734375 C 20.5 -21.742188 20.316406 -20.800781 20.171875 -19.90625 C 20.023438 -19.007812 19.90625 -18.078125 19.8125 -17.109375 C 19.726562 -16.140625 19.65625 -15.035156 19.59375 -13.796875 C 19.382812 -14.734375 19.140625 -15.675781 18.859375 -16.625 C 18.578125 -17.582031 18.21875 -18.460938 17.78125 -19.265625 C 17.351562 -20.078125 16.8125 -20.726562 16.15625 -21.21875 C 15.5 -21.71875 14.695312 -21.96875 13.75 -21.96875 C 13.46875 -20.570312 13.242188 -19.082031 13.078125 -17.5 C 12.910156 -15.925781 12.804688 -14.144531 12.765625 -12.15625 C 12.753906 -10.082031 12.84375 -8.015625 13.03125 -5.953125 C 13.21875 -3.890625 13.523438 -1.90625 13.953125 0 L 6.71875 0 C 7.144531 -1.875 7.460938 -3.835938 7.671875 -5.890625 C 7.890625 -7.953125 7.976562 -10.039062 7.9375 -12.15625 C 7.894531 -14.144531 7.789062 -15.925781 7.625 -17.5 C 7.457031 -19.082031 7.234375 -20.570312 6.953125 -21.96875 C 6.015625 -21.96875 5.222656 -21.71875 4.578125 -21.21875 C 3.929688 -20.726562 3.382812 -20.082031 2.9375 -19.28125 C 2.488281 -18.476562 2.117188 -17.597656 1.828125 -16.640625 C 1.546875 -15.691406 1.300781 -14.757812 1.09375 -13.84375 C 1.039062 -15.070312 0.96875 -16.171875 0.875 -17.140625 C 0.78125 -18.109375 0.664062 -19.035156 0.53125 -19.921875 C 0.394531 -20.804688 0.21875 -21.742188 0 -22.734375 Z M 0 -22.734375 "/></g></g></g><g fill="#3f5743" fill-opacity="1"><g transform="translate(159.901452, 280.730665)"><g><path d="M 0 0 C 0.507812 -0.675781 0.992188 -1.398438 1.453125 -2.171875 C 1.910156 -2.941406 2.375 -3.820312 2.84375 -4.8125 C 3.3125 -5.8125 3.832031 -6.988281 4.40625 -8.34375 C 4.976562 -9.695312 5.628906 -11.289062 6.359375 -13.125 L 10.25 -22.734375 L 14.71875 -23.25 C 14.71875 -22.988281 14.820312 -22.429688 15.03125 -21.578125 C 15.238281 -20.734375 15.535156 -19.675781 15.921875 -18.40625 C 16.304688 -17.132812 16.769531 -15.734375 17.3125 -14.203125 C 17.863281 -12.671875 18.472656 -11.070312 19.140625 -9.40625 C 19.816406 -7.75 20.539062 -6.113281 21.3125 -4.5 C 22.09375 -2.894531 22.90625 -1.394531 23.75 0 L 14.640625 0 C 14.910156 -0.90625 14.984375 -2.03125 14.859375 -3.375 C 14.742188 -4.71875 14.5 -6.128906 14.125 -7.609375 L 5.34375 -7.609375 C 4.96875 -5.828125 4.953125 -4.335938 5.296875 -3.140625 C 5.648438 -1.953125 6.394531 -0.90625 7.53125 0 Z M 5.515625 -8.40625 L 13.921875 -8.40625 C 13.546875 -9.769531 13.101562 -11.101562 12.59375 -12.40625 C 12.082031 -13.71875 11.550781 -14.921875 11 -16.015625 C 10.445312 -17.109375 9.894531 -17.992188 9.34375 -18.671875 L 7.234375 -13.390625 C 6.859375 -12.429688 6.523438 -11.535156 6.234375 -10.703125 C 5.941406 -9.878906 5.703125 -9.113281 5.515625 -8.40625 Z M 5.515625 -8.40625 "/></g></g></g><g fill="#3f5743" fill-opacity="1"><g transform="translate(184.877494, 280.730665)"><g><path d="M 0.765625 -22.734375 L 8 -22.734375 C 7.5 -20.472656 7.160156 -18.085938 6.984375 -15.578125 C 6.804688 -13.078125 6.789062 -10.566406 6.9375 -8.046875 C 7.082031 -5.523438 7.382812 -3.097656 7.84375 -0.765625 L 8.421875 -0.765625 C 9.078125 -0.765625 9.8125 -0.941406 10.625 -1.296875 C 11.445312 -1.660156 12.257812 -2.164062 13.0625 -2.8125 C 13.875 -3.457031 14.597656 -4.203125 15.234375 -5.046875 C 15.867188 -5.898438 16.34375 -6.820312 16.65625 -7.8125 C 16.71875 -6.945312 16.78125 -6.195312 16.84375 -5.5625 C 16.90625 -4.9375 16.976562 -4.347656 17.0625 -3.796875 C 17.144531 -3.253906 17.238281 -2.6875 17.34375 -2.09375 C 17.445312 -1.5 17.578125 -0.800781 17.734375 0 L 0.765625 0 C 1.160156 -1.738281 1.453125 -3.570312 1.640625 -5.5 C 1.835938 -7.4375 1.9375 -9.390625 1.9375 -11.359375 C 1.9375 -13.335938 1.835938 -15.289062 1.640625 -17.21875 C 1.453125 -19.15625 1.160156 -20.992188 0.765625 -22.734375 Z M 0.765625 -22.734375 "/></g></g></g><g fill="#3f5743" fill-opacity="1"><g transform="translate(204.387289, 280.730665)"><g/></g></g><g fill="#3f5743" fill-opacity="1"><g transform="translate(212.96459, 280.730665)"><g><path d="M -1.28125 -22.734375 L 7.8125 -22.734375 C 7.726562 -21.628906 7.828125 -20.484375 8.109375 -19.296875 C 8.390625 -18.109375 8.773438 -16.9375 9.265625 -15.78125 C 9.765625 -14.625 10.296875 -13.515625 10.859375 -12.453125 C 11.421875 -11.398438 11.945312 -10.453125 12.4375 -9.609375 C 13 -10.878906 13.476562 -12.140625 13.875 -13.390625 C 14.28125 -14.648438 14.566406 -15.859375 14.734375 -17.015625 C 14.910156 -18.171875 14.925781 -19.234375 14.78125 -20.203125 C 14.644531 -21.171875 14.316406 -22.015625 13.796875 -22.734375 L 21.296875 -22.734375 C 20.453125 -22.015625 19.617188 -21.09375 18.796875 -19.96875 C 17.984375 -18.84375 17.207031 -17.617188 16.46875 -16.296875 C 15.738281 -14.984375 15.070312 -13.65625 14.46875 -12.3125 C 13.863281 -10.976562 13.34375 -9.734375 12.90625 -8.578125 C 12.9375 -7.503906 13 -6.507812 13.09375 -5.59375 C 13.1875 -4.675781 13.3125 -3.769531 13.46875 -2.875 C 13.632812 -1.976562 13.828125 -1.019531 14.046875 0 L 6.8125 0 C 7 -0.863281 7.164062 -1.664062 7.3125 -2.40625 C 7.457031 -3.15625 7.582031 -3.90625 7.6875 -4.65625 C 7.789062 -5.414062 7.859375 -6.25 7.890625 -7.15625 C 7.753906 -7.675781 7.484375 -8.390625 7.078125 -9.296875 C 6.671875 -10.210938 6.179688 -11.222656 5.609375 -12.328125 C 5.035156 -13.441406 4.425781 -14.5625 3.78125 -15.6875 C 3.132812 -16.820312 2.488281 -17.890625 1.84375 -18.890625 C 1.207031 -19.890625 0.617188 -20.734375 0.078125 -21.421875 C -0.460938 -22.109375 -0.914062 -22.546875 -1.28125 -22.734375 Z M -1.28125 -22.734375 "/></g></g></g><g fill="#3f5743" fill-opacity="1"><g transform="translate(234.926533, 280.730665)"><g><path d="M 0 0 C 0.507812 -0.675781 0.992188 -1.398438 1.453125 -2.171875 C 1.910156 -2.941406 2.375 -3.820312 2.84375 -4.8125 C 3.3125 -5.8125 3.832031 -6.988281 4.40625 -8.34375 C 4.976562 -9.695312 5.628906 -11.289062 6.359375 -13.125 L 10.25 -22.734375 L 14.71875 -23.25 C 14.71875 -22.988281 14.820312 -22.429688 15.03125 -21.578125 C 15.238281 -20.734375 15.535156 -19.675781 15.921875 -18.40625 C 16.304688 -17.132812 16.769531 -15.734375 17.3125 -14.203125 C 17.863281 -12.671875 18.472656 -11.070312 19.140625 -9.40625 C 19.816406 -7.75 20.539062 -6.113281 21.3125 -4.5 C 22.09375 -2.894531 22.90625 -1.394531 23.75 0 L 14.640625 0 C 14.910156 -0.90625 14.984375 -2.03125 14.859375 -3.375 C 14.742188 -4.71875 14.5 -6.128906 14.125 -7.609375 L 5.34375 -7.609375 C 4.96875 -5.828125 4.953125 -4.335938 5.296875 -3.140625 C 5.648438 -1.953125 6.394531 -0.90625 7.53125 0 Z M 5.515625 -8.40625 L 13.921875 -8.40625 C 13.546875 -9.769531 13.101562 -11.101562 12.59375 -12.40625 C 12.082031 -13.71875 11.550781 -14.921875 11 -16.015625 C 10.445312 -17.109375 9.894531 -17.992188 9.34375 -18.671875 L 7.234375 -13.390625 C 6.859375 -12.429688 6.523438 -11.535156 6.234375 -10.703125 C 5.941406 -9.878906 5.703125 -9.113281 5.515625 -8.40625 Z M 5.515625 -8.40625 "/></g></g></g><g fill="#3f5743" fill-opacity="1"><g transform="translate(259.902587, 280.730665)"><g><path d="M 0 -22.734375 L 20.71875 -22.734375 C 20.5 -21.742188 20.316406 -20.800781 20.171875 -19.90625 C 20.023438 -19.007812 19.90625 -18.078125 19.8125 -17.109375 C 19.726562 -16.140625 19.65625 -15.035156 19.59375 -13.796875 C 19.382812 -14.734375 19.140625 -15.675781 18.859375 -16.625 C 18.578125 -17.582031 18.21875 -18.460938 17.78125 -19.265625 C 17.351562 -20.078125 16.8125 -20.726562 16.15625 -21.21875 C 15.5 -21.71875 14.695312 -21.96875 13.75 -21.96875 C 13.46875 -20.570312 13.242188 -19.082031 13.078125 -17.5 C 12.910156 -15.925781 12.804688 -14.144531 12.765625 -12.15625 C 12.753906 -10.082031 12.84375 -8.015625 13.03125 -5.953125 C 13.21875 -3.890625 13.523438 -1.90625 13.953125 0 L 6.71875 0 C 7.144531 -1.875 7.460938 -3.835938 7.671875 -5.890625 C 7.890625 -7.953125 7.976562 -10.039062 7.9375 -12.15625 C 7.894531 -14.144531 7.789062 -15.925781 7.625 -17.5 C 7.457031 -19.082031 7.234375 -20.570312 6.953125 -21.96875 C 6.015625 -21.96875 5.222656 -21.71875 4.578125 -21.21875 C 3.929688 -20.726562 3.382812 -20.082031 2.9375 -19.28125 C 2.488281 -18.476562 2.117188 -17.597656 1.828125 -16.640625 C 1.546875 -15.691406 1.300781 -14.757812 1.09375 -13.84375 C 1.039062 -15.070312 0.96875 -16.171875 0.875 -17.140625 C 0.78125 -18.109375 0.664062 -19.035156 0.53125 -19.921875 C 0.394531 -20.804688 0.21875 -21.742188 0 -22.734375 Z M 0 -22.734375 "/></g></g></g><g fill="#3f5743" fill-opacity="1"><g transform="translate(282.554196, 280.730665)"><g><path d="M 8 0 L 0.765625 0 C 1.160156 -1.738281 1.453125 -3.570312 1.640625 -5.5 C 1.835938 -7.4375 1.9375 -9.390625 1.9375 -11.359375 C 1.9375 -13.335938 1.84375 -15.289062 1.65625 -17.21875 C 1.46875 -19.15625 1.179688 -20.992188 0.796875 -22.734375 L 9.890625 -22.734375 C 11.984375 -22.734375 13.753906 -22.484375 15.203125 -21.984375 C 16.660156 -21.492188 17.804688 -20.851562 18.640625 -20.0625 C 19.472656 -19.269531 20.003906 -18.40625 20.234375 -17.46875 C 20.472656 -16.53125 20.398438 -15.601562 20.015625 -14.6875 C 19.628906 -13.769531 18.953125 -12.9375 17.984375 -12.1875 C 17.015625 -11.445312 15.742188 -10.882812 14.171875 -10.5 C 14.671875 -9.5625 15.207031 -8.582031 15.78125 -7.5625 C 16.363281 -6.539062 16.96875 -5.546875 17.59375 -4.578125 C 18.226562 -3.617188 18.847656 -2.738281 19.453125 -1.9375 C 20.054688 -1.132812 20.613281 -0.488281 21.125 0 L 12.140625 0 C 12.203125 -0.78125 12.144531 -1.710938 11.96875 -2.796875 C 11.800781 -3.878906 11.503906 -5.039062 11.078125 -6.28125 C 10.660156 -7.519531 10.09375 -8.753906 9.375 -9.984375 L 6.875 -9.984375 C 6.882812 -8.796875 6.945312 -7.59375 7.0625 -6.375 C 7.175781 -5.15625 7.316406 -3.992188 7.484375 -2.890625 C 7.648438 -1.796875 7.820312 -0.832031 8 0 Z M 6.84375 -10.90625 L 9.296875 -10.90625 C 10.671875 -10.90625 11.800781 -11.195312 12.6875 -11.78125 C 13.570312 -12.375 14.1875 -13.175781 14.53125 -14.1875 C 14.875 -15.195312 14.914062 -16.332031 14.65625 -17.59375 C 14.519531 -18.238281 14.296875 -18.890625 13.984375 -19.546875 C 13.671875 -20.203125 13.253906 -20.75 12.734375 -21.1875 C 12.210938 -21.632812 11.570312 -21.859375 10.8125 -21.859375 C 10.007812 -21.859375 9.351562 -21.539062 8.84375 -20.90625 C 8.332031 -20.28125 7.929688 -19.441406 7.640625 -18.390625 C 7.347656 -17.335938 7.140625 -16.160156 7.015625 -14.859375 C 6.898438 -13.566406 6.84375 -12.25 6.84375 -10.90625 Z M 6.84375 -10.90625 "/></g></g></g><g fill="#3f5743" fill-opacity="1"><g transform="translate(305.461238, 280.730665)"><g><path d="M 8 0 L 0.765625 0 C 1.160156 -1.738281 1.453125 -3.570312 1.640625 -5.5 C 1.835938 -7.4375 1.9375 -9.390625 1.9375 -11.359375 C 1.9375 -13.335938 1.835938 -15.289062 1.640625 -17.21875 C 1.453125 -19.15625 1.160156 -20.992188 0.765625 -22.734375 L 8 -22.734375 C 7.625 -20.992188 7.335938 -19.15625 7.140625 -17.21875 C 6.941406 -15.289062 6.84375 -13.335938 6.84375 -11.359375 C 6.84375 -9.390625 6.941406 -7.4375 7.140625 -5.5 C 7.335938 -3.570312 7.625 -1.738281 8 0 Z M 8 0 "/></g></g></g><g fill="#6c5d37" fill-opacity="1"><g transform="translate(45.057877, 306.744676)"><g><path d="M 8.234375 -7.796875 L 8.234375 0 L 6.53125 0 L 6.53125 -7.796875 L 0.25 -16.546875 L 2.4375 -16.546875 L 7.375 -9.46875 L 12.3125 -16.546875 L 14.484375 -16.546875 Z M 8.234375 -7.796875 "/></g></g></g><g fill="#6c5d37" fill-opacity="1"><g transform="translate(59.775784, 306.744676)"><g><path d="M 10.59375 -5.40625 C 10.59375 -6.476562 10.210938 -7.394531 9.453125 -8.15625 C 8.679688 -8.914062 7.757812 -9.296875 6.6875 -9.296875 C 5.625 -9.296875 4.707031 -8.914062 3.9375 -8.15625 C 3.175781 -7.394531 2.796875 -6.476562 2.796875 -5.40625 C 2.796875 -4.351562 3.175781 -3.441406 3.9375 -2.671875 C 4.707031 -1.910156 5.625 -1.53125 6.6875 -1.53125 C 7.757812 -1.53125 8.679688 -1.910156 9.453125 -2.671875 C 10.210938 -3.441406 10.59375 -4.351562 10.59375 -5.40625 Z M 12.296875 -5.40625 C 12.296875 -3.84375 11.75 -2.523438 10.65625 -1.453125 C 9.539062 -0.367188 8.21875 0.171875 6.6875 0.171875 C 5.164062 0.171875 3.851562 -0.367188 2.75 -1.453125 C 1.644531 -2.523438 1.09375 -3.84375 1.09375 -5.40625 C 1.09375 -6.945312 1.644531 -8.269531 2.75 -9.375 C 3.832031 -10.457031 5.144531 -11 6.6875 -11 C 8.226562 -11 9.550781 -10.457031 10.65625 -9.375 C 11.75 -8.269531 12.296875 -6.945312 12.296875 -5.40625 Z M 12.296875 -5.40625 "/></g></g></g><g fill="#6c5d37" fill-opacity="1"><g transform="translate(73.155706, 306.744676)"><g><path d="M 9.21875 -1.828125 C 8.425781 -0.460938 7.234375 0.21875 5.640625 0.21875 C 4.441406 0.21875 3.503906 -0.175781 2.828125 -0.96875 C 2.160156 -1.769531 1.828125 -2.785156 1.828125 -4.015625 L 1.828125 -10.71875 L 3.53125 -10.71875 L 3.53125 -4.015625 C 3.53125 -3.316406 3.691406 -2.722656 4.015625 -2.234375 C 4.328125 -1.734375 4.847656 -1.484375 5.578125 -1.484375 C 6.910156 -1.484375 7.851562 -1.90625 8.40625 -2.75 C 8.945312 -3.582031 9.21875 -4.742188 9.21875 -6.234375 L 9.21875 -10.71875 L 10.9375 -10.71875 L 10.9375 0 L 9.21875 0 Z M 9.21875 -1.828125 "/></g></g></g><g fill="#6c5d37" fill-opacity="1"><g transform="translate(85.538216, 306.744676)"><g><path d="M 7.328125 -8.5 C 6.941406 -8.851562 6.519531 -9.03125 6.0625 -9.03125 C 5.625 -9.03125 5.25 -8.910156 4.9375 -8.671875 C 4.613281 -8.410156 4.347656 -8.097656 4.140625 -7.734375 C 3.734375 -7.023438 3.53125 -6.234375 3.53125 -5.359375 L 3.53125 0 L 1.828125 0 L 1.828125 -10.71875 L 3.53125 -10.71875 L 3.53125 -8.5 L 3.609375 -8.9375 C 4.171875 -10.269531 5.050781 -10.9375 6.25 -10.9375 C 6.625 -10.9375 6.984375 -10.863281 7.328125 -10.71875 Z M 7.328125 -8.5 "/></g></g></g><g fill="#6c5d37" fill-opacity="1"><g transform="translate(93.103945, 306.744676)"><g/></g></g><g fill="#6c5d37" fill-opacity="1"><g transform="translate(99.672262, 306.744676)"><g><path d="M 18.15625 -7.734375 L 17.984375 -6.71875 C 17.628906 -4.707031 16.648438 -3.050781 15.046875 -1.75 C 13.441406 -0.457031 11.628906 0.1875 9.609375 0.1875 C 8.441406 0.1875 7.34375 -0.0351562 6.3125 -0.484375 C 5.269531 -0.921875 4.367188 -1.53125 3.609375 -2.3125 C 2.828125 -3.070312 2.21875 -3.972656 1.78125 -5.015625 C 1.320312 -6.054688 1.09375 -7.164062 1.09375 -8.34375 C 1.09375 -9.519531 1.320312 -10.625 1.78125 -11.65625 C 2.21875 -12.695312 2.828125 -13.609375 3.609375 -14.390625 C 4.367188 -15.148438 5.269531 -15.757812 6.3125 -16.21875 C 7.34375 -16.65625 8.390625 -16.875 9.453125 -16.875 C 11.429688 -16.875 13.171875 -16.3125 14.671875 -15.1875 C 16.203125 -14.070312 17.242188 -12.597656 17.796875 -10.765625 L 16 -10.765625 C 15.476562 -12.109375 14.640625 -13.175781 13.484375 -13.96875 C 12.316406 -14.769531 11.023438 -15.171875 9.609375 -15.171875 C 7.734375 -15.171875 6.128906 -14.503906 4.796875 -13.171875 C 3.460938 -11.835938 2.796875 -10.226562 2.796875 -8.34375 C 2.796875 -6.476562 3.460938 -4.875 4.796875 -3.53125 C 6.109375 -2.1875 7.710938 -1.515625 9.609375 -1.515625 C 11.109375 -1.515625 12.472656 -1.941406 13.703125 -2.796875 C 14.921875 -3.671875 15.773438 -4.820312 16.265625 -6.25 L 9.546875 -6.25 L 9.546875 -7.734375 Z M 18.15625 -7.734375 "/></g></g></g><g fill="#6c5d37" fill-opacity="1"><g transform="translate(118.91502, 306.744676)"><g><path d="M 9.21875 -1.828125 C 8.425781 -0.460938 7.234375 0.21875 5.640625 0.21875 C 4.441406 0.21875 3.503906 -0.175781 2.828125 -0.96875 C 2.160156 -1.769531 1.828125 -2.785156 1.828125 -4.015625 L 1.828125 -10.71875 L 3.53125 -10.71875 L 3.53125 -4.015625 C 3.53125 -3.316406 3.691406 -2.722656 4.015625 -2.234375 C 4.328125 -1.734375 4.847656 -1.484375 5.578125 -1.484375 C 6.910156 -1.484375 7.851562 -1.90625 8.40625 -2.75 C 8.945312 -3.582031 9.21875 -4.742188 9.21875 -6.234375 L 9.21875 -10.71875 L 10.9375 -10.71875 L 10.9375 0 L 9.21875 0 Z M 9.21875 -1.828125 "/></g></g></g><g fill="#6c5d37" fill-opacity="1"><g transform="translate(131.29753, 306.744676)"><g><path d="M 3.546875 -14.40625 C 3.765625 -14.195312 3.875 -13.945312 3.875 -13.65625 C 3.875 -13.34375 3.765625 -13.082031 3.546875 -12.875 C 3.335938 -12.664062 3.085938 -12.5625 2.796875 -12.5625 C 2.492188 -12.5625 2.234375 -12.664062 2.015625 -12.875 C 1.804688 -13.082031 1.703125 -13.34375 1.703125 -13.65625 C 1.703125 -13.945312 1.804688 -14.195312 2.015625 -14.40625 C 2.234375 -14.625 2.492188 -14.734375 2.796875 -14.734375 C 3.085938 -14.734375 3.335938 -14.625 3.546875 -14.40625 Z M 3.65625 0 L 1.953125 0 L 1.953125 -10.71875 L 3.65625 -10.71875 Z M 3.65625 0 "/></g></g></g><g fill="#6c5d37" fill-opacity="1"><g transform="translate(136.868435, 306.744676)"><g><path d="M 10.34375 -5.359375 C 10.34375 -6.390625 9.988281 -7.296875 9.28125 -8.078125 C 8.539062 -8.859375 7.640625 -9.25 6.578125 -9.25 C 5.503906 -9.25 4.609375 -8.859375 3.890625 -8.078125 C 3.160156 -7.296875 2.796875 -6.390625 2.796875 -5.359375 C 2.796875 -4.316406 3.160156 -3.40625 3.890625 -2.625 C 4.609375 -1.84375 5.503906 -1.453125 6.578125 -1.453125 C 7.640625 -1.453125 8.539062 -1.84375 9.28125 -2.625 C 9.988281 -3.40625 10.34375 -4.316406 10.34375 -5.359375 Z M 12.046875 0 L 10.34375 0 L 10.34375 -1.828125 C 10.25 -1.691406 10.148438 -1.566406 10.046875 -1.453125 C 9.023438 -0.316406 7.78125 0.25 6.3125 0.25 C 4.832031 0.25 3.585938 -0.316406 2.578125 -1.453125 C 1.585938 -2.554688 1.09375 -3.859375 1.09375 -5.359375 C 1.09375 -6.847656 1.585938 -8.144531 2.578125 -9.25 C 3.585938 -10.382812 4.832031 -10.953125 6.3125 -10.953125 C 7.78125 -10.953125 9.023438 -10.382812 10.046875 -9.25 C 10.148438 -9.132812 10.25 -9.015625 10.34375 -8.890625 L 10.34375 -18.25 L 12.046875 -18.25 Z M 12.046875 0 "/></g></g></g><g fill="#6c5d37" fill-opacity="1"><g transform="translate(150.734902, 306.744676)"><g><path d="M 12.296875 -5.59375 L 12.296875 -4.703125 L 2.875 -4.703125 C 3.03125 -3.773438 3.476562 -3.019531 4.21875 -2.4375 C 4.957031 -1.832031 5.78125 -1.53125 6.6875 -1.53125 C 7.3125 -1.53125 7.90625 -1.675781 8.46875 -1.96875 C 9.019531 -2.25 9.484375 -2.640625 9.859375 -3.140625 L 11.8125 -3.140625 C 11.351562 -2.117188 10.671875 -1.316406 9.765625 -0.734375 C 8.835938 -0.128906 7.90625 0.171875 6.96875 0.171875 C 6.007812 0.171875 5.195312 0.0234375 4.53125 -0.265625 C 3.84375 -0.554688 3.25 -0.953125 2.75 -1.453125 C 1.644531 -2.523438 1.09375 -3.84375 1.09375 -5.40625 C 1.09375 -6.945312 1.644531 -8.269531 2.75 -9.375 C 3.832031 -10.457031 5.144531 -11 6.6875 -11 C 8.1875 -11 9.492188 -10.472656 10.609375 -9.421875 C 11.734375 -8.347656 12.296875 -7.070312 12.296875 -5.59375 Z M 10.484375 -6.15625 C 10.296875 -7.0625 9.84375 -7.816406 9.125 -8.421875 C 8.414062 -9.003906 7.601562 -9.296875 6.6875 -9.296875 C 5.289062 -9.296875 4.195312 -8.671875 3.40625 -7.421875 C 3.164062 -7.035156 2.992188 -6.613281 2.890625 -6.15625 Z M 10.484375 -6.15625 "/></g></g></g><g fill="#6c5d37" fill-opacity="1"><g transform="translate(163.993188, 306.744676)"><g/></g></g><g fill="#6c5d37" fill-opacity="1"><g transform="translate(170.561505, 306.744676)"><g><path d="M 0.484375 -9.125 L 0.484375 -10.71875 L 3.171875 -10.71875 L 3.171875 -14.875 L 4.875 -14.875 L 4.875 -10.71875 L 7.515625 -10.71875 L 7.515625 -9.125 L 4.875 -9.125 L 4.875 0 L 3.171875 0 L 3.171875 -9.125 Z M 0.484375 -9.125 "/></g></g></g><g fill="#6c5d37" fill-opacity="1"><g transform="translate(178.565137, 306.744676)"><g><path d="M 10.59375 -5.40625 C 10.59375 -6.476562 10.210938 -7.394531 9.453125 -8.15625 C 8.679688 -8.914062 7.757812 -9.296875 6.6875 -9.296875 C 5.625 -9.296875 4.707031 -8.914062 3.9375 -8.15625 C 3.175781 -7.394531 2.796875 -6.476562 2.796875 -5.40625 C 2.796875 -4.351562 3.175781 -3.441406 3.9375 -2.671875 C 4.707031 -1.910156 5.625 -1.53125 6.6875 -1.53125 C 7.757812 -1.53125 8.679688 -1.910156 9.453125 -2.671875 C 10.210938 -3.441406 10.59375 -4.351562 10.59375 -5.40625 Z M 12.296875 -5.40625 C 12.296875 -3.84375 11.75 -2.523438 10.65625 -1.453125 C 9.539062 -0.367188 8.21875 0.171875 6.6875 0.171875 C 5.164062 0.171875 3.851562 -0.367188 2.75 -1.453125 C 1.644531 -2.523438 1.09375 -3.84375 1.09375 -5.40625 C 1.09375 -6.945312 1.644531 -8.269531 2.75 -9.375 C 3.832031 -10.457031 5.144531 -11 6.6875 -11 C 8.226562 -11 9.550781 -10.457031 10.65625 -9.375 C 11.75 -8.269531 12.296875 -6.945312 12.296875 -5.40625 Z M 12.296875 -5.40625 "/></g></g></g><g fill="#6c5d37" fill-opacity="1"><g transform="translate(191.94506, 306.744676)"><g/></g></g><g fill="#6c5d37" fill-opacity="1"><g transform="translate(198.513377, 306.744676)"><g><path d="M 0.484375 -9.125 L 0.484375 -10.71875 L 3.171875 -10.71875 L 3.171875 -14.875 L 4.875 -14.875 L 4.875 -10.71875 L 7.515625 -10.71875 L 7.515625 -9.125 L 4.875 -9.125 L 4.875 0 L 3.171875 0 L 3.171875 -9.125 Z M 0.484375 -9.125 "/></g></g></g><g fill="#6c5d37" fill-opacity="1"><g transform="translate(206.517009, 306.744676)"><g><path d="M 3.53125 0 L 1.828125 0 L 1.828125 -18.25 L 3.53125 -18.25 L 3.53125 -8.859375 C 3.882812 -9.460938 4.335938 -9.957031 4.890625 -10.34375 C 5.472656 -10.738281 6.144531 -10.9375 6.90625 -10.9375 C 7.675781 -10.9375 8.296875 -10.828125 8.765625 -10.609375 C 9.234375 -10.378906 9.628906 -10.082031 9.953125 -9.71875 C 10.609375 -8.945312 10.9375 -7.9375 10.9375 -6.6875 L 10.9375 0 L 9.21875 0 L 9.21875 -6.6875 C 9.21875 -7.382812 9.066406 -7.988281 8.765625 -8.5 C 8.441406 -8.976562 7.914062 -9.21875 7.1875 -9.21875 C 6.445312 -9.21875 5.851562 -9.109375 5.40625 -8.890625 C 4.945312 -8.640625 4.582031 -8.304688 4.3125 -7.890625 C 3.789062 -7.109375 3.53125 -5.972656 3.53125 -4.484375 Z M 3.53125 0 "/></g></g></g><g fill="#6c5d37" fill-opacity="1"><g transform="translate(218.899519, 306.744676)"><g><path d="M 12.296875 -5.59375 L 12.296875 -4.703125 L 2.875 -4.703125 C 3.03125 -3.773438 3.476562 -3.019531 4.21875 -2.4375 C 4.957031 -1.832031 5.78125 -1.53125 6.6875 -1.53125 C 7.3125 -1.53125 7.90625 -1.675781 8.46875 -1.96875 C 9.019531 -2.25 9.484375 -2.640625 9.859375 -3.140625 L 11.8125 -3.140625 C 11.351562 -2.117188 10.671875 -1.316406 9.765625 -0.734375 C 8.835938 -0.128906 7.90625 0.171875 6.96875 0.171875 C 6.007812 0.171875 5.195312 0.0234375 4.53125 -0.265625 C 3.84375 -0.554688 3.25 -0.953125 2.75 -1.453125 C 1.644531 -2.523438 1.09375 -3.84375 1.09375 -5.40625 C 1.09375 -6.945312 1.644531 -8.269531 2.75 -9.375 C 3.832031 -10.457031 5.144531 -11 6.6875 -11 C 8.1875 -11 9.492188 -10.472656 10.609375 -9.421875 C 11.734375 -8.347656 12.296875 -7.070312 12.296875 -5.59375 Z M 10.484375 -6.15625 C 10.296875 -7.0625 9.84375 -7.816406 9.125 -8.421875 C 8.414062 -9.003906 7.601562 -9.296875 6.6875 -9.296875 C 5.289062 -9.296875 4.195312 -8.671875 3.40625 -7.421875 C 3.164062 -7.035156 2.992188 -6.613281 2.890625 -6.15625 Z M 10.484375 -6.15625 "/></g></g></g><g fill="#6c5d37" fill-opacity="1"><g transform="translate(232.157805, 306.744676)"><g/></g></g><g fill="#6c5d37" fill-opacity="1"><g transform="translate(238.726122, 306.744676)"><g><path d="M 16.40625 -8.328125 C 16.40625 -10.191406 15.738281 -11.789062 14.40625 -13.125 C 13.082031 -14.457031 11.476562 -15.125 9.59375 -15.125 C 7.726562 -15.125 6.128906 -14.457031 4.796875 -13.125 C 3.460938 -11.789062 2.796875 -10.191406 2.796875 -8.328125 C 2.796875 -6.441406 3.460938 -4.832031 4.796875 -3.5 C 6.128906 -2.175781 7.726562 -1.515625 9.59375 -1.515625 C 11.476562 -1.515625 13.082031 -2.175781 14.40625 -3.5 C 15.738281 -4.832031 16.40625 -6.441406 16.40625 -8.328125 Z M 18.109375 -8.328125 C 18.109375 -7.160156 17.890625 -6.054688 17.453125 -5.015625 C 16.992188 -3.972656 16.382812 -3.070312 15.625 -2.3125 C 14.84375 -1.53125 13.9375 -0.921875 12.90625 -0.484375 C 11.863281 -0.0351562 10.757812 0.1875 9.59375 0.1875 C 8.425781 0.1875 7.332031 -0.0351562 6.3125 -0.484375 C 5.269531 -0.921875 4.367188 -1.53125 3.609375 -2.3125 C 2.828125 -3.070312 2.21875 -3.972656 1.78125 -5.015625 C 1.320312 -6.054688 1.09375 -7.160156 1.09375 -8.328125 C 1.09375 -9.492188 1.320312 -10.597656 1.78125 -11.640625 C 2.21875 -12.671875 2.828125 -13.570312 3.609375 -14.34375 C 4.367188 -15.101562 5.269531 -15.710938 6.3125 -16.171875 C 7.332031 -16.609375 8.425781 -16.828125 9.59375 -16.828125 C 10.757812 -16.828125 11.863281 -16.609375 12.90625 -16.171875 C 13.9375 -15.710938 14.84375 -15.101562 15.625 -14.34375 C 16.382812 -13.570312 16.992188 -12.671875 17.453125 -11.640625 C 17.890625 -10.597656 18.109375 -9.492188 18.109375 -8.328125 Z M 18.109375 -8.328125 "/></g></g></g><g fill="#6c5d37" fill-opacity="1"><g transform="translate(257.920221, 306.744676)"><g><path d="M 9.21875 -1.828125 C 8.425781 -0.460938 7.234375 0.21875 5.640625 0.21875 C 4.441406 0.21875 3.503906 -0.175781 2.828125 -0.96875 C 2.160156 -1.769531 1.828125 -2.785156 1.828125 -4.015625 L 1.828125 -10.71875 L 3.53125 -10.71875 L 3.53125 -4.015625 C 3.53125 -3.316406 3.691406 -2.722656 4.015625 -2.234375 C 4.328125 -1.734375 4.847656 -1.484375 5.578125 -1.484375 C 6.910156 -1.484375 7.851562 -1.90625 8.40625 -2.75 C 8.945312 -3.582031 9.21875 -4.742188 9.21875 -6.234375 L 9.21875 -10.71875 L 10.9375 -10.71875 L 10.9375 0 L 9.21875 0 Z M 9.21875 -1.828125 "/></g></g></g><g fill="#6c5d37" fill-opacity="1"><g transform="translate(270.302732, 306.744676)"><g><path d="M 0.484375 -9.125 L 0.484375 -10.71875 L 3.171875 -10.71875 L 3.171875 -14.875 L 4.875 -14.875 L 4.875 -10.71875 L 7.515625 -10.71875 L 7.515625 -9.125 L 4.875 -9.125 L 4.875 0 L 3.171875 0 L 3.171875 -9.125 Z M 0.484375 -9.125 "/></g></g></g><g fill="#6c5d37" fill-opacity="1"><g transform="translate(278.306364, 306.744676)"><g><path d="M 10.34375 -5.359375 C 10.34375 -6.390625 9.988281 -7.296875 9.28125 -8.078125 C 8.539062 -8.859375 7.640625 -9.25 6.578125 -9.25 C 5.503906 -9.25 4.609375 -8.859375 3.890625 -8.078125 C 3.160156 -7.296875 2.796875 -6.390625 2.796875 -5.359375 C 2.796875 -4.316406 3.160156 -3.40625 3.890625 -2.625 C 4.609375 -1.84375 5.503906 -1.453125 6.578125 -1.453125 C 7.640625 -1.453125 8.539062 -1.84375 9.28125 -2.625 C 9.988281 -3.40625 10.34375 -4.316406 10.34375 -5.359375 Z M 12.046875 0 L 10.34375 0 L 10.34375 -1.828125 C 10.25 -1.691406 10.148438 -1.566406 10.046875 -1.453125 C 9.023438 -0.316406 7.78125 0.25 6.3125 0.25 C 4.832031 0.25 3.585938 -0.316406 2.578125 -1.453125 C 1.585938 -2.554688 1.09375 -3.859375 1.09375 -5.359375 C 1.09375 -6.847656 1.585938 -8.144531 2.578125 -9.25 C 3.585938 -10.382812 4.832031 -10.953125 6.3125 -10.953125 C 7.78125 -10.953125 9.023438 -10.382812 10.046875 -9.25 C 10.148438 -9.132812 10.25 -9.015625 10.34375 -8.890625 L 10.34375 -18.25 L 12.046875 -18.25 Z M 12.046875 0 "/></g></g></g><g fill="#6c5d37" fill-opacity="1"><g transform="translate(292.172832, 306.744676)"><g><path d="M 10.59375 -5.40625 C 10.59375 -6.476562 10.210938 -7.394531 9.453125 -8.15625 C 8.679688 -8.914062 7.757812 -9.296875 6.6875 -9.296875 C 5.625 -9.296875 4.707031 -8.914062 3.9375 -8.15625 C 3.175781 -7.394531 2.796875 -6.476562 2.796875 -5.40625 C 2.796875 -4.351562 3.175781 -3.441406 3.9375 -2.671875 C 4.707031 -1.910156 5.625 -1.53125 6.6875 -1.53125 C 7.757812 -1.53125 8.679688 -1.910156 9.453125 -2.671875 C 10.210938 -3.441406 10.59375 -4.351562 10.59375 -5.40625 Z M 12.296875 -5.40625 C 12.296875 -3.84375 11.75 -2.523438 10.65625 -1.453125 C 9.539062 -0.367188 8.21875 0.171875 6.6875 0.171875 C 5.164062 0.171875 3.851562 -0.367188 2.75 -1.453125 C 1.644531 -2.523438 1.09375 -3.84375 1.09375 -5.40625 C 1.09375 -6.945312 1.644531 -8.269531 2.75 -9.375 C 3.832031 -10.457031 5.144531 -11 6.6875 -11 C 8.226562 -11 9.550781 -10.457031 10.65625 -9.375 C 11.75 -8.269531 12.296875 -6.945312 12.296875 -5.40625 Z M 12.296875 -5.40625 "/></g></g></g><g fill="#6c5d37" fill-opacity="1"><g transform="translate(305.552754, 306.744676)"><g><path d="M 10.59375 -5.40625 C 10.59375 -6.476562 10.210938 -7.394531 9.453125 -8.15625 C 8.679688 -8.914062 7.757812 -9.296875 6.6875 -9.296875 C 5.625 -9.296875 4.707031 -8.914062 3.9375 -8.15625 C 3.175781 -7.394531 2.796875 -6.476562 2.796875 -5.40625 C 2.796875 -4.351562 3.175781 -3.441406 3.9375 -2.671875 C 4.707031 -1.910156 5.625 -1.53125 6.6875 -1.53125 C 7.757812 -1.53125 8.679688 -1.910156 9.453125 -2.671875 C 10.210938 -3.441406 10.59375 -4.351562 10.59375 -5.40625 Z M 12.296875 -5.40625 C 12.296875 -3.84375 11.75 -2.523438 10.65625 -1.453125 C 9.539062 -0.367188 8.21875 0.171875 6.6875 0.171875 C 5.164062 0.171875 3.851562 -0.367188 2.75 -1.453125 C 1.644531 -2.523438 1.09375 -3.84375 1.09375 -5.40625 C 1.09375 -6.945312 1.644531 -8.269531 2.75 -9.375 C 3.832031 -10.457031 5.144531 -11 6.6875 -11 C 8.226562 -11 9.550781 -10.457031 10.65625 -9.375 C 11.75 -8.269531 12.296875 -6.945312 12.296875 -5.40625 Z M 12.296875 -5.40625 "/></g></g></g><g fill="#6c5d37" fill-opacity="1"><g transform="translate(318.932676, 306.744676)"><g><path d="M 7.328125 -8.5 C 6.941406 -8.851562 6.519531 -9.03125 6.0625 -9.03125 C 5.625 -9.03125 5.25 -8.910156 4.9375 -8.671875 C 4.613281 -8.410156 4.347656 -8.097656 4.140625 -7.734375 C 3.734375 -7.023438 3.53125 -6.234375 3.53125 -5.359375 L 3.53125 0 L 1.828125 0 L 1.828125 -10.71875 L 3.53125 -10.71875 L 3.53125 -8.5 L 3.609375 -8.9375 C 4.171875 -10.269531 5.050781 -10.9375 6.25 -10.9375 C 6.625 -10.9375 6.984375 -10.863281 7.328125 -10.71875 Z M 7.328125 -8.5 "/></g></g></g><g fill="#6c5d37" fill-opacity="1"><g transform="translate(326.498421, 306.744676)"><g><path d="M 3.390625 -1.53125 C 3.804688 -1.238281 4.359375 -1.09375 5.046875 -1.09375 C 6.597656 -1.09375 7.375 -1.675781 7.375 -2.84375 C 7.375 -3.53125 6.816406 -4.050781 5.703125 -4.40625 C 5.222656 -4.570312 4.71875 -4.71875 4.1875 -4.84375 C 3.632812 -4.976562 3.125 -5.148438 2.65625 -5.359375 C 2.101562 -5.617188 1.6875 -5.941406 1.40625 -6.328125 C 1.132812 -6.710938 1 -7.175781 1 -7.71875 C 1 -8.789062 1.375 -9.59375 2.125 -10.125 C 2.863281 -10.675781 3.753906 -10.953125 4.796875 -10.953125 C 5.835938 -10.953125 6.695312 -10.742188 7.375 -10.328125 C 8.0625 -9.898438 8.523438 -9.144531 8.765625 -8.0625 L 6.9375 -8.0625 C 6.738281 -8.65625 6.453125 -9.050781 6.078125 -9.25 C 5.722656 -9.445312 5.28125 -9.546875 4.75 -9.546875 C 4.207031 -9.546875 3.753906 -9.429688 3.390625 -9.203125 C 2.992188 -8.960938 2.796875 -8.601562 2.796875 -8.125 C 2.796875 -7.644531 2.957031 -7.289062 3.28125 -7.0625 C 3.59375 -6.851562 3.984375 -6.664062 4.453125 -6.5 C 4.921875 -6.351562 5.429688 -6.222656 5.984375 -6.109375 C 6.523438 -5.984375 7.035156 -5.804688 7.515625 -5.578125 C 8.617188 -5.054688 9.171875 -4.21875 9.171875 -3.0625 C 9.171875 -1.914062 8.757812 -1.066406 7.9375 -0.515625 C 7.507812 -0.234375 7.046875 -0.0195312 6.546875 0.125 C 6.054688 0.25 5.519531 0.3125 4.9375 0.3125 C 2.457031 0.3125 1.03125 -0.789062 0.65625 -3 L 2.453125 -3 C 2.628906 -2.300781 2.941406 -1.8125 3.390625 -1.53125 Z M 3.390625 -1.53125 "/></g></g></g></svg>