<svg xmlns="http://www.w3.org/2000/svg" xmlns:xlink="http://www.w3.org/1999/xlink" width="171" zoomAndPan="magnify" viewBox="0 0 128.25 30.000001" height="40" preserveAspectRatio="xMidYMid meet" version="1.0"><defs><g/><clipPath id="44f9585093"><path d="M 1.707031 0 L 125.820312 0 L 125.820312 29.03125 L 1.707031 29.03125 Z M 1.707031 0 " clip-rule="nonzero"/></clipPath><clipPath id="ce8dafe7cf"><path d="M 4.609375 3.199219 L 27.242188 3.199219 L 27.242188 25.832031 L 4.609375 25.832031 Z M 4.609375 3.199219 " clip-rule="nonzero"/></clipPath><clipPath id="c6ad1ec892"><path d="M 15.925781 3.199219 C 9.675781 3.199219 4.609375 8.265625 4.609375 14.515625 C 4.609375 20.765625 9.675781 25.832031 15.925781 25.832031 C 22.175781 25.832031 27.242188 20.765625 27.242188 14.515625 C 27.242188 8.265625 22.175781 3.199219 15.925781 3.199219 Z M 15.925781 3.199219 " clip-rule="nonzero"/></clipPath><clipPath id="6395df07de"><path d="M 7.144531 7.714844 L 18.753906 7.714844 L 18.753906 24.410156 L 7.144531 24.410156 Z M 7.144531 7.714844 " clip-rule="nonzero"/></clipPath><clipPath id="ff29ffed11"><path d="M 13.359375 12.496094 L 31.503906 12.496094 L 31.503906 21.203125 L 13.359375 21.203125 Z M 13.359375 12.496094 " clip-rule="nonzero"/></clipPath></defs><g clip-path="url(#44f9585093)"><path fill="#ffffff" d="M 1.707031 0 L 125.820312 0 L 125.820312 29.03125 L 1.707031 29.03125 Z M 1.707031 0 " fill-opacity="1" fill-rule="nonzero"/><path fill="#ffffff" d="M 1.707031 0 L 125.820312 0 L 125.820312 29.03125 L 1.707031 29.03125 Z M 1.707031 0 " fill-opacity="1" fill-rule="nonzero"/></g><g clip-path="url(#ce8dafe7cf)"><g clip-path="url(#c6ad1ec892)"><path fill="#000000" d="M 4.609375 3.199219 L 27.242188 3.199219 L 27.242188 25.832031 L 4.609375 25.832031 Z M 4.609375 3.199219 " fill-opacity="1" fill-rule="nonzero"/></g></g><g clip-path="url(#6395df07de)"><path fill="#ffffff" d="M 9.421875 24.066406 C 9.910156 23.964844 10.371094 23.878906 10.441406 23.878906 C 10.511719 23.875 10.628906 23.847656 10.703125 23.816406 C 10.863281 23.75 10.976562 23.789062 11.140625 23.96875 C 11.261719 24.097656 11.410156 24.097656 11.867188 23.980469 C 12.117188 23.914062 12.253906 23.898438 12.375 23.917969 C 12.648438 23.96875 12.945312 23.980469 13.03125 23.949219 C 13.078125 23.929688 13.132812 23.855469 13.160156 23.769531 C 13.1875 23.691406 13.285156 23.46875 13.382812 23.277344 C 13.675781 22.6875 13.851562 22.453125 13.722656 22.828125 C 13.6875 22.917969 13.664062 23.101562 13.664062 23.230469 C 13.664062 23.570312 13.738281 23.671875 14.09375 23.8125 C 14.25 23.875 14.480469 23.996094 14.605469 24.078125 C 14.871094 24.257812 14.894531 24.257812 15.367188 24.050781 C 15.960938 23.792969 16.15625 23.730469 16.527344 23.660156 C 16.730469 23.625 16.925781 23.578125 16.964844 23.558594 C 17.0625 23.507812 17.046875 23.378906 16.894531 22.890625 C 16.796875 22.570312 16.722656 22.414062 16.625 22.296875 C 16.496094 22.148438 16.390625 21.945312 16.425781 21.910156 C 16.433594 21.902344 16.460938 21.945312 16.480469 22.003906 C 16.5 22.0625 16.625 22.234375 16.757812 22.382812 C 16.984375 22.644531 17.136719 22.914062 17.308594 23.347656 C 17.488281 23.808594 17.542969 23.894531 17.691406 23.90625 C 17.824219 23.917969 18.46875 23.71875 18.570312 23.632812 C 18.640625 23.578125 18.628906 23.433594 18.523438 22.960938 C 18.386719 22.355469 18.28125 22.03125 18.183594 21.921875 C 18.0625 21.789062 17.140625 21.125 17.074219 21.125 C 17.015625 21.125 16.757812 21.320312 16.523438 21.542969 C 16.355469 21.699219 16.300781 21.65625 16.429688 21.46875 C 16.535156 21.308594 16.914062 20.484375 16.914062 20.410156 C 16.914062 20.351562 16.449219 19.945312 16.308594 19.878906 C 16.242188 19.847656 16.167969 19.859375 15.976562 19.9375 C 15.734375 20.035156 15.726562 20.035156 15.507812 19.972656 C 15.386719 19.941406 15.289062 19.890625 15.289062 19.867188 C 15.289062 19.839844 15.339844 19.613281 15.402344 19.359375 C 15.464844 19.105469 15.597656 18.53125 15.695312 18.085938 C 15.792969 17.636719 15.9375 17.039062 16.011719 16.75 C 16.085938 16.460938 16.222656 15.925781 16.320312 15.554688 C 16.414062 15.183594 16.5 14.867188 16.507812 14.851562 C 16.527344 14.820312 16.839844 13.789062 16.914062 13.507812 C 16.9375 13.410156 16.996094 13.316406 17.050781 13.28125 C 17.1875 13.191406 17.238281 12.988281 17.210938 12.675781 C 17.1875 12.4375 17.199219 12.359375 17.316406 11.992188 C 17.546875 11.257812 17.558594 11.1875 17.476562 11.09375 C 17.425781 11.039062 17.367188 11.019531 17.285156 11.027344 C 17.15625 11.039062 17.125 11.105469 16.894531 11.890625 C 16.753906 12.230469 16.761719 12.339844 16.460938 12.34375 C 16.382812 12.351562 16.332031 12.394531 16.273438 12.507812 C 16.167969 12.714844 16.042969 12.734375 15.894531 12.566406 C 15.792969 12.453125 15.769531 12.445312 15.585938 12.460938 C 15.25 12.519531 15.089844 12.683594 14.757812 12.359375 C 14.695312 12.3125 14.554688 12.222656 14.507812 12.132812 C 14.464844 12.042969 14.316406 11.855469 14.183594 11.714844 C 13.773438 11.289062 13.839844 11.230469 14.1875 11.230469 C 14.621094 11.1875 14.519531 11.011719 14.582031 10.808594 C 14.605469 10.730469 14.792969 10.734375 14.78125 10.683594 C 14.761719 10.414062 14.816406 10.246094 14.945312 10.15625 C 15.015625 9.945312 14.949219 9.894531 15.128906 9.835938 C 15.289062 9.742188 14.9375 9.382812 14.660156 9.300781 C 14.390625 9.21875 14.351562 9.085938 14.351562 9.0625 C 14.351562 9.042969 14.308594 8.964844 14.253906 8.894531 C 14.199219 8.820312 14.28125 8.574219 14.257812 8.492188 C 14.234375 8.414062 14.179688 8.320312 14.132812 8.292969 C 14.027344 8.222656 13.738281 8.09375 12.988281 7.878906 L 12.414062 7.714844 L 12.136719 7.78125 C 11.519531 7.929688 11.585938 7.882812 11.472656 8.242188 C 11.359375 8.597656 11.300781 9.210938 11.371094 9.339844 C 11.40625 9.40625 11.398438 9.414062 11.261719 9.398438 C 11.167969 9.390625 11.0625 9.414062 10.960938 9.464844 C 10.820312 9.535156 10.792969 9.578125 10.679688 9.867188 C 10.417969 10.554688 9.5 13.292969 9.464844 13.496094 C 9.445312 13.609375 9.46875 13.683594 9.589844 13.902344 C 9.726562 14.15625 9.75 14.179688 9.960938 14.265625 C 10.082031 14.3125 10.269531 14.363281 10.371094 14.375 L 10.5625 14.398438 L 10.46875 14.519531 C 10.421875 14.585938 10.339844 14.761719 10.289062 14.910156 C 10.210938 15.140625 10.195312 15.261719 10.191406 15.722656 C 10.402344 16.265625 10.351562 16.792969 10.332031 17.398438 L 10.296875 17.894531 C 10.257812 18.289062 10.164062 18.574219 9.9375 19.207031 C 9.832031 19.453125 9.792969 19.609375 9.753906 19.945312 C 9.730469 20.179688 9.679688 20.515625 9.644531 20.695312 C 9.605469 20.9375 9.546875 21.050781 9.480469 21.121094 C 9.414062 21.183594 9.050781 21.707031 9.058594 21.863281 C 9.0625 22.03125 9.070312 22.03125 9.269531 22.222656 C 9.417969 22.363281 9.613281 22.480469 9.644531 22.480469 C 9.675781 22.480469 9.742188 22.546875 9.792969 22.628906 L 9.890625 22.773438 L 9.722656 22.859375 C 9.566406 22.941406 9.546875 22.941406 9.441406 22.886719 C 9.359375 22.84375 9.203125 22.828125 8.867188 22.828125 C 8.445312 22.828125 8.382812 22.820312 8.125 22.714844 C 7.765625 22.5625 7.6875 22.566406 7.570312 22.722656 C 7.332031 23.039062 7.199219 23.34375 7.171875 23.652344 C 7.148438 23.941406 7.148438 23.949219 7.238281 23.988281 C 7.488281 24.09375 8.175781 24.261719 8.34375 24.257812 C 8.445312 24.253906 8.933594 24.167969 9.421875 24.066406 Z M 11.59375 22.695312 C 11.488281 22.660156 11.355469 22.636719 11.292969 22.636719 C 11.207031 22.636719 11.175781 22.609375 11.132812 22.511719 C 11.0625 22.339844 10.980469 22.28125 10.78125 22.257812 L 10.613281 22.238281 L 10.542969 21.964844 C 10.507812 21.8125 10.464844 21.660156 10.445312 21.625 C 10.394531 21.527344 10.734375 20.3125 10.914062 19.964844 C 10.949219 19.890625 11.054688 19.636719 11.140625 19.40625 C 11.226562 19.171875 11.359375 18.90625 11.433594 18.8125 C 11.582031 18.621094 11.609375 18.542969 11.707031 18.09375 C 11.816406 17.761719 11.972656 17.472656 12.089844 17.136719 C 12.226562 16.699219 12.46875 16.597656 12.507812 16.601562 C 13.121094 16.640625 13.484375 16.777344 13.632812 16.832031 C 13.679688 16.855469 13.726562 16.878906 13.730469 16.886719 C 13.738281 16.890625 13.707031 16.953125 13.667969 17.027344 C 13.542969 17.238281 13.164062 18.175781 13.117188 18.265625 L 12.960938 18.449219 L 12.8125 18.632812 C 12.570312 19.011719 12.5625 19.210938 12.78125 19.445312 C 12.957031 19.636719 13.105469 19.730469 13.242188 19.734375 C 13.300781 19.734375 13.402344 19.816406 13.53125 19.957031 L 13.730469 20.175781 L 13.589844 20.386719 C 13.457031 20.589844 13.433594 20.601562 13.140625 20.699219 C 12.96875 20.753906 12.808594 20.8125 12.78125 20.828125 C 12.746094 20.851562 12.734375 20.996094 12.734375 21.335938 L 12.734375 21.808594 L 12.496094 21.882812 C 12.265625 21.953125 12.261719 21.953125 12.125 22.226562 C 12.015625 22.445312 11.816406 22.753906 11.789062 22.75 C 11.785156 22.75 11.699219 22.726562 11.59375 22.695312 Z M 14.742188 19.707031 C 14.71875 19.679688 14.636719 19.648438 14.554688 19.636719 C 14.363281 19.601562 14.328125 19.554688 14.148438 19.125 L 14.003906 18.769531 L 14.101562 18.601562 C 14.152344 18.507812 14.265625 18.3125 14.351562 18.164062 C 14.4375 18.015625 14.613281 17.726562 14.75 17.523438 C 15.167969 16.886719 15.367188 16.480469 15.367188 16.261719 C 15.363281 16.050781 15.25 15.753906 15.152344 15.71875 C 14.316406 15.363281 13.996094 15.132812 13.328125 14.867188 C 13.179688 14.828125 13.046875 14.785156 13.03125 14.773438 C 13.011719 14.757812 13.085938 14.617188 13.191406 14.457031 C 13.320312 14.265625 13.371094 14.078125 13.449219 13.917969 C 13.53125 13.757812 13.535156 13.753906 13.628906 13.695312 C 13.695312 13.65625 13.757812 13.660156 13.832031 13.636719 C 13.9375 13.601562 14.050781 13.625 14.246094 13.671875 C 14.382812 13.703125 14.597656 13.730469 14.722656 13.730469 C 14.917969 13.730469 14.96875 13.746094 15.101562 13.851562 C 15.246094 13.964844 15.269531 13.972656 15.496094 13.949219 C 15.824219 13.917969 15.859375 13.898438 15.964844 13.691406 C 16.035156 13.558594 16.097656 13.492188 16.214844 13.441406 C 16.503906 13.3125 16.503906 13.308594 16.101562 14.8125 C 16.0625 14.953125 15.960938 15.34375 15.875 15.683594 C 15.785156 16.027344 15.679688 16.390625 15.636719 16.5 C 15.480469 16.894531 15.0625 18.550781 14.894531 19.453125 C 14.84375 19.71875 14.796875 19.890625 14.792969 19.84375 C 14.785156 19.792969 14.761719 19.730469 14.742188 19.707031 Z M 14.742188 19.707031 " fill-opacity="1" fill-rule="nonzero"/></g><g clip-path="url(#ff29ffed11)"><path fill="#fefffe" d="M 31.707031 21.269531 C 31.15625 20.828125 30.609375 20.386719 30.070312 19.949219 C 30.042969 19.925781 30.019531 19.90625 30 19.886719 C 29.992188 19.882812 29.992188 19.875 29.996094 19.867188 C 30.019531 19.816406 30.042969 19.765625 30.070312 19.71875 C 30.089844 19.683594 30.140625 19.695312 30.148438 19.628906 C 30.171875 19.453125 30.105469 19.398438 29.984375 19.238281 C 29.714844 18.886719 29.449219 18.539062 29.179688 18.191406 C 29.074219 18.054688 28.960938 17.960938 28.800781 18.109375 C 28.796875 18.113281 28.796875 18.113281 28.792969 18.109375 L 28.601562 17.898438 C 28.597656 17.894531 28.59375 17.890625 28.585938 17.890625 L 28.222656 17.917969 C 28.21875 17.917969 28.214844 17.917969 28.210938 17.914062 C 28.042969 17.71875 27.867188 17.527344 27.6875 17.339844 C 27.683594 17.335938 27.679688 17.332031 27.675781 17.332031 L 27.3125 17.296875 C 27.308594 17.296875 27.304688 17.296875 27.304688 17.292969 C 26.96875 16.765625 26.628906 16.242188 26.285156 15.722656 C 26.085938 15.425781 25.855469 15.636719 25.675781 15.804688 C 25.671875 15.8125 25.664062 15.8125 25.65625 15.804688 C 25.347656 15.515625 25.039062 15.222656 24.722656 14.929688 C 24.695312 14.898438 24.667969 14.871094 24.644531 14.835938 C 24.246094 14.214844 23.84375 13.59375 23.4375 12.976562 C 23.40625 12.910156 23.355469 12.855469 23.292969 12.816406 C 23.226562 12.804688 23.164062 12.816406 23.105469 12.847656 C 23.101562 12.851562 23.097656 12.847656 23.09375 12.84375 C 23.042969 12.78125 22.96875 12.691406 22.863281 12.570312 C 22.835938 12.539062 22.804688 12.515625 22.761719 12.5 C 22.757812 12.5 22.753906 12.5 22.75 12.503906 C 22.695312 12.550781 22.664062 12.578125 22.652344 12.59375 C 22.035156 13.210938 21.414062 13.828125 20.796875 14.445312 C 20.777344 14.46875 20.761719 14.496094 20.757812 14.527344 C 20.714844 14.726562 20.667969 14.921875 20.625 15.109375 C 20.617188 15.136719 20.605469 15.160156 20.589844 15.183594 L 20.03125 16.015625 C 20.023438 16.023438 20.019531 16.023438 20.015625 16.015625 C 19.972656 15.949219 19.929688 15.882812 19.882812 15.820312 C 19.808594 15.71875 19.730469 15.65625 19.609375 15.707031 C 19.558594 15.738281 19.515625 15.769531 19.472656 15.804688 C 19.460938 15.8125 19.449219 15.8125 19.441406 15.800781 C 19.347656 15.707031 19.222656 15.539062 19.070312 15.640625 C 19.027344 15.675781 18.992188 15.714844 18.964844 15.757812 C 18.636719 16.203125 18.3125 16.648438 17.984375 17.097656 C 17.929688 17.164062 17.902344 17.242188 17.898438 17.328125 C 17.898438 17.335938 17.890625 17.34375 17.882812 17.34375 L 16.929688 17.597656 C 16.921875 17.601562 16.917969 17.597656 16.910156 17.59375 C 16.769531 17.496094 16.6875 17.476562 16.574219 17.628906 C 16.21875 18.113281 15.863281 18.597656 15.503906 19.082031 C 15.429688 19.175781 15.414062 19.28125 15.460938 19.394531 C 15.464844 19.40625 15.476562 19.417969 15.480469 19.429688 C 15.484375 19.4375 15.480469 19.441406 15.476562 19.441406 C 15.386719 19.492188 15.296875 19.539062 15.207031 19.585938 C 15.085938 19.652344 15.078125 19.855469 14.972656 19.941406 C 14.4375 20.382812 13.902344 20.828125 13.363281 21.273438 C 13.363281 21.273438 13.363281 21.273438 13.363281 21.277344 C 13.363281 21.277344 13.363281 21.28125 13.367188 21.28125 L 31.703125 21.277344 C 31.714844 21.277344 31.714844 21.277344 31.707031 21.269531 Z M 28.328125 18.171875 L 28.574219 18.113281 C 28.578125 18.109375 28.585938 18.113281 28.589844 18.117188 C 28.652344 18.210938 28.722656 18.292969 28.808594 18.367188 C 28.8125 18.371094 28.816406 18.371094 28.820312 18.367188 L 28.910156 18.292969 C 28.921875 18.285156 28.929688 18.285156 28.9375 18.296875 C 29.027344 18.40625 29.109375 18.523438 29.1875 18.644531 C 29.1875 18.648438 29.183594 18.648438 29.179688 18.648438 L 29.039062 18.59375 C 29.03125 18.589844 29.027344 18.59375 29.023438 18.597656 C 29.019531 18.601562 29.019531 18.605469 29.023438 18.613281 L 29.265625 18.929688 C 29.269531 18.933594 29.269531 18.9375 29.265625 18.941406 C 29.261719 18.941406 29.261719 18.941406 29.257812 18.941406 C 29.074219 18.757812 28.882812 18.585938 28.703125 18.398438 C 28.703125 18.398438 28.699219 18.394531 28.699219 18.398438 C 28.695312 18.398438 28.691406 18.398438 28.695312 18.402344 C 28.742188 18.554688 28.804688 18.699219 28.882812 18.839844 C 28.882812 18.839844 28.882812 18.84375 28.878906 18.84375 C 28.878906 18.84375 28.875 18.84375 28.875 18.84375 C 28.714844 18.652344 28.546875 18.472656 28.378906 18.289062 C 28.351562 18.257812 28.328125 18.234375 28.3125 18.214844 C 28.296875 18.191406 28.300781 18.175781 28.328125 18.171875 Z M 27.582031 17.652344 L 27.652344 17.511719 C 27.664062 17.496094 27.671875 17.496094 27.683594 17.511719 C 27.855469 17.800781 28.023438 18.089844 28.1875 18.382812 C 28.214844 18.4375 28.210938 18.441406 28.171875 18.390625 C 28.035156 18.222656 27.886719 18.046875 27.722656 17.859375 C 27.675781 17.808594 27.632812 17.753906 27.585938 17.691406 C 27.574219 17.679688 27.574219 17.667969 27.582031 17.652344 Z M 25.914062 15.890625 C 25.914062 15.886719 25.914062 15.882812 25.921875 15.882812 L 26.03125 15.839844 C 26.039062 15.835938 26.042969 15.839844 26.046875 15.84375 C 26.066406 15.882812 26.089844 15.925781 26.109375 15.957031 C 26.453125 16.5 26.703125 16.945312 26.996094 17.445312 C 27 17.449219 27 17.453125 27 17.457031 L 26.910156 17.703125 C 26.910156 17.714844 26.910156 17.722656 26.917969 17.730469 C 27.261719 18.09375 27.597656 18.464844 27.933594 18.84375 C 27.957031 18.867188 27.980469 18.890625 28 18.917969 C 28.007812 18.929688 28.003906 18.929688 27.992188 18.921875 C 27.847656 18.800781 27.714844 18.664062 27.574219 18.539062 C 27.316406 18.304688 27.0625 18.070312 26.8125 17.832031 C 26.714844 17.746094 26.632812 17.648438 26.5625 17.535156 C 26.378906 17.203125 26.1875 16.878906 25.992188 16.554688 C 25.96875 16.515625 25.902344 16.441406 25.90625 16.378906 C 25.910156 16.214844 25.914062 16.054688 25.914062 15.890625 Z M 25.757812 16.632812 C 26.019531 17.171875 26.28125 17.722656 26.515625 18.277344 C 26.519531 18.289062 26.519531 18.289062 26.511719 18.277344 L 25.757812 16.941406 C 25.753906 16.9375 25.75 16.9375 25.746094 16.941406 L 25.101562 17.71875 C 25.0625 17.765625 25.058594 17.761719 25.089844 17.710938 C 25.304688 17.367188 25.535156 17.007812 25.75 16.632812 C 25.75 16.625 25.753906 16.625 25.757812 16.632812 Z M 25.640625 18.894531 L 24.589844 17.792969 C 24.585938 17.789062 24.582031 17.789062 24.582031 17.792969 L 24.472656 17.925781 C 24.46875 17.933594 24.460938 17.933594 24.457031 17.929688 C 24.449219 17.925781 24.449219 17.921875 24.453125 17.914062 C 24.507812 17.804688 24.566406 17.699219 24.628906 17.597656 C 24.632812 17.59375 24.632812 17.589844 24.636719 17.59375 C 24.699219 17.65625 24.753906 17.71875 24.808594 17.785156 C 25.015625 18.039062 25.21875 18.296875 25.417969 18.5625 C 25.492188 18.664062 25.589844 18.777344 25.660156 18.878906 C 25.722656 18.972656 25.71875 18.976562 25.640625 18.894531 Z M 25.710938 16.046875 C 25.710938 16.042969 25.710938 16.042969 25.714844 16.042969 C 25.714844 16.042969 25.71875 16.046875 25.71875 16.050781 L 25.714844 16.1875 C 25.714844 16.191406 25.710938 16.195312 25.707031 16.199219 C 25.558594 16.296875 25.410156 16.398438 25.261719 16.5 C 25.199219 16.539062 25.195312 16.535156 25.25 16.484375 C 25.390625 16.324219 25.542969 16.179688 25.710938 16.042969 Z M 20.367188 16.515625 C 20.625 16.203125 20.878906 15.886719 21.128906 15.566406 C 21.160156 15.527344 21.199219 15.5 21.246094 15.484375 C 21.617188 15.378906 21.980469 15.273438 22.347656 15.164062 C 22.355469 15.164062 22.359375 15.164062 22.359375 15.167969 C 22.578125 15.453125 22.792969 15.738281 23.011719 16.019531 C 23.050781 16.070312 23.085938 16.113281 23.128906 16.160156 C 23.132812 16.164062 23.132812 16.164062 23.128906 16.160156 C 22.851562 15.644531 22.566406 15.132812 22.269531 14.628906 C 22.265625 14.625 22.265625 14.621094 22.269531 14.617188 L 22.609375 14.289062 C 22.621094 14.277344 22.628906 14.265625 22.628906 14.25 L 22.695312 13.628906 C 22.695312 13.628906 22.699219 13.628906 22.699219 13.628906 L 23.328125 14.351562 L 22.640625 13.132812 C 22.640625 13.128906 22.636719 13.128906 22.632812 13.132812 C 22.21875 13.554688 21.800781 13.972656 21.378906 14.390625 C 21.34375 14.425781 21.3125 14.460938 21.289062 14.503906 C 21.167969 14.695312 21.050781 14.890625 20.9375 15.085938 C 20.9375 15.085938 20.9375 15.085938 20.933594 15.085938 C 20.929688 15.085938 20.929688 15.082031 20.929688 15.082031 C 20.96875 14.929688 21 14.773438 21.03125 14.617188 C 21.042969 14.558594 21.191406 14.425781 21.242188 14.375 C 21.746094 13.863281 22.253906 13.351562 22.757812 12.84375 C 22.765625 12.835938 22.769531 12.835938 22.777344 12.84375 C 22.839844 12.910156 22.902344 12.976562 22.96875 13.035156 C 23.042969 13.105469 23.097656 13.160156 23.191406 13.101562 C 23.203125 13.09375 23.210938 13.097656 23.21875 13.105469 C 23.605469 13.71875 24 14.328125 24.402344 14.9375 C 24.425781 14.976562 24.453125 15.007812 24.480469 15.042969 C 24.851562 15.390625 25.230469 15.730469 25.59375 16.085938 C 25.597656 16.089844 25.597656 16.09375 25.59375 16.097656 L 25.496094 16.207031 C 25.496094 16.210938 25.492188 16.210938 25.488281 16.207031 L 24.523438 15.375 C 24.492188 15.347656 24.488281 15.351562 24.511719 15.386719 C 24.679688 15.628906 24.839844 15.871094 25 16.117188 C 25.042969 16.179688 25.035156 16.183594 24.988281 16.128906 C 24.8125 15.933594 24.625 15.738281 24.457031 15.535156 C 24.277344 15.320312 24.097656 15.105469 23.921875 14.886719 C 23.910156 14.871094 23.894531 14.851562 23.871094 14.828125 C 23.867188 14.828125 23.867188 14.828125 23.871094 14.832031 C 24.226562 15.460938 24.59375 16.085938 24.953125 16.714844 C 24.953125 16.71875 24.953125 16.71875 24.949219 16.722656 L 24.867188 16.78125 C 24.863281 16.785156 24.859375 16.785156 24.855469 16.777344 C 24.558594 16.472656 24.253906 16.140625 23.960938 15.871094 C 23.957031 15.863281 23.953125 15.863281 23.957031 15.871094 C 24.132812 16.214844 24.320312 16.554688 24.496094 16.894531 C 24.5 16.898438 24.5 16.898438 24.496094 16.902344 C 24.496094 16.90625 24.492188 16.90625 24.488281 16.902344 C 24.484375 16.898438 24.484375 16.898438 24.480469 16.894531 C 24.0625 16.339844 23.648438 15.785156 23.234375 15.230469 C 23.179688 15.15625 23.109375 15.074219 23.058594 14.996094 C 23.042969 14.980469 23.027344 14.960938 23.011719 14.945312 C 23.003906 14.9375 23 14.941406 23.003906 14.949219 C 23.015625 14.972656 23.023438 14.996094 23.035156 15.015625 C 23.429688 15.808594 23.832031 16.597656 24.246094 17.382812 C 24.246094 17.386719 24.246094 17.394531 24.242188 17.398438 L 24.152344 17.460938 C 24.148438 17.464844 24.144531 17.464844 24.140625 17.457031 C 24.042969 17.367188 24.003906 17.289062 23.851562 17.304688 C 23.84375 17.304688 23.84375 17.304688 23.847656 17.3125 L 24.097656 17.523438 C 24.101562 17.527344 24.109375 17.527344 24.113281 17.527344 C 24.125 17.53125 24.136719 17.527344 24.148438 17.519531 C 24.632812 17.179688 25.128906 16.851562 25.632812 16.535156 C 25.632812 16.53125 25.636719 16.53125 25.636719 16.535156 C 25.640625 16.535156 25.640625 16.539062 25.636719 16.542969 C 25.628906 16.546875 25.621094 16.554688 25.613281 16.5625 C 25.15625 16.957031 24.683594 17.320312 24.207031 17.6875 C 24.203125 17.691406 24.203125 17.695312 24.207031 17.699219 C 24.296875 17.796875 24.402344 17.890625 24.484375 17.992188 C 24.730469 18.28125 24.972656 18.578125 25.210938 18.875 C 25.210938 18.875 25.210938 18.878906 25.210938 18.878906 C 25.210938 18.878906 25.207031 18.878906 25.207031 18.878906 C 24.953125 18.644531 24.703125 18.40625 24.460938 18.164062 C 24.402344 18.09375 24.332031 18.058594 24.242188 18.058594 C 24.234375 18.058594 24.234375 18.0625 24.238281 18.066406 C 24.371094 18.269531 24.492188 18.480469 24.601562 18.695312 C 24.601562 18.699219 24.601562 18.699219 24.601562 18.699219 C 24.597656 18.699219 24.597656 18.699219 24.597656 18.699219 C 24.445312 18.488281 24.292969 18.277344 24.144531 18.0625 L 24.144531 18.058594 C 24.136719 18.054688 24.132812 18.054688 24.128906 18.0625 L 23.988281 18.21875 C 23.984375 18.222656 23.984375 18.226562 23.988281 18.230469 C 24.191406 18.519531 24.390625 18.8125 24.574219 19.109375 C 24.574219 19.113281 24.574219 19.113281 24.574219 19.113281 C 24.574219 19.117188 24.570312 19.117188 24.570312 19.113281 L 23.433594 17.914062 C 23.429688 17.910156 23.425781 17.910156 23.417969 17.914062 L 23.003906 18.242188 C 23 18.246094 23 18.246094 23 18.242188 L 23.238281 17.601562 C 23.238281 17.597656 23.238281 17.589844 23.234375 17.585938 L 23.03125 17.390625 C 23.027344 17.386719 23.023438 17.386719 23.019531 17.390625 L 22.433594 17.878906 C 22.429688 17.878906 22.429688 17.878906 22.429688 17.878906 C 22.425781 17.875 22.425781 17.875 22.429688 17.871094 C 22.609375 17.617188 22.789062 17.363281 22.976562 17.113281 C 22.980469 17.113281 22.980469 17.113281 22.984375 17.113281 C 23.269531 17.367188 23.5625 17.617188 23.855469 17.859375 C 23.875 17.875 23.894531 17.886719 23.914062 17.898438 C 23.921875 17.902344 23.921875 17.902344 23.917969 17.894531 C 23.902344 17.871094 23.886719 17.847656 23.867188 17.828125 C 23.609375 17.535156 23.257812 17.148438 22.804688 16.675781 C 22.769531 16.636719 22.730469 16.605469 22.683594 16.589844 C 22.507812 16.527344 22.332031 16.464844 22.160156 16.40625 C 22.144531 16.402344 22.140625 16.394531 22.148438 16.382812 L 22.296875 15.898438 C 22.300781 15.890625 22.296875 15.890625 22.292969 15.894531 C 22.003906 16.089844 21.710938 16.28125 21.414062 16.464844 C 21.414062 16.464844 21.414062 16.464844 21.410156 16.460938 L 21.414062 16.460938 C 21.703125 16.234375 22 16.019531 22.308594 15.820312 C 22.3125 15.820312 22.316406 15.820312 22.320312 15.824219 C 22.539062 16.03125 22.757812 16.238281 22.976562 16.445312 C 23.207031 16.664062 23.445312 16.871094 23.679688 17.078125 C 23.683594 17.082031 23.683594 17.082031 23.683594 17.078125 C 23.6875 17.078125 23.6875 17.074219 23.683594 17.074219 C 23.234375 16.460938 22.765625 15.863281 22.28125 15.277344 C 22.277344 15.273438 22.273438 15.273438 22.265625 15.273438 C 22.222656 15.289062 22.179688 15.308594 22.136719 15.328125 C 21.894531 15.449219 21.652344 15.5625 21.40625 15.675781 C 21.363281 15.691406 21.328125 15.714844 21.300781 15.75 C 21.046875 16.089844 20.792969 16.425781 20.535156 16.757812 C 20.53125 16.761719 20.527344 16.761719 20.523438 16.757812 L 20.367188 16.535156 C 20.359375 16.527344 20.359375 16.519531 20.367188 16.515625 Z M 18.40625 17.050781 C 18.660156 16.660156 18.921875 16.273438 19.191406 15.894531 C 19.195312 15.890625 19.195312 15.890625 19.199219 15.894531 L 19.378906 16.066406 C 19.382812 16.070312 19.386719 16.070312 19.394531 16.070312 L 19.722656 15.964844 C 19.726562 15.964844 19.730469 15.964844 19.734375 15.96875 C 20.128906 16.558594 20.539062 17.132812 20.9375 17.714844 C 20.949219 17.734375 20.945312 17.738281 20.925781 17.726562 L 20.207031 17.300781 C 20.195312 17.296875 20.183594 17.296875 20.171875 17.304688 L 19.660156 17.664062 C 19.65625 17.667969 19.648438 17.664062 19.644531 17.660156 L 19.523438 17.550781 C 19.519531 17.546875 19.515625 17.546875 19.511719 17.550781 C 19.429688 17.664062 19.359375 17.777344 19.292969 17.894531 C 19.292969 17.898438 19.289062 17.898438 19.289062 17.898438 C 19.285156 17.898438 19.28125 17.894531 19.285156 17.890625 L 19.40625 17.535156 C 19.40625 17.53125 19.410156 17.523438 19.414062 17.519531 L 19.421875 17.511719 C 19.425781 17.507812 19.425781 17.5 19.421875 17.496094 L 19.285156 17.285156 C 19.277344 17.28125 19.28125 17.277344 19.285156 17.273438 L 19.542969 16.996094 C 19.546875 16.988281 19.558594 16.984375 19.566406 16.992188 L 19.941406 17.261719 C 19.945312 17.265625 19.949219 17.265625 19.953125 17.265625 L 19.972656 17.265625 C 19.976562 17.265625 19.980469 17.265625 19.984375 17.257812 C 19.984375 17.253906 19.984375 17.25 19.980469 17.246094 C 19.71875 17 19.460938 16.746094 19.195312 16.507812 C 19.175781 16.496094 19.164062 16.476562 19.148438 16.457031 C 19.144531 16.453125 19.144531 16.449219 19.144531 16.441406 L 19.191406 16.074219 C 19.1875 16.070312 19.1875 16.070312 19.183594 16.074219 C 18.945312 16.375 18.703125 16.683594 18.464844 16.988281 C 18.449219 17.011719 18.429688 17.03125 18.410156 17.050781 C 18.402344 17.058594 18.402344 17.058594 18.40625 17.050781 Z M 18.710938 17.53125 C 18.710938 17.53125 18.710938 17.53125 18.707031 17.53125 C 18.707031 17.53125 18.707031 17.527344 18.707031 17.527344 C 18.785156 17.449219 18.855469 17.363281 18.933594 17.292969 C 19.085938 17.152344 19.246094 17.023438 19.417969 16.902344 C 19.441406 16.886719 19.445312 16.886719 19.421875 16.910156 C 19.207031 17.140625 18.96875 17.347656 18.710938 17.53125 Z M 18.15625 17.726562 C 18.332031 17.457031 18.523438 17.195312 18.71875 16.941406 C 18.722656 16.9375 18.722656 16.9375 18.722656 16.9375 C 18.726562 16.941406 18.726562 16.941406 18.726562 16.941406 C 18.554688 17.230469 18.375 17.507812 18.179688 17.773438 C 18.175781 17.78125 18.171875 17.78125 18.167969 17.773438 L 18.15625 17.738281 C 18.152344 17.734375 18.152344 17.730469 18.15625 17.726562 Z M 19.96875 18.171875 C 19.921875 18.265625 19.878906 18.363281 19.847656 18.460938 C 19.847656 18.464844 19.847656 18.46875 19.84375 18.46875 C 19.835938 18.472656 19.835938 18.46875 19.832031 18.464844 L 19.789062 18.308594 C 19.789062 18.300781 19.789062 18.296875 19.792969 18.292969 L 19.957031 18.164062 C 19.960938 18.160156 19.964844 18.160156 19.964844 18.164062 C 19.96875 18.164062 19.96875 18.167969 19.96875 18.171875 Z M 29.894531 20.101562 C 29.890625 20.105469 29.890625 20.105469 29.886719 20.105469 C 29.542969 19.890625 29.207031 19.671875 28.867188 19.460938 C 28.847656 19.449219 28.832031 19.433594 28.820312 19.417969 L 28.597656 19.125 C 28.59375 19.121094 28.589844 19.121094 28.582031 19.121094 C 28.550781 19.128906 28.519531 19.140625 28.492188 19.15625 C 28.199219 19.28125 27.90625 19.410156 27.621094 19.535156 C 27.609375 19.539062 27.609375 19.546875 27.617188 19.554688 L 28.71875 20.511719 C 28.71875 20.515625 28.71875 20.515625 28.71875 20.515625 C 28.71875 20.519531 28.714844 20.519531 28.714844 20.519531 L 26.757812 19.222656 C 26.746094 19.214844 26.734375 19.214844 26.71875 19.214844 C 26.121094 19.332031 25.515625 19.449219 24.90625 19.570312 C 24.882812 19.574219 24.863281 19.574219 24.839844 19.570312 C 24.234375 19.402344 23.625 19.242188 23.015625 19.082031 C 22.988281 19.074219 22.960938 19.066406 22.9375 19.054688 C 22.652344 18.910156 22.363281 18.765625 22.078125 18.617188 C 21.972656 18.550781 21.859375 18.507812 21.734375 18.492188 C 21.652344 18.503906 21.570312 18.511719 21.484375 18.523438 C 21.480469 18.523438 21.480469 18.527344 21.484375 18.53125 C 21.800781 18.875 22.136719 19.199219 22.558594 19.628906 C 22.621094 19.695312 22.671875 19.75 22.714844 19.800781 C 22.71875 19.800781 22.71875 19.800781 22.714844 19.804688 C 22.304688 19.46875 21.941406 19.167969 21.625 18.894531 C 21.550781 18.828125 21.492188 18.78125 21.453125 18.75 C 21.449219 18.746094 21.445312 18.746094 21.441406 18.75 L 21.300781 18.878906 C 21.292969 18.886719 21.285156 18.886719 21.28125 18.878906 L 21.125 18.71875 C 21.117188 18.710938 21.113281 18.710938 21.113281 18.71875 C 21.101562 18.753906 21.085938 18.78125 21.066406 18.808594 C 20.972656 18.941406 20.882812 19.074219 20.792969 19.210938 C 20.792969 19.210938 20.792969 19.214844 20.789062 19.210938 C 20.789062 19.210938 20.789062 19.210938 20.789062 19.207031 L 21 18.710938 C 21.003906 18.699219 21.003906 18.6875 21 18.679688 L 20.683594 18.210938 C 20.683594 18.207031 20.679688 18.207031 20.675781 18.203125 L 20.160156 17.828125 C 20.15625 17.824219 20.152344 17.824219 20.148438 17.828125 L 19.589844 18.203125 C 19.582031 18.207031 19.578125 18.207031 19.570312 18.207031 L 19.484375 18.171875 C 19.480469 18.171875 19.480469 18.171875 19.480469 18.171875 C 19.066406 18.429688 18.644531 18.671875 18.226562 18.921875 C 18.222656 18.925781 18.222656 18.925781 18.226562 18.929688 C 18.613281 19.183594 18.992188 19.449219 19.371094 19.71875 C 19.378906 19.722656 19.386719 19.730469 19.390625 19.734375 C 19.394531 19.738281 19.394531 19.738281 19.394531 19.742188 C 19.390625 19.742188 19.390625 19.742188 19.386719 19.742188 C 18.59375 19.316406 17.8125 18.875 17.039062 18.414062 C 17.035156 18.414062 17.03125 18.414062 17.03125 18.414062 C 17.027344 18.417969 17.027344 18.421875 17.027344 18.425781 L 17.691406 19.320312 C 17.734375 19.378906 17.730469 19.382812 17.675781 19.332031 L 16.8125 18.507812 C 16.804688 18.5 16.796875 18.488281 16.796875 18.476562 L 16.796875 17.996094 C 16.796875 17.988281 16.796875 17.988281 16.792969 17.992188 C 16.535156 18.285156 16.28125 18.582031 16.027344 18.875 C 16.023438 18.875 16.023438 18.875 16.019531 18.875 C 16.019531 18.875 16.019531 18.871094 16.019531 18.871094 C 16.273438 18.515625 16.527344 18.164062 16.78125 17.8125 C 16.785156 17.808594 16.789062 17.804688 16.792969 17.808594 L 16.90625 17.882812 C 16.914062 17.886719 16.917969 17.886719 16.925781 17.886719 L 17.863281 17.640625 C 17.875 17.636719 17.882812 17.640625 17.890625 17.652344 C 17.960938 17.78125 18.03125 17.90625 18.09375 18.023438 C 18.113281 18.054688 18.132812 18.085938 18.160156 18.113281 C 18.277344 18.234375 18.390625 18.351562 18.503906 18.472656 C 18.550781 18.527344 18.546875 18.53125 18.488281 18.488281 C 18.347656 18.382812 18.195312 18.269531 18.027344 18.140625 C 17.972656 18.101562 17.910156 18.078125 17.84375 18.074219 C 17.839844 18.074219 17.839844 18.074219 17.835938 18.078125 C 17.832031 18.082031 17.832031 18.085938 17.835938 18.089844 L 17.957031 18.25 C 17.960938 18.253906 17.960938 18.253906 17.960938 18.257812 C 17.957031 18.261719 17.957031 18.261719 17.953125 18.261719 C 17.933594 18.257812 17.921875 18.25 17.90625 18.238281 C 17.804688 18.140625 17.6875 18.078125 17.550781 18.046875 C 17.550781 18.046875 17.550781 18.046875 17.546875 18.046875 C 17.546875 18.050781 17.546875 18.050781 17.546875 18.054688 C 17.585938 18.101562 17.628906 18.144531 17.675781 18.183594 C 17.855469 18.332031 18.039062 18.484375 18.226562 18.640625 C 18.230469 18.644531 18.230469 18.648438 18.230469 18.652344 C 18.226562 18.65625 18.222656 18.65625 18.214844 18.65625 L 17.65625 18.394531 C 17.648438 18.394531 17.644531 18.394531 17.648438 18.402344 C 17.65625 18.453125 17.683594 18.558594 17.726562 18.589844 C 17.855469 18.671875 17.984375 18.757812 18.109375 18.847656 C 18.128906 18.859375 18.148438 18.871094 18.167969 18.882812 C 18.175781 18.886719 18.179688 18.882812 18.183594 18.882812 C 18.425781 18.71875 18.578125 18.613281 18.640625 18.574219 C 19.207031 18.179688 19.703125 17.851562 20.132812 17.585938 C 20.140625 17.582031 20.144531 17.582031 20.148438 17.585938 C 20.417969 17.753906 20.6875 17.910156 20.964844 18.0625 C 21.109375 18.15625 21.238281 18.269531 21.347656 18.398438 C 21.351562 18.402344 21.355469 18.40625 21.359375 18.40625 L 21.945312 18.359375 C 21.964844 18.355469 21.984375 18.359375 22.003906 18.367188 C 22.363281 18.527344 22.730469 18.683594 23.109375 18.839844 C 23.121094 18.84375 23.125 18.851562 23.121094 18.859375 L 23.078125 19.03125 C 23.074219 19.035156 23.074219 19.039062 23.082031 19.039062 C 23.636719 19.15625 24.183594 19.28125 24.734375 19.390625 C 24.773438 19.386719 24.808594 19.378906 24.84375 19.363281 L 25.421875 19.207031 C 25.601562 19.160156 25.785156 19.253906 25.964844 19.210938 C 26.386719 19.121094 26.804688 19.03125 27.226562 18.945312 C 27.230469 18.945312 27.238281 18.945312 27.238281 18.953125 C 27.285156 19.074219 27.332031 19.199219 27.382812 19.324219 C 27.40625 19.382812 27.511719 19.460938 27.5625 19.503906 C 27.566406 19.511719 27.570312 19.511719 27.578125 19.507812 L 28.582031 18.917969 C 28.589844 18.914062 28.597656 18.914062 28.601562 18.917969 L 29.695312 19.808594 C 29.777344 19.894531 29.84375 19.988281 29.894531 20.097656 C 29.894531 20.097656 29.894531 20.101562 29.894531 20.101562 Z M 29.894531 20.101562 " fill-opacity="1" fill-rule="nonzero"/></g><path fill="#fefffe" d="M 24.027344 14.65625 C 23.773438 14.230469 23.492188 13.820312 23.1875 13.429688 C 23.144531 13.378906 23.101562 13.328125 23.054688 13.28125 C 23.054688 13.28125 23.054688 13.28125 23.050781 13.28125 C 23.332031 13.773438 23.65625 14.230469 24.023438 14.65625 C 24.035156 14.667969 24.035156 14.667969 24.027344 14.65625 Z M 24.027344 14.65625 " fill-opacity="1" fill-rule="nonzero"/><path fill="#fefffe" d="M 23.433594 15.113281 C 23.457031 15.140625 23.460938 15.136719 23.441406 15.109375 C 23.332031 14.929688 23.214844 14.75 23.082031 14.574219 C 23.058594 14.542969 23.03125 14.515625 23 14.492188 C 22.996094 14.492188 22.996094 14.488281 22.992188 14.492188 C 22.988281 14.492188 22.988281 14.492188 22.988281 14.5 L 23 14.640625 C 23 14.65625 23.007812 14.671875 23.019531 14.683594 Z M 23.433594 15.113281 " fill-opacity="1" fill-rule="nonzero"/><path fill="#fefffe" d="M 20.003906 16.820312 C 20.144531 16.964844 20.292969 17.113281 20.449219 17.265625 C 20.496094 17.3125 20.5 17.308594 20.460938 17.253906 C 20.242188 16.941406 20.019531 16.613281 19.769531 16.320312 C 19.71875 16.261719 19.660156 16.214844 19.59375 16.175781 C 19.585938 16.171875 19.585938 16.171875 19.589844 16.179688 C 19.699219 16.410156 19.839844 16.625 20.003906 16.820312 Z M 20.003906 16.820312 " fill-opacity="1" fill-rule="nonzero"/><path fill="#fefffe" d="M 26.683594 17.214844 C 26.691406 17.222656 26.691406 17.21875 26.6875 17.210938 C 26.617188 17.101562 26.5 16.921875 26.335938 16.671875 C 26.3125 16.636719 26.289062 16.605469 26.265625 16.574219 C 26.261719 16.570312 26.257812 16.570312 26.257812 16.578125 C 26.253906 16.65625 26.273438 16.730469 26.316406 16.796875 C 26.433594 16.941406 26.554688 17.082031 26.683594 17.214844 Z M 26.683594 17.214844 " fill-opacity="1" fill-rule="nonzero"/><path fill="#fefffe" d="M 19.539062 17.070312 C 19.535156 17.066406 19.53125 17.066406 19.527344 17.066406 C 19.511719 17.066406 19.503906 17.074219 19.503906 17.089844 C 19.601562 17.195312 19.710938 17.28125 19.839844 17.347656 C 19.839844 17.347656 19.84375 17.347656 19.84375 17.347656 C 19.851562 17.34375 19.851562 17.339844 19.847656 17.335938 C 19.757812 17.230469 19.65625 17.140625 19.539062 17.070312 Z M 19.539062 17.070312 " fill-opacity="1" fill-rule="nonzero"/><g fill="#ffffff" fill-opacity="1"><g transform="translate(29.375557, 18.780673)"><g><path d="M 5.578125 -6.703125 C 5.535156 -6.710938 5.457031 -6.71875 5.34375 -6.71875 C 5.238281 -6.71875 5.171875 -6.710938 5.140625 -6.703125 C 4.765625 -6.671875 4.4375 -6.625 4.15625 -6.5625 C 4.113281 -6.539062 4.070312 -6.53125 4.03125 -6.53125 C 3.988281 -6.53125 3.957031 -6.523438 3.9375 -6.515625 C 3.695312 -6.460938 3.539062 -6.328125 3.46875 -6.109375 C 3.425781 -5.992188 3.382812 -5.820312 3.34375 -5.59375 C 3.300781 -5.375 3.257812 -5.09375 3.21875 -4.75 C 3.1875 -4.625 3.171875 -4.550781 3.171875 -4.53125 C 3.171875 -4.488281 3.164062 -4.453125 3.15625 -4.421875 C 3.15625 -4.367188 3.148438 -4.335938 3.140625 -4.328125 C 3.140625 -4.265625 3.132812 -4.222656 3.125 -4.203125 C 3.125 -4.148438 3.117188 -4.109375 3.109375 -4.078125 C 3.097656 -4.046875 3.085938 -3.972656 3.078125 -3.859375 C 3.078125 -3.742188 3.066406 -3.582031 3.046875 -3.375 C 3.035156 -3.28125 3.03125 -3.179688 3.03125 -3.078125 C 3.03125 -2.984375 3.03125 -2.875 3.03125 -2.75 C 3.03125 -2.488281 3.035156 -2.335938 3.046875 -2.296875 C 3.097656 -2.140625 3.207031 -2.0625 3.375 -2.0625 C 3.4375 -2.0625 3.507812 -2.070312 3.59375 -2.09375 C 3.757812 -2.113281 3.894531 -2.160156 4 -2.234375 C 4.019531 -2.253906 4.054688 -2.269531 4.109375 -2.28125 C 4.242188 -2.363281 4.367188 -2.457031 4.484375 -2.5625 C 4.597656 -2.664062 4.710938 -2.78125 4.828125 -2.90625 C 4.992188 -3.113281 5.078125 -3.222656 5.078125 -3.234375 C 5.078125 -3.253906 5.097656 -3.289062 5.140625 -3.34375 C 5.304688 -3.675781 5.4375 -4.03125 5.53125 -4.40625 C 5.625 -4.78125 5.6875 -5.148438 5.71875 -5.515625 C 5.726562 -5.617188 5.734375 -5.769531 5.734375 -5.96875 C 5.734375 -6.164062 5.726562 -6.328125 5.71875 -6.453125 C 5.707031 -6.535156 5.695312 -6.59375 5.6875 -6.625 C 5.675781 -6.65625 5.640625 -6.679688 5.578125 -6.703125 Z M 5.109375 -8.234375 C 5.242188 -8.253906 5.332031 -8.257812 5.375 -8.25 C 5.5 -8.21875 5.660156 -8.128906 5.859375 -7.984375 C 6.054688 -7.847656 6.25 -7.691406 6.4375 -7.515625 C 6.632812 -7.347656 6.8125 -7.171875 6.96875 -6.984375 C 7.132812 -6.804688 7.25 -6.660156 7.3125 -6.546875 C 7.40625 -6.359375 7.46875 -6.15625 7.5 -5.9375 C 7.539062 -5.726562 7.570312 -5.519531 7.59375 -5.3125 C 7.601562 -5.195312 7.609375 -5.085938 7.609375 -4.984375 C 7.617188 -4.890625 7.628906 -4.800781 7.640625 -4.71875 C 7.660156 -4.414062 7.660156 -4.191406 7.640625 -4.046875 C 7.617188 -3.941406 7.597656 -3.804688 7.578125 -3.640625 C 7.554688 -3.484375 7.546875 -3.359375 7.546875 -3.265625 C 7.535156 -3.046875 7.492188 -2.859375 7.421875 -2.703125 C 7.410156 -2.691406 7.40625 -2.679688 7.40625 -2.671875 L 7.40625 -2.640625 C 7.332031 -2.335938 7.222656 -2.050781 7.078125 -1.78125 C 6.941406 -1.507812 6.769531 -1.269531 6.5625 -1.0625 C 6.351562 -0.863281 6.113281 -0.707031 5.84375 -0.59375 C 5.570312 -0.476562 5.273438 -0.421875 4.953125 -0.421875 C 4.628906 -0.421875 4.320312 -0.46875 4.03125 -0.5625 C 3.75 -0.65625 3.472656 -0.785156 3.203125 -0.953125 C 3.054688 -1.035156 2.96875 -1.078125 2.9375 -1.078125 C 2.882812 -1.078125 2.847656 -1.054688 2.828125 -1.015625 C 2.816406 -0.972656 2.8125 -0.945312 2.8125 -0.9375 C 2.8125 -0.9375 2.785156 -0.910156 2.734375 -0.859375 C 2.660156 -0.703125 2.550781 -0.625 2.40625 -0.625 C 2.257812 -0.625 2 -0.820312 1.625 -1.21875 L 1.4375 -1.40625 C 1.40625 -1.425781 1.347656 -1.484375 1.265625 -1.578125 C 1.191406 -1.679688 1.085938 -1.8125 0.953125 -1.96875 C 0.828125 -2.125 0.742188 -2.242188 0.703125 -2.328125 C 0.671875 -2.421875 0.65625 -2.523438 0.65625 -2.640625 C 0.65625 -2.765625 0.695312 -2.945312 0.78125 -3.1875 C 0.957031 -3.664062 1.085938 -4.179688 1.171875 -4.734375 C 1.191406 -4.898438 1.21875 -5.097656 1.25 -5.328125 C 1.289062 -5.554688 1.335938 -5.789062 1.390625 -6.03125 C 1.441406 -6.28125 1.492188 -6.515625 1.546875 -6.734375 C 1.609375 -6.960938 1.675781 -7.144531 1.75 -7.28125 C 1.769531 -7.332031 1.785156 -7.378906 1.796875 -7.421875 C 1.816406 -7.460938 1.832031 -7.503906 1.84375 -7.546875 L 1.84375 -7.703125 C 1.8125 -7.785156 1.804688 -7.847656 1.828125 -7.890625 C 1.847656 -7.910156 1.882812 -7.921875 1.9375 -7.921875 C 2.050781 -7.921875 2.160156 -7.878906 2.265625 -7.796875 C 2.441406 -7.679688 2.617188 -7.625 2.796875 -7.625 C 2.828125 -7.625 2.878906 -7.648438 2.953125 -7.703125 L 3.03125 -7.78125 C 3.082031 -7.832031 3.171875 -7.882812 3.296875 -7.9375 C 3.421875 -8.007812 3.578125 -8.0625 3.765625 -8.09375 C 4.023438 -8.164062 4.363281 -8.203125 4.78125 -8.203125 C 4.84375 -8.203125 4.898438 -8.203125 4.953125 -8.203125 C 5.003906 -8.210938 5.054688 -8.222656 5.109375 -8.234375 Z M 5.109375 -8.234375 "/></g></g></g><g fill="#ffffff" fill-opacity="1"><g transform="translate(37.797905, 18.780673)"><g><path d="M 1.25 -6.28125 C 1.269531 -6.289062 1.300781 -6.289062 1.34375 -6.28125 C 1.394531 -6.28125 1.457031 -6.257812 1.53125 -6.21875 C 1.9375 -5.988281 2.226562 -5.695312 2.40625 -5.34375 C 2.519531 -5.113281 2.539062 -4.863281 2.46875 -4.59375 C 2.394531 -4.300781 2.34375 -3.90625 2.3125 -3.40625 C 2.289062 -2.914062 2.285156 -2.414062 2.296875 -1.90625 L 2.296875 -0.953125 C 2.296875 -0.691406 2.289062 -0.550781 2.28125 -0.53125 C 2.207031 -0.382812 2.085938 -0.367188 1.921875 -0.484375 C 1.816406 -0.554688 1.6875 -0.671875 1.53125 -0.828125 C 1.382812 -0.984375 1.269531 -1.117188 1.1875 -1.234375 C 1.039062 -1.441406 0.941406 -1.601562 0.890625 -1.71875 C 0.847656 -1.832031 0.828125 -2 0.828125 -2.21875 C 0.828125 -2.382812 0.835938 -2.65625 0.859375 -3.03125 C 0.890625 -3.414062 0.929688 -3.816406 0.984375 -4.234375 C 1.003906 -4.441406 1.019531 -4.609375 1.03125 -4.734375 C 1.050781 -4.859375 1.0625 -4.929688 1.0625 -4.953125 C 1.0625 -5.023438 1.003906 -5.09375 0.890625 -5.15625 C 0.785156 -5.195312 0.6875 -5.21875 0.59375 -5.21875 C 0.5 -5.21875 0.441406 -5.257812 0.421875 -5.34375 C 0.421875 -5.375 0.457031 -5.4375 0.53125 -5.53125 C 0.601562 -5.625 0.6875 -5.722656 0.78125 -5.828125 C 0.875 -5.929688 0.96875 -6.023438 1.0625 -6.109375 C 1.15625 -6.203125 1.21875 -6.257812 1.25 -6.28125 Z M 1.171875 -8.578125 C 1.203125 -8.585938 1.253906 -8.59375 1.328125 -8.59375 C 1.460938 -8.59375 1.585938 -8.554688 1.703125 -8.484375 C 1.828125 -8.398438 1.9375 -8.289062 2.03125 -8.15625 C 2.125 -8.007812 2.175781 -7.878906 2.1875 -7.765625 C 2.238281 -7.609375 2.238281 -7.457031 2.1875 -7.3125 C 2.132812 -7.082031 2.03125 -6.929688 1.875 -6.859375 C 1.8125 -6.835938 1.742188 -6.828125 1.671875 -6.828125 C 1.597656 -6.828125 1.539062 -6.832031 1.5 -6.84375 C 1.332031 -6.925781 1.160156 -7.0625 0.984375 -7.25 C 0.804688 -7.4375 0.707031 -7.617188 0.6875 -7.796875 C 0.664062 -7.972656 0.703125 -8.132812 0.796875 -8.28125 C 0.890625 -8.425781 1.015625 -8.523438 1.171875 -8.578125 Z M 1.171875 -8.578125 "/></g></g></g><g fill="#ffffff" fill-opacity="1"><g transform="translate(40.836739, 18.780673)"><g><path d="M 2.625 -6.3125 C 2.769531 -6.320312 2.898438 -6.316406 3.015625 -6.296875 C 3.128906 -6.273438 3.238281 -6.253906 3.34375 -6.234375 C 3.539062 -6.179688 3.75 -6.070312 3.96875 -5.90625 C 4.1875 -5.738281 4.367188 -5.578125 4.515625 -5.421875 C 4.597656 -5.316406 4.664062 -5.21875 4.71875 -5.125 C 4.769531 -5.039062 4.804688 -4.953125 4.828125 -4.859375 C 4.847656 -4.773438 4.851562 -4.679688 4.84375 -4.578125 C 4.84375 -4.472656 4.832031 -4.351562 4.8125 -4.21875 C 4.789062 -4.15625 4.773438 -4.09375 4.765625 -4.03125 C 4.765625 -3.96875 4.757812 -3.898438 4.75 -3.828125 C 4.707031 -3.515625 4.707031 -2.671875 4.75 -1.296875 C 4.757812 -1.023438 4.765625 -0.796875 4.765625 -0.609375 C 4.773438 -0.429688 4.773438 -0.273438 4.765625 -0.140625 C 4.765625 -0.00390625 4.757812 0.109375 4.75 0.203125 C 4.738281 0.304688 4.71875 0.410156 4.6875 0.515625 C 4.664062 0.597656 4.625 0.707031 4.5625 0.84375 C 4.5 0.976562 4.425781 1.109375 4.34375 1.234375 C 4.257812 1.367188 4.164062 1.476562 4.0625 1.5625 C 3.96875 1.65625 3.863281 1.703125 3.75 1.703125 C 3.539062 1.703125 3.300781 1.65625 3.03125 1.5625 C 2.769531 1.476562 2.539062 1.398438 2.34375 1.328125 C 2.269531 1.296875 2.175781 1.253906 2.0625 1.203125 C 1.957031 1.148438 1.859375 1.097656 1.765625 1.046875 C 1.679688 1.003906 1.601562 0.960938 1.53125 0.921875 C 1.46875 0.878906 1.4375 0.851562 1.4375 0.84375 C 1.414062 0.820312 1.40625 0.796875 1.40625 0.765625 C 1.40625 0.742188 1.425781 0.734375 1.46875 0.734375 C 1.695312 0.703125 1.90625 0.671875 2.09375 0.640625 C 2.289062 0.617188 2.460938 0.597656 2.609375 0.578125 C 2.898438 0.492188 3.140625 0.363281 3.328125 0.1875 C 3.523438 0.0078125 3.640625 -0.234375 3.671875 -0.546875 C 3.679688 -0.753906 3.679688 -0.863281 3.671875 -0.875 C 3.640625 -0.882812 3.570312 -0.859375 3.46875 -0.796875 C 3.375 -0.742188 3.234375 -0.703125 3.046875 -0.671875 C 2.867188 -0.648438 2.734375 -0.644531 2.640625 -0.65625 C 2.566406 -0.65625 2.5 -0.660156 2.4375 -0.671875 C 2.382812 -0.679688 2.332031 -0.695312 2.28125 -0.71875 C 1.914062 -0.851562 1.570312 -1.125 1.25 -1.53125 C 1.070312 -1.75 0.925781 -1.929688 0.8125 -2.078125 C 0.707031 -2.234375 0.632812 -2.363281 0.59375 -2.46875 C 0.5625 -2.539062 0.53125 -2.628906 0.5 -2.734375 C 0.476562 -2.835938 0.472656 -2.957031 0.484375 -3.09375 C 0.503906 -3.457031 0.550781 -3.800781 0.625 -4.125 C 0.695312 -4.445312 0.804688 -4.757812 0.953125 -5.0625 C 1.054688 -5.25 1.160156 -5.421875 1.265625 -5.578125 C 1.367188 -5.734375 1.476562 -5.863281 1.59375 -5.96875 C 1.71875 -6.082031 1.863281 -6.164062 2.03125 -6.21875 C 2.195312 -6.28125 2.394531 -6.3125 2.625 -6.3125 Z M 3.625 -4.859375 L 3.625 -5.09375 L 3.515625 -5.09375 C 3.328125 -5.09375 3.15625 -5.039062 3 -4.9375 C 2.84375 -4.832031 2.703125 -4.703125 2.578125 -4.546875 C 2.453125 -4.390625 2.34375 -4.222656 2.25 -4.046875 C 2.164062 -3.867188 2.097656 -3.703125 2.046875 -3.546875 C 1.953125 -3.273438 1.882812 -3.03125 1.84375 -2.8125 C 1.800781 -2.601562 1.796875 -2.398438 1.828125 -2.203125 C 1.847656 -2.046875 1.878906 -1.96875 1.921875 -1.96875 C 1.953125 -1.9375 2.0625 -2.007812 2.25 -2.1875 C 2.363281 -2.28125 2.457031 -2.375 2.53125 -2.46875 C 2.613281 -2.5625 2.691406 -2.65625 2.765625 -2.75 C 2.785156 -2.78125 2.832031 -2.863281 2.90625 -3 C 2.976562 -3.144531 3.054688 -3.300781 3.140625 -3.46875 C 3.234375 -3.644531 3.316406 -3.804688 3.390625 -3.953125 C 3.460938 -4.097656 3.503906 -4.195312 3.515625 -4.25 C 3.546875 -4.332031 3.570312 -4.421875 3.59375 -4.515625 C 3.613281 -4.617188 3.625 -4.734375 3.625 -4.859375 Z M 3.625 -4.859375 "/></g></g></g><g fill="#ffffff" fill-opacity="1"><g transform="translate(46.359083, 18.780673)"><g><path d="M 1.25 -6.28125 C 1.269531 -6.289062 1.300781 -6.289062 1.34375 -6.28125 C 1.394531 -6.28125 1.457031 -6.257812 1.53125 -6.21875 C 1.9375 -5.988281 2.226562 -5.695312 2.40625 -5.34375 C 2.519531 -5.113281 2.539062 -4.863281 2.46875 -4.59375 C 2.394531 -4.300781 2.34375 -3.90625 2.3125 -3.40625 C 2.289062 -2.914062 2.285156 -2.414062 2.296875 -1.90625 L 2.296875 -0.953125 C 2.296875 -0.691406 2.289062 -0.550781 2.28125 -0.53125 C 2.207031 -0.382812 2.085938 -0.367188 1.921875 -0.484375 C 1.816406 -0.554688 1.6875 -0.671875 1.53125 -0.828125 C 1.382812 -0.984375 1.269531 -1.117188 1.1875 -1.234375 C 1.039062 -1.441406 0.941406 -1.601562 0.890625 -1.71875 C 0.847656 -1.832031 0.828125 -2 0.828125 -2.21875 C 0.828125 -2.382812 0.835938 -2.65625 0.859375 -3.03125 C 0.890625 -3.414062 0.929688 -3.816406 0.984375 -4.234375 C 1.003906 -4.441406 1.019531 -4.609375 1.03125 -4.734375 C 1.050781 -4.859375 1.0625 -4.929688 1.0625 -4.953125 C 1.0625 -5.023438 1.003906 -5.09375 0.890625 -5.15625 C 0.785156 -5.195312 0.6875 -5.21875 0.59375 -5.21875 C 0.5 -5.21875 0.441406 -5.257812 0.421875 -5.34375 C 0.421875 -5.375 0.457031 -5.4375 0.53125 -5.53125 C 0.601562 -5.625 0.6875 -5.722656 0.78125 -5.828125 C 0.875 -5.929688 0.96875 -6.023438 1.0625 -6.109375 C 1.15625 -6.203125 1.21875 -6.257812 1.25 -6.28125 Z M 1.171875 -8.578125 C 1.203125 -8.585938 1.253906 -8.59375 1.328125 -8.59375 C 1.460938 -8.59375 1.585938 -8.554688 1.703125 -8.484375 C 1.828125 -8.398438 1.9375 -8.289062 2.03125 -8.15625 C 2.125 -8.007812 2.175781 -7.878906 2.1875 -7.765625 C 2.238281 -7.609375 2.238281 -7.457031 2.1875 -7.3125 C 2.132812 -7.082031 2.03125 -6.929688 1.875 -6.859375 C 1.8125 -6.835938 1.742188 -6.828125 1.671875 -6.828125 C 1.597656 -6.828125 1.539062 -6.832031 1.5 -6.84375 C 1.332031 -6.925781 1.160156 -7.0625 0.984375 -7.25 C 0.804688 -7.4375 0.707031 -7.617188 0.6875 -7.796875 C 0.664062 -7.972656 0.703125 -8.132812 0.796875 -8.28125 C 0.890625 -8.425781 1.015625 -8.523438 1.171875 -8.578125 Z M 1.171875 -8.578125 "/></g></g></g><g fill="#ffffff" fill-opacity="1"><g transform="translate(49.397917, 18.780673)"><g><path d="M 2.140625 -7.59375 C 2.140625 -7.6875 2.1875 -7.734375 2.28125 -7.734375 C 2.351562 -7.734375 2.4375 -7.703125 2.53125 -7.640625 C 2.625 -7.578125 2.710938 -7.5 2.796875 -7.40625 C 2.890625 -7.320312 2.96875 -7.234375 3.03125 -7.140625 C 3.101562 -7.046875 3.15625 -6.96875 3.1875 -6.90625 C 3.320312 -6.632812 3.394531 -6.332031 3.40625 -6 L 3.421875 -5.84375 L 3.59375 -5.796875 C 3.925781 -5.703125 4.234375 -5.65625 4.515625 -5.65625 C 4.816406 -5.65625 5.117188 -5.679688 5.421875 -5.734375 C 5.734375 -5.785156 6.039062 -5.84375 6.34375 -5.90625 C 6.46875 -5.9375 6.53125 -5.953125 6.53125 -5.953125 C 6.539062 -5.953125 6.507812 -5.894531 6.4375 -5.78125 C 6.34375 -5.664062 6.242188 -5.539062 6.140625 -5.40625 C 6.046875 -5.269531 5.96875 -5.160156 5.90625 -5.078125 C 5.726562 -4.835938 5.539062 -4.648438 5.34375 -4.515625 C 5.144531 -4.390625 4.894531 -4.328125 4.59375 -4.328125 C 4.320312 -4.328125 4.039062 -4.394531 3.75 -4.53125 C 3.59375 -4.582031 3.46875 -4.625 3.375 -4.65625 C 3.289062 -4.695312 3.238281 -4.71875 3.21875 -4.71875 C 3.195312 -4.71875 3.1875 -4.378906 3.1875 -3.703125 L 3.1875 -2.265625 L 3.21875 -2.171875 C 3.25 -2.085938 3.300781 -2.046875 3.375 -2.046875 C 3.414062 -2.046875 3.460938 -2.050781 3.515625 -2.0625 C 3.578125 -2.070312 3.648438 -2.085938 3.734375 -2.109375 C 3.910156 -2.128906 4.050781 -2.144531 4.15625 -2.15625 C 4.257812 -2.164062 4.332031 -2.171875 4.375 -2.171875 C 4.382812 -2.171875 4.382812 -2.113281 4.375 -2 C 4.363281 -1.695312 4.289062 -1.410156 4.15625 -1.140625 C 4.019531 -0.867188 3.882812 -0.664062 3.75 -0.53125 C 3.644531 -0.425781 3.519531 -0.375 3.375 -0.375 C 3.257812 -0.375 3.179688 -0.390625 3.140625 -0.421875 C 3.117188 -0.441406 3.085938 -0.460938 3.046875 -0.484375 C 3.015625 -0.515625 2.976562 -0.539062 2.9375 -0.5625 C 2.863281 -0.59375 2.773438 -0.660156 2.671875 -0.765625 C 2.566406 -0.867188 2.460938 -0.984375 2.359375 -1.109375 C 2.265625 -1.234375 2.179688 -1.347656 2.109375 -1.453125 C 2.046875 -1.566406 2.003906 -1.65625 1.984375 -1.71875 L 1.984375 -2.484375 C 1.984375 -2.597656 1.984375 -2.734375 1.984375 -2.890625 C 1.984375 -3.054688 1.984375 -3.21875 1.984375 -3.375 C 1.992188 -3.53125 2 -3.671875 2 -3.796875 C 2.007812 -3.929688 2.015625 -4.019531 2.015625 -4.0625 C 2.023438 -4.132812 2.03125 -4.210938 2.03125 -4.296875 C 2.039062 -4.378906 2.046875 -4.460938 2.046875 -4.546875 C 2.046875 -4.710938 2.035156 -4.816406 2.015625 -4.859375 C 2.003906 -4.910156 1.960938 -4.9375 1.890625 -4.9375 C 1.816406 -4.9375 1.738281 -4.910156 1.65625 -4.859375 C 1.570312 -4.816406 1.488281 -4.757812 1.40625 -4.6875 C 1.320312 -4.625 1.242188 -4.554688 1.171875 -4.484375 C 1.109375 -4.410156 1.050781 -4.34375 1 -4.28125 C 0.90625 -4.164062 0.828125 -4.109375 0.765625 -4.109375 C 0.710938 -4.109375 0.660156 -4.132812 0.609375 -4.1875 C 0.554688 -4.25 0.460938 -4.375 0.328125 -4.5625 C 0.148438 -4.820312 0.0390625 -5.007812 0 -5.125 C -0.03125 -5.238281 -0.0195312 -5.332031 0.03125 -5.40625 C 0.0507812 -5.425781 0.0859375 -5.457031 0.140625 -5.5 C 0.203125 -5.539062 0.28125 -5.601562 0.375 -5.6875 C 0.46875 -5.769531 0.550781 -5.835938 0.625 -5.890625 C 0.695312 -5.953125 0.773438 -6.003906 0.859375 -6.046875 L 1.0625 -6.140625 L 1.0625 -6.234375 C 1.0625 -6.253906 1.0625 -6.273438 1.0625 -6.296875 C 1.070312 -6.328125 1.070312 -6.363281 1.0625 -6.40625 L 1.0625 -6.515625 C 1.082031 -6.492188 1.109375 -6.472656 1.140625 -6.453125 C 1.160156 -6.429688 1.1875 -6.40625 1.21875 -6.375 C 1.25 -6.34375 1.273438 -6.300781 1.296875 -6.25 L 1.375 -6.109375 L 1.734375 -6.109375 C 1.878906 -6.109375 1.984375 -6.101562 2.046875 -6.09375 C 2.109375 -6.082031 2.140625 -6.082031 2.140625 -6.09375 C 2.140625 -6.101562 2.140625 -6.117188 2.140625 -6.140625 C 2.140625 -6.171875 2.144531 -6.210938 2.15625 -6.265625 C 2.164062 -6.316406 2.171875 -6.367188 2.171875 -6.421875 C 2.179688 -6.484375 2.195312 -6.550781 2.21875 -6.625 C 2.238281 -6.707031 2.25 -6.785156 2.25 -6.859375 C 2.257812 -6.929688 2.269531 -7.003906 2.28125 -7.078125 L 2.28125 -7.265625 L 2.203125 -7.40625 C 2.160156 -7.476562 2.140625 -7.539062 2.140625 -7.59375 Z M 2.140625 -7.59375 "/></g></g></g><g fill="#ffffff" fill-opacity="1"><g transform="translate(55.598992, 18.780673)"><g><path d="M 1.78125 -6.21875 C 1.84375 -6.238281 1.9375 -6.253906 2.0625 -6.265625 C 2.195312 -6.273438 2.289062 -6.28125 2.34375 -6.28125 C 2.425781 -6.28125 2.523438 -6.257812 2.640625 -6.21875 C 2.765625 -6.1875 2.882812 -6.144531 3 -6.09375 C 3.125 -6.039062 3.242188 -5.984375 3.359375 -5.921875 C 3.472656 -5.859375 3.566406 -5.800781 3.640625 -5.75 C 3.804688 -5.632812 3.941406 -5.515625 4.046875 -5.390625 C 4.160156 -5.273438 4.265625 -5.148438 4.359375 -5.015625 C 4.398438 -4.953125 4.429688 -4.882812 4.453125 -4.8125 C 4.484375 -4.738281 4.503906 -4.65625 4.515625 -4.5625 C 4.523438 -4.476562 4.523438 -4.359375 4.515625 -4.203125 C 4.503906 -4.054688 4.476562 -3.867188 4.4375 -3.640625 C 4.40625 -3.441406 4.390625 -3.332031 4.390625 -3.3125 C 4.390625 -3.300781 4.382812 -3.257812 4.375 -3.1875 C 4.363281 -3.125 4.347656 -3.023438 4.328125 -2.890625 C 4.273438 -2.597656 4.25 -2.429688 4.25 -2.390625 C 4.226562 -2.273438 4.21875 -2.15625 4.21875 -2.03125 C 4.226562 -1.90625 4.242188 -1.769531 4.265625 -1.625 C 4.296875 -1.414062 4.3125 -1.3125 4.3125 -1.3125 C 4.34375 -1.3125 4.40625 -1.320312 4.5 -1.34375 C 4.59375 -1.363281 4.71875 -1.390625 4.875 -1.421875 C 4.90625 -1.421875 4.929688 -1.421875 4.953125 -1.421875 C 4.984375 -1.429688 5.007812 -1.4375 5.03125 -1.4375 L 5.09375 -1.4375 L 5.046875 -1.34375 C 4.992188 -1.15625 4.921875 -1.019531 4.828125 -0.9375 C 4.742188 -0.863281 4.660156 -0.816406 4.578125 -0.796875 C 4.515625 -0.773438 4.4375 -0.78125 4.34375 -0.8125 C 4.257812 -0.84375 4.171875 -0.882812 4.078125 -0.9375 C 3.867188 -1.0625 3.726562 -1.113281 3.65625 -1.09375 C 3.625 -1.09375 3.566406 -1.050781 3.484375 -0.96875 C 3.398438 -0.851562 3.296875 -0.75 3.171875 -0.65625 C 3.046875 -0.570312 2.914062 -0.519531 2.78125 -0.5 C 2.664062 -0.46875 2.535156 -0.46875 2.390625 -0.5 C 2.046875 -0.5625 1.628906 -0.796875 1.140625 -1.203125 C 0.910156 -1.378906 0.757812 -1.515625 0.6875 -1.609375 C 0.625 -1.710938 0.566406 -1.832031 0.515625 -1.96875 C 0.484375 -2.050781 0.46875 -2.191406 0.46875 -2.390625 C 0.46875 -2.585938 0.476562 -2.75 0.5 -2.875 C 0.539062 -3.132812 0.65625 -3.398438 0.84375 -3.671875 C 1.03125 -3.941406 1.253906 -4.117188 1.515625 -4.203125 C 1.546875 -4.222656 1.597656 -4.238281 1.671875 -4.25 C 1.742188 -4.257812 1.828125 -4.273438 1.921875 -4.296875 C 2.035156 -4.304688 2.132812 -4.3125 2.21875 -4.3125 C 2.3125 -4.320312 2.398438 -4.320312 2.484375 -4.3125 C 2.804688 -4.289062 2.96875 -4.285156 2.96875 -4.296875 C 2.96875 -4.304688 2.976562 -4.347656 3 -4.421875 C 3.019531 -4.492188 3.039062 -4.578125 3.0625 -4.671875 C 3.082031 -4.765625 3.101562 -4.847656 3.125 -4.921875 C 3.144531 -5.003906 3.15625 -5.050781 3.15625 -5.0625 C 3.15625 -5.113281 3.101562 -5.148438 3 -5.171875 C 2.976562 -5.179688 2.878906 -5.175781 2.703125 -5.15625 C 2.535156 -5.144531 2.40625 -5.128906 2.3125 -5.109375 C 2.15625 -5.078125 1.96875 -5.003906 1.75 -4.890625 C 1.664062 -4.847656 1.585938 -4.816406 1.515625 -4.796875 C 1.453125 -4.773438 1.390625 -4.765625 1.328125 -4.765625 C 1.160156 -4.796875 1.023438 -4.882812 0.921875 -5.03125 C 0.847656 -5.132812 0.828125 -5.25 0.859375 -5.375 C 0.878906 -5.46875 0.921875 -5.5625 0.984375 -5.65625 C 1.046875 -5.75 1.125 -5.832031 1.21875 -5.90625 C 1.3125 -5.988281 1.40625 -6.054688 1.5 -6.109375 C 1.601562 -6.171875 1.695312 -6.207031 1.78125 -6.21875 Z M 2.890625 -3.171875 C 2.878906 -3.234375 2.859375 -3.265625 2.828125 -3.265625 C 2.535156 -3.234375 2.320312 -3.097656 2.1875 -2.859375 C 2.050781 -2.628906 1.957031 -2.390625 1.90625 -2.140625 C 1.875 -1.992188 1.867188 -1.890625 1.890625 -1.828125 C 1.921875 -1.691406 1.96875 -1.617188 2.03125 -1.609375 C 2.113281 -1.578125 2.222656 -1.613281 2.359375 -1.71875 C 2.492188 -1.789062 2.695312 -1.960938 2.96875 -2.234375 L 3 -2.3125 L 2.984375 -2.46875 C 2.960938 -2.644531 2.945312 -2.789062 2.9375 -2.90625 C 2.925781 -3.019531 2.910156 -3.109375 2.890625 -3.171875 Z M 2.890625 -3.171875 "/></g></g></g><g fill="#ffffff" fill-opacity="1"><g transform="translate(60.781988, 18.780673)"><g><path d="M 1.375 -8.828125 C 1.65625 -8.679688 1.894531 -8.488281 2.09375 -8.25 C 2.289062 -8.019531 2.390625 -7.742188 2.390625 -7.421875 C 2.390625 -7.242188 2.367188 -7.054688 2.328125 -6.859375 C 2.285156 -6.660156 2.242188 -6.429688 2.203125 -6.171875 C 2.160156 -5.910156 2.113281 -5.625 2.0625 -5.3125 C 1.957031 -4.5625 1.882812 -3.894531 1.84375 -3.3125 C 1.800781 -2.726562 1.785156 -2.207031 1.796875 -1.75 L 1.8125 -1.390625 L 1.90625 -1.390625 C 2.0625 -1.398438 2.234375 -1.46875 2.421875 -1.59375 C 2.503906 -1.625 2.582031 -1.660156 2.65625 -1.703125 C 2.726562 -1.753906 2.765625 -1.773438 2.765625 -1.765625 C 2.765625 -1.722656 2.753906 -1.664062 2.734375 -1.59375 C 2.710938 -1.519531 2.6875 -1.441406 2.65625 -1.359375 C 2.625 -1.273438 2.59375 -1.191406 2.5625 -1.109375 C 2.53125 -1.035156 2.503906 -0.984375 2.484375 -0.953125 C 2.378906 -0.722656 2.242188 -0.570312 2.078125 -0.5 C 2.015625 -0.457031 1.953125 -0.441406 1.890625 -0.453125 C 1.804688 -0.453125 1.695312 -0.503906 1.5625 -0.609375 C 1.425781 -0.710938 1.289062 -0.832031 1.15625 -0.96875 C 1.03125 -1.113281 0.910156 -1.257812 0.796875 -1.40625 C 0.691406 -1.550781 0.625 -1.660156 0.59375 -1.734375 L 0.546875 -1.8125 L 0.546875 -2.546875 C 0.546875 -3.554688 0.632812 -4.691406 0.8125 -5.953125 C 0.832031 -6.191406 0.859375 -6.4375 0.890625 -6.6875 C 0.921875 -6.9375 0.957031 -7.179688 1 -7.421875 C 1.007812 -7.515625 1.007812 -7.582031 1 -7.625 C 0.988281 -7.65625 0.96875 -7.679688 0.9375 -7.703125 C 0.914062 -7.710938 0.863281 -7.722656 0.78125 -7.734375 C 0.695312 -7.753906 0.632812 -7.773438 0.59375 -7.796875 C 0.53125 -7.804688 0.488281 -7.863281 0.46875 -7.96875 C 0.476562 -8 0.484375 -8.023438 0.484375 -8.046875 C 0.484375 -8.078125 0.492188 -8.109375 0.515625 -8.140625 C 0.535156 -8.160156 0.570312 -8.203125 0.625 -8.265625 C 0.6875 -8.335938 0.773438 -8.429688 0.890625 -8.546875 L 1.15625 -8.8125 C 1.195312 -8.84375 1.226562 -8.867188 1.25 -8.890625 C 1.257812 -8.890625 1.269531 -8.882812 1.28125 -8.875 C 1.3125 -8.875 1.34375 -8.859375 1.375 -8.828125 Z M 1.375 -8.828125 "/></g></g></g><g fill="#ffffff" fill-opacity="1"><g transform="translate(63.589443, 18.780673)"><g/></g></g><g fill="#ffffff" fill-opacity="1"><g transform="translate(67.908595, 18.780673)"><g><path d="M 0.421875 -8.234375 C 0.441406 -8.285156 0.457031 -8.328125 0.46875 -8.359375 C 0.488281 -8.390625 0.523438 -8.40625 0.578125 -8.40625 C 0.628906 -8.40625 0.710938 -8.367188 0.828125 -8.296875 C 1.003906 -8.203125 1.175781 -8.085938 1.34375 -7.953125 C 1.519531 -7.828125 1.671875 -7.6875 1.796875 -7.53125 C 1.929688 -7.382812 2.035156 -7.210938 2.109375 -7.015625 C 2.191406 -6.828125 2.234375 -6.628906 2.234375 -6.421875 C 2.234375 -6.359375 2.234375 -6.289062 2.234375 -6.21875 C 2.242188 -6.144531 2.257812 -6.066406 2.28125 -5.984375 C 2.289062 -5.960938 2.296875 -5.9375 2.296875 -5.90625 C 2.398438 -5.4375 2.554688 -5.203125 2.765625 -5.203125 C 2.847656 -5.203125 2.914062 -5.222656 2.96875 -5.265625 C 3 -5.285156 3.046875 -5.320312 3.109375 -5.375 C 3.285156 -5.550781 3.441406 -5.734375 3.578125 -5.921875 C 3.722656 -6.109375 3.863281 -6.300781 4 -6.5 C 4.132812 -6.695312 4.28125 -6.925781 4.4375 -7.1875 C 4.59375 -7.445312 4.757812 -7.71875 4.9375 -8 C 4.976562 -8.070312 5.007812 -8.109375 5.03125 -8.109375 C 5.144531 -8.109375 5.253906 -8.082031 5.359375 -8.03125 C 5.460938 -7.976562 5.566406 -7.910156 5.671875 -7.828125 C 5.773438 -7.742188 5.863281 -7.648438 5.9375 -7.546875 C 6.019531 -7.453125 6.078125 -7.359375 6.109375 -7.265625 C 6.128906 -7.203125 6.140625 -7.09375 6.140625 -6.9375 C 6.140625 -6.789062 6.132812 -6.675781 6.125 -6.59375 C 6.082031 -6.4375 6.003906 -6.226562 5.890625 -5.96875 C 5.878906 -5.957031 5.859375 -5.910156 5.828125 -5.828125 C 5.773438 -5.722656 5.742188 -5.65625 5.734375 -5.625 C 5.679688 -5.488281 5.617188 -5.375 5.546875 -5.28125 C 5.492188 -5.1875 5.445312 -5.109375 5.40625 -5.046875 C 5.375 -4.992188 5.351562 -4.945312 5.34375 -4.90625 C 5.34375 -4.894531 5.335938 -4.890625 5.328125 -4.890625 C 5.328125 -4.890625 5.328125 -4.882812 5.328125 -4.875 C 5.316406 -4.875 5.3125 -4.875 5.3125 -4.875 C 5.3125 -4.84375 5.269531 -4.773438 5.1875 -4.671875 C 5.113281 -4.566406 5.023438 -4.457031 4.921875 -4.34375 C 4.828125 -4.226562 4.734375 -4.125 4.640625 -4.03125 C 4.546875 -3.9375 4.476562 -3.878906 4.4375 -3.859375 C 4.300781 -3.785156 4.164062 -3.738281 4.03125 -3.71875 L 3.90625 -3.71875 L 3.90625 -3.65625 C 3.914062 -3.601562 3.921875 -3.554688 3.921875 -3.515625 C 3.921875 -3.484375 3.921875 -3.457031 3.921875 -3.4375 C 3.941406 -3.414062 3.953125 -3.378906 3.953125 -3.328125 C 3.953125 -3.304688 3.953125 -3.28125 3.953125 -3.25 C 3.960938 -3.21875 3.96875 -3.1875 3.96875 -3.15625 C 4 -3.039062 4.023438 -2.894531 4.046875 -2.71875 C 4.066406 -2.550781 4.082031 -2.375 4.09375 -2.1875 C 4.101562 -2 4.109375 -1.816406 4.109375 -1.640625 C 4.117188 -1.460938 4.125 -1.304688 4.125 -1.171875 C 4.125 -0.648438 4.109375 -0.300781 4.078125 -0.125 C 4.054688 -0.0078125 4.003906 0.046875 3.921875 0.046875 C 3.835938 0.046875 3.703125 -0.0195312 3.515625 -0.15625 C 3.328125 -0.300781 3.132812 -0.460938 2.9375 -0.640625 C 2.75 -0.828125 2.570312 -1.015625 2.40625 -1.203125 C 2.25 -1.398438 2.148438 -1.550781 2.109375 -1.65625 C 2.097656 -1.71875 2.085938 -1.78125 2.078125 -1.84375 C 2.066406 -1.90625 2.0625 -1.972656 2.0625 -2.046875 C 2.050781 -2.128906 2.046875 -2.265625 2.046875 -2.453125 C 2.054688 -2.648438 2.070312 -2.90625 2.09375 -3.21875 C 2.113281 -3.84375 2.113281 -4.179688 2.09375 -4.234375 C 2.0625 -4.347656 2 -4.460938 1.90625 -4.578125 C 1.820312 -4.679688 1.660156 -4.863281 1.421875 -5.125 C 1.347656 -5.164062 1.296875 -5.210938 1.265625 -5.265625 C 1.085938 -5.429688 0.945312 -5.578125 0.84375 -5.703125 C 0.738281 -5.828125 0.660156 -5.953125 0.609375 -6.078125 C 0.554688 -6.210938 0.515625 -6.359375 0.484375 -6.515625 C 0.453125 -6.671875 0.414062 -6.875 0.375 -7.125 C 0.363281 -7.207031 0.351562 -7.300781 0.34375 -7.40625 C 0.34375 -7.519531 0.34375 -7.628906 0.34375 -7.734375 C 0.351562 -7.835938 0.363281 -7.9375 0.375 -8.03125 C 0.382812 -8.125 0.398438 -8.191406 0.421875 -8.234375 Z M 0.421875 -8.234375 "/></g></g></g><g fill="#ffffff" fill-opacity="1"><g transform="translate(74.325627, 18.780673)"><g><path d="M 1.78125 -6.21875 C 1.84375 -6.238281 1.9375 -6.253906 2.0625 -6.265625 C 2.195312 -6.273438 2.289062 -6.28125 2.34375 -6.28125 C 2.425781 -6.28125 2.523438 -6.257812 2.640625 -6.21875 C 2.765625 -6.1875 2.882812 -6.144531 3 -6.09375 C 3.125 -6.039062 3.242188 -5.984375 3.359375 -5.921875 C 3.472656 -5.859375 3.566406 -5.800781 3.640625 -5.75 C 3.804688 -5.632812 3.941406 -5.515625 4.046875 -5.390625 C 4.160156 -5.273438 4.265625 -5.148438 4.359375 -5.015625 C 4.398438 -4.953125 4.429688 -4.882812 4.453125 -4.8125 C 4.484375 -4.738281 4.503906 -4.65625 4.515625 -4.5625 C 4.523438 -4.476562 4.523438 -4.359375 4.515625 -4.203125 C 4.503906 -4.054688 4.476562 -3.867188 4.4375 -3.640625 C 4.40625 -3.441406 4.390625 -3.332031 4.390625 -3.3125 C 4.390625 -3.300781 4.382812 -3.257812 4.375 -3.1875 C 4.363281 -3.125 4.347656 -3.023438 4.328125 -2.890625 C 4.273438 -2.597656 4.25 -2.429688 4.25 -2.390625 C 4.226562 -2.273438 4.21875 -2.15625 4.21875 -2.03125 C 4.226562 -1.90625 4.242188 -1.769531 4.265625 -1.625 C 4.296875 -1.414062 4.3125 -1.3125 4.3125 -1.3125 C 4.34375 -1.3125 4.40625 -1.320312 4.5 -1.34375 C 4.59375 -1.363281 4.71875 -1.390625 4.875 -1.421875 C 4.90625 -1.421875 4.929688 -1.421875 4.953125 -1.421875 C 4.984375 -1.429688 5.007812 -1.4375 5.03125 -1.4375 L 5.09375 -1.4375 L 5.046875 -1.34375 C 4.992188 -1.15625 4.921875 -1.019531 4.828125 -0.9375 C 4.742188 -0.863281 4.660156 -0.816406 4.578125 -0.796875 C 4.515625 -0.773438 4.4375 -0.78125 4.34375 -0.8125 C 4.257812 -0.84375 4.171875 -0.882812 4.078125 -0.9375 C 3.867188 -1.0625 3.726562 -1.113281 3.65625 -1.09375 C 3.625 -1.09375 3.566406 -1.050781 3.484375 -0.96875 C 3.398438 -0.851562 3.296875 -0.75 3.171875 -0.65625 C 3.046875 -0.570312 2.914062 -0.519531 2.78125 -0.5 C 2.664062 -0.46875 2.535156 -0.46875 2.390625 -0.5 C 2.046875 -0.5625 1.628906 -0.796875 1.140625 -1.203125 C 0.910156 -1.378906 0.757812 -1.515625 0.6875 -1.609375 C 0.625 -1.710938 0.566406 -1.832031 0.515625 -1.96875 C 0.484375 -2.050781 0.46875 -2.191406 0.46875 -2.390625 C 0.46875 -2.585938 0.476562 -2.75 0.5 -2.875 C 0.539062 -3.132812 0.65625 -3.398438 0.84375 -3.671875 C 1.03125 -3.941406 1.253906 -4.117188 1.515625 -4.203125 C 1.546875 -4.222656 1.597656 -4.238281 1.671875 -4.25 C 1.742188 -4.257812 1.828125 -4.273438 1.921875 -4.296875 C 2.035156 -4.304688 2.132812 -4.3125 2.21875 -4.3125 C 2.3125 -4.320312 2.398438 -4.320312 2.484375 -4.3125 C 2.804688 -4.289062 2.96875 -4.285156 2.96875 -4.296875 C 2.96875 -4.304688 2.976562 -4.347656 3 -4.421875 C 3.019531 -4.492188 3.039062 -4.578125 3.0625 -4.671875 C 3.082031 -4.765625 3.101562 -4.847656 3.125 -4.921875 C 3.144531 -5.003906 3.15625 -5.050781 3.15625 -5.0625 C 3.15625 -5.113281 3.101562 -5.148438 3 -5.171875 C 2.976562 -5.179688 2.878906 -5.175781 2.703125 -5.15625 C 2.535156 -5.144531 2.40625 -5.128906 2.3125 -5.109375 C 2.15625 -5.078125 1.96875 -5.003906 1.75 -4.890625 C 1.664062 -4.847656 1.585938 -4.816406 1.515625 -4.796875 C 1.453125 -4.773438 1.390625 -4.765625 1.328125 -4.765625 C 1.160156 -4.796875 1.023438 -4.882812 0.921875 -5.03125 C 0.847656 -5.132812 0.828125 -5.25 0.859375 -5.375 C 0.878906 -5.46875 0.921875 -5.5625 0.984375 -5.65625 C 1.046875 -5.75 1.125 -5.832031 1.21875 -5.90625 C 1.3125 -5.988281 1.40625 -6.054688 1.5 -6.109375 C 1.601562 -6.171875 1.695312 -6.207031 1.78125 -6.21875 Z M 2.890625 -3.171875 C 2.878906 -3.234375 2.859375 -3.265625 2.828125 -3.265625 C 2.535156 -3.234375 2.320312 -3.097656 2.1875 -2.859375 C 2.050781 -2.628906 1.957031 -2.390625 1.90625 -2.140625 C 1.875 -1.992188 1.867188 -1.890625 1.890625 -1.828125 C 1.921875 -1.691406 1.96875 -1.617188 2.03125 -1.609375 C 2.113281 -1.578125 2.222656 -1.613281 2.359375 -1.71875 C 2.492188 -1.789062 2.695312 -1.960938 2.96875 -2.234375 L 3 -2.3125 L 2.984375 -2.46875 C 2.960938 -2.644531 2.945312 -2.789062 2.9375 -2.90625 C 2.925781 -3.019531 2.910156 -3.109375 2.890625 -3.171875 Z M 2.890625 -3.171875 "/></g></g></g><g fill="#ffffff" fill-opacity="1"><g transform="translate(79.508623, 18.780673)"><g><path d="M 2.140625 -7.59375 C 2.140625 -7.6875 2.1875 -7.734375 2.28125 -7.734375 C 2.351562 -7.734375 2.4375 -7.703125 2.53125 -7.640625 C 2.625 -7.578125 2.710938 -7.5 2.796875 -7.40625 C 2.890625 -7.320312 2.96875 -7.234375 3.03125 -7.140625 C 3.101562 -7.046875 3.15625 -6.96875 3.1875 -6.90625 C 3.320312 -6.632812 3.394531 -6.332031 3.40625 -6 L 3.421875 -5.84375 L 3.59375 -5.796875 C 3.925781 -5.703125 4.234375 -5.65625 4.515625 -5.65625 C 4.816406 -5.65625 5.117188 -5.679688 5.421875 -5.734375 C 5.734375 -5.785156 6.039062 -5.84375 6.34375 -5.90625 C 6.46875 -5.9375 6.53125 -5.953125 6.53125 -5.953125 C 6.539062 -5.953125 6.507812 -5.894531 6.4375 -5.78125 C 6.34375 -5.664062 6.242188 -5.539062 6.140625 -5.40625 C 6.046875 -5.269531 5.96875 -5.160156 5.90625 -5.078125 C 5.726562 -4.835938 5.539062 -4.648438 5.34375 -4.515625 C 5.144531 -4.390625 4.894531 -4.328125 4.59375 -4.328125 C 4.320312 -4.328125 4.039062 -4.394531 3.75 -4.53125 C 3.59375 -4.582031 3.46875 -4.625 3.375 -4.65625 C 3.289062 -4.695312 3.238281 -4.71875 3.21875 -4.71875 C 3.195312 -4.71875 3.1875 -4.378906 3.1875 -3.703125 L 3.1875 -2.265625 L 3.21875 -2.171875 C 3.25 -2.085938 3.300781 -2.046875 3.375 -2.046875 C 3.414062 -2.046875 3.460938 -2.050781 3.515625 -2.0625 C 3.578125 -2.070312 3.648438 -2.085938 3.734375 -2.109375 C 3.910156 -2.128906 4.050781 -2.144531 4.15625 -2.15625 C 4.257812 -2.164062 4.332031 -2.171875 4.375 -2.171875 C 4.382812 -2.171875 4.382812 -2.113281 4.375 -2 C 4.363281 -1.695312 4.289062 -1.410156 4.15625 -1.140625 C 4.019531 -0.867188 3.882812 -0.664062 3.75 -0.53125 C 3.644531 -0.425781 3.519531 -0.375 3.375 -0.375 C 3.257812 -0.375 3.179688 -0.390625 3.140625 -0.421875 C 3.117188 -0.441406 3.085938 -0.460938 3.046875 -0.484375 C 3.015625 -0.515625 2.976562 -0.539062 2.9375 -0.5625 C 2.863281 -0.59375 2.773438 -0.660156 2.671875 -0.765625 C 2.566406 -0.867188 2.460938 -0.984375 2.359375 -1.109375 C 2.265625 -1.234375 2.179688 -1.347656 2.109375 -1.453125 C 2.046875 -1.566406 2.003906 -1.65625 1.984375 -1.71875 L 1.984375 -2.484375 C 1.984375 -2.597656 1.984375 -2.734375 1.984375 -2.890625 C 1.984375 -3.054688 1.984375 -3.21875 1.984375 -3.375 C 1.992188 -3.53125 2 -3.671875 2 -3.796875 C 2.007812 -3.929688 2.015625 -4.019531 2.015625 -4.0625 C 2.023438 -4.132812 2.03125 -4.210938 2.03125 -4.296875 C 2.039062 -4.378906 2.046875 -4.460938 2.046875 -4.546875 C 2.046875 -4.710938 2.035156 -4.816406 2.015625 -4.859375 C 2.003906 -4.910156 1.960938 -4.9375 1.890625 -4.9375 C 1.816406 -4.9375 1.738281 -4.910156 1.65625 -4.859375 C 1.570312 -4.816406 1.488281 -4.757812 1.40625 -4.6875 C 1.320312 -4.625 1.242188 -4.554688 1.171875 -4.484375 C 1.109375 -4.410156 1.050781 -4.34375 1 -4.28125 C 0.90625 -4.164062 0.828125 -4.109375 0.765625 -4.109375 C 0.710938 -4.109375 0.660156 -4.132812 0.609375 -4.1875 C 0.554688 -4.25 0.460938 -4.375 0.328125 -4.5625 C 0.148438 -4.820312 0.0390625 -5.007812 0 -5.125 C -0.03125 -5.238281 -0.0195312 -5.332031 0.03125 -5.40625 C 0.0507812 -5.425781 0.0859375 -5.457031 0.140625 -5.5 C 0.203125 -5.539062 0.28125 -5.601562 0.375 -5.6875 C 0.46875 -5.769531 0.550781 -5.835938 0.625 -5.890625 C 0.695312 -5.953125 0.773438 -6.003906 0.859375 -6.046875 L 1.0625 -6.140625 L 1.0625 -6.234375 C 1.0625 -6.253906 1.0625 -6.273438 1.0625 -6.296875 C 1.070312 -6.328125 1.070312 -6.363281 1.0625 -6.40625 L 1.0625 -6.515625 C 1.082031 -6.492188 1.109375 -6.472656 1.140625 -6.453125 C 1.160156 -6.429688 1.1875 -6.40625 1.21875 -6.375 C 1.25 -6.34375 1.273438 -6.300781 1.296875 -6.25 L 1.375 -6.109375 L 1.734375 -6.109375 C 1.878906 -6.109375 1.984375 -6.101562 2.046875 -6.09375 C 2.109375 -6.082031 2.140625 -6.082031 2.140625 -6.09375 C 2.140625 -6.101562 2.140625 -6.117188 2.140625 -6.140625 C 2.140625 -6.171875 2.144531 -6.210938 2.15625 -6.265625 C 2.164062 -6.316406 2.171875 -6.367188 2.171875 -6.421875 C 2.179688 -6.484375 2.195312 -6.550781 2.21875 -6.625 C 2.238281 -6.707031 2.25 -6.785156 2.25 -6.859375 C 2.257812 -6.929688 2.269531 -7.003906 2.28125 -7.078125 L 2.28125 -7.265625 L 2.203125 -7.40625 C 2.160156 -7.476562 2.140625 -7.539062 2.140625 -7.59375 Z M 2.140625 -7.59375 "/></g></g></g><g fill="#ffffff" fill-opacity="1"><g transform="translate(85.709699, 18.780673)"><g><path d="M 0.59375 -6.34375 C 0.769531 -6.40625 1.097656 -6.210938 1.578125 -5.765625 L 1.703125 -5.625 L 1.859375 -5.78125 C 1.941406 -5.851562 2 -5.898438 2.03125 -5.921875 C 2.0625 -5.953125 2.09375 -5.976562 2.125 -6 C 2.257812 -6.113281 2.382812 -6.195312 2.5 -6.25 C 2.601562 -6.289062 2.742188 -6.300781 2.921875 -6.28125 C 3.328125 -6.238281 3.554688 -6.148438 3.609375 -6.015625 C 3.609375 -6.015625 3.617188 -5.953125 3.640625 -5.828125 C 3.648438 -5.773438 3.65625 -5.726562 3.65625 -5.6875 C 3.664062 -5.644531 3.664062 -5.609375 3.65625 -5.578125 C 3.632812 -5.441406 3.550781 -5.3125 3.40625 -5.1875 C 3.269531 -5.0625 3.144531 -4.945312 3.03125 -4.84375 C 2.925781 -4.75 2.785156 -4.601562 2.609375 -4.40625 C 2.515625 -4.300781 2.4375 -4.160156 2.375 -3.984375 C 2.320312 -3.804688 2.28125 -3.597656 2.25 -3.359375 C 2.21875 -3.128906 2.191406 -2.882812 2.171875 -2.625 C 2.160156 -2.363281 2.148438 -2.101562 2.140625 -1.84375 C 2.128906 -1.738281 2.125 -1.648438 2.125 -1.578125 C 2.125 -1.503906 2.117188 -1.457031 2.109375 -1.4375 C 2.097656 -1.414062 2.09375 -1.382812 2.09375 -1.34375 C 2.09375 -1.300781 2.085938 -1.238281 2.078125 -1.15625 C 2.054688 -0.789062 2.003906 -0.585938 1.921875 -0.546875 C 1.847656 -0.503906 1.769531 -0.503906 1.6875 -0.546875 C 1.664062 -0.566406 1.628906 -0.597656 1.578125 -0.640625 C 1.523438 -0.691406 1.453125 -0.757812 1.359375 -0.84375 C 1.203125 -0.976562 1.046875 -1.132812 0.890625 -1.3125 C 0.742188 -1.5 0.644531 -1.6875 0.59375 -1.875 C 0.53125 -2.0625 0.507812 -2.390625 0.53125 -2.859375 C 0.550781 -3.054688 0.566406 -3.253906 0.578125 -3.453125 C 0.585938 -3.660156 0.601562 -3.925781 0.625 -4.25 C 0.644531 -4.40625 0.660156 -4.566406 0.671875 -4.734375 C 0.679688 -4.898438 0.6875 -5.066406 0.6875 -5.234375 C 0.6875 -5.421875 0.675781 -5.546875 0.65625 -5.609375 C 0.644531 -5.679688 0.617188 -5.78125 0.578125 -5.90625 C 0.484375 -6.070312 0.453125 -6.179688 0.484375 -6.234375 C 0.503906 -6.285156 0.539062 -6.320312 0.59375 -6.34375 Z M 0.59375 -6.34375 "/></g></g></g><g fill="#ffffff" fill-opacity="1"><g transform="translate(89.473529, 18.780673)"><g><path d="M 1.25 -6.28125 C 1.269531 -6.289062 1.300781 -6.289062 1.34375 -6.28125 C 1.394531 -6.28125 1.457031 -6.257812 1.53125 -6.21875 C 1.9375 -5.988281 2.226562 -5.695312 2.40625 -5.34375 C 2.519531 -5.113281 2.539062 -4.863281 2.46875 -4.59375 C 2.394531 -4.300781 2.34375 -3.90625 2.3125 -3.40625 C 2.289062 -2.914062 2.285156 -2.414062 2.296875 -1.90625 L 2.296875 -0.953125 C 2.296875 -0.691406 2.289062 -0.550781 2.28125 -0.53125 C 2.207031 -0.382812 2.085938 -0.367188 1.921875 -0.484375 C 1.816406 -0.554688 1.6875 -0.671875 1.53125 -0.828125 C 1.382812 -0.984375 1.269531 -1.117188 1.1875 -1.234375 C 1.039062 -1.441406 0.941406 -1.601562 0.890625 -1.71875 C 0.847656 -1.832031 0.828125 -2 0.828125 -2.21875 C 0.828125 -2.382812 0.835938 -2.65625 0.859375 -3.03125 C 0.890625 -3.414062 0.929688 -3.816406 0.984375 -4.234375 C 1.003906 -4.441406 1.019531 -4.609375 1.03125 -4.734375 C 1.050781 -4.859375 1.0625 -4.929688 1.0625 -4.953125 C 1.0625 -5.023438 1.003906 -5.09375 0.890625 -5.15625 C 0.785156 -5.195312 0.6875 -5.21875 0.59375 -5.21875 C 0.5 -5.21875 0.441406 -5.257812 0.421875 -5.34375 C 0.421875 -5.375 0.457031 -5.4375 0.53125 -5.53125 C 0.601562 -5.625 0.6875 -5.722656 0.78125 -5.828125 C 0.875 -5.929688 0.96875 -6.023438 1.0625 -6.109375 C 1.15625 -6.203125 1.21875 -6.257812 1.25 -6.28125 Z M 1.171875 -8.578125 C 1.203125 -8.585938 1.253906 -8.59375 1.328125 -8.59375 C 1.460938 -8.59375 1.585938 -8.554688 1.703125 -8.484375 C 1.828125 -8.398438 1.9375 -8.289062 2.03125 -8.15625 C 2.125 -8.007812 2.175781 -7.878906 2.1875 -7.765625 C 2.238281 -7.609375 2.238281 -7.457031 2.1875 -7.3125 C 2.132812 -7.082031 2.03125 -6.929688 1.875 -6.859375 C 1.8125 -6.835938 1.742188 -6.828125 1.671875 -6.828125 C 1.597656 -6.828125 1.539062 -6.832031 1.5 -6.84375 C 1.332031 -6.925781 1.160156 -7.0625 0.984375 -7.25 C 0.804688 -7.4375 0.707031 -7.617188 0.6875 -7.796875 C 0.664062 -7.972656 0.703125 -8.132812 0.796875 -8.28125 C 0.890625 -8.425781 1.015625 -8.523438 1.171875 -8.578125 Z M 1.171875 -8.578125 "/></g></g></g></svg>